<svg preserveAspectRatio="xMidYMid meet" width="100%" height="100%" overflow="visible" style="display: block;" viewBox="0 0 19.9999 19.9999" fill="none" xmlns="http://www.w3.org/2000/svg">
<path id="Icon (Stroke)" d="M16 9C16 5.13401 12.866 2 9 2C5.13401 2 2 5.13401 2 9C2 12.866 5.13401 16 9 16C10.89 16 12.6038 15.2497 13.8633 14.0322C13.8877 14.0012 13.9148 13.9719 13.9434 13.9434C13.9719 13.9148 14.0012 13.8877 14.0322 13.8633C15.2497 12.6038 16 10.89 16 9ZM12 8C12.5523 8 13 8.44772 13 9C13 9.55228 12.5523 10 12 10H6C5.44772 10 5 9.55228 5 9C5 8.44772 5.44772 8 6 8H12ZM18 9C18 11.125 17.2619 13.0766 16.0303 14.6162L19.707 18.293C20.0976 18.6835 20.0976 19.3165 19.707 19.707C19.3165 20.0976 18.6835 20.0976 18.293 19.707L14.6162 16.0303C13.0766 17.2619 11.125 18 9 18C4.02944 18 0 13.9706 0 9C0 4.02944 4.02944 0 9 0C13.9706 0 18 4.02944 18 9Z" fill="var(--fill-0, #4A494F)"/>
</svg>
