<svg preserveAspectRatio="xMidYMid meet" width="100%" height="100%" overflow="visible" style="display: block;" viewBox="0 0 29.3338 29.3334" fill="none" xmlns="http://www.w3.org/2000/svg">
<path id="Icon (Stroke)" d="M11.4354 0.36054C14.5201 -0.336296 17.7473 -0.0175734 20.6359 1.26939C21.3085 1.56906 21.6112 2.35724 21.3117 3.02981C21.012 3.70239 20.2239 4.00518 19.5513 3.70559C17.1876 2.6524 14.5467 2.39182 12.0226 2.9621C9.49858 3.5324 7.22604 4.90257 5.54477 6.86965C3.8635 8.83675 2.86347 11.2954 2.69321 13.8775C2.52306 16.4594 3.19241 19.0271 4.60076 21.1978C6.00916 23.3685 8.08108 25.0263 10.5083 25.923C12.9356 26.8198 15.588 26.908 18.0695 26.1743C20.551 25.4407 22.7284 23.9239 24.2778 21.8514C25.8271 19.7791 26.6655 17.2617 26.6672 14.6743V13.4478C26.6672 12.7114 27.2641 12.1145 28.0005 12.1144C28.7369 12.1144 29.3338 12.7114 29.3338 13.4478V14.6743L29.3221 15.2668C29.2012 18.22 28.1897 21.073 26.4146 23.4478C24.5209 25.9809 21.8589 27.8349 18.826 28.7316C15.7931 29.6284 12.5506 29.5204 9.58383 28.4243C6.61746 27.3283 4.0851 25.3025 2.36378 22.6496C0.642398 19.9964 -0.176302 16.8575 0.0317482 13.7017C0.23983 10.5461 1.46283 7.54202 3.51743 5.13788C5.57233 2.73365 8.3504 1.05755 11.4354 0.36054ZM27.0578 3.05715C27.5783 2.53667 28.4224 2.53687 28.9432 3.05715C29.4637 3.57763 29.4635 4.42177 28.9432 4.94257L15.6099 18.2889C15.3599 18.539 15.0208 18.6795 14.6672 18.6796C14.3135 18.6796 13.9745 18.539 13.7245 18.2889L9.72446 14.2889C9.20391 13.7682 9.20381 12.9242 9.72446 12.4035C10.2451 11.883 11.0892 11.883 11.6099 12.4035L14.6672 15.4608L27.0578 3.05715Z" fill="var(--fill-0, #333236)"/>
</svg>
