<svg preserveAspectRatio="xMidYMid meet" width="100%" height="100%" overflow="visible" style="display: block;" viewBox="0 0 24 29.3333" fill="none" xmlns="http://www.w3.org/2000/svg">
<path id="Icon (Stroke)" d="M21.3333 7.73307C21.3333 6.59122 21.3329 5.8149 21.2839 5.21485C21.2361 4.63029 21.1492 4.33093 21.043 4.1224C20.7873 3.62073 20.3793 3.21268 19.8776 2.95703C19.6691 2.85078 19.3697 2.76391 18.7852 2.71615C18.1851 2.66713 17.4088 2.66667 16.2669 2.66667H7.73308C6.59122 2.66667 5.8149 2.66713 5.21485 2.71615C4.63029 2.76391 4.33093 2.85078 4.1224 2.95703C3.62073 3.21268 3.21268 3.62073 2.95703 4.1224C2.85078 4.33093 2.76391 4.63029 2.71615 5.21485C2.66713 5.8149 2.66667 6.59122 2.66667 7.73307V21.6003C2.66667 22.7421 2.66713 23.5184 2.71615 24.1185C2.76391 24.703 2.85078 25.0024 2.95703 25.2109C3.21268 25.7126 3.62073 26.1207 4.1224 26.3763C4.33093 26.4826 4.63029 26.5694 5.21485 26.6172C5.8149 26.6662 6.59122 26.6667 7.73308 26.6667H16.2669C17.4088 26.6667 18.1851 26.6662 18.7852 26.6172C19.3697 26.5694 19.6691 26.4826 19.8776 26.3763C20.3793 26.1207 20.7873 25.7126 21.043 25.2109C21.1492 25.0024 21.2361 24.703 21.2839 24.1185C21.3329 23.5184 21.3333 22.7421 21.3333 21.6003V7.73307ZM9.33334 17.3333C10.0697 17.3333 10.6667 17.9303 10.6667 18.6667C10.6667 19.403 10.0697 20 9.33334 20H6.66667C5.93029 20 5.33334 19.403 5.33334 18.6667C5.33334 17.9303 5.93029 17.3333 6.66667 17.3333H9.33334ZM14.6667 12C15.403 12 16 12.597 16 13.3333C16 14.0697 15.403 14.6667 14.6667 14.6667H6.66667C5.93029 14.6667 5.33334 14.0697 5.33334 13.3333C5.33334 12.597 5.93029 12 6.66667 12H14.6667ZM17.3333 6.66667C18.0697 6.66667 18.6667 7.26362 18.6667 8C18.6667 8.73638 18.0697 9.33334 17.3333 9.33334H6.66667C5.93029 9.33334 5.33334 8.73638 5.33334 8C5.33334 7.26362 5.93029 6.66667 6.66667 6.66667H17.3333ZM24 21.6003C24 22.6982 24.0014 23.6021 23.9414 24.3359C23.8802 25.0853 23.749 25.7748 23.4193 26.4219C22.908 27.4252 22.0919 28.2413 21.0885 28.7526C20.4415 29.0823 19.752 29.2135 19.0026 29.2747C18.2688 29.3347 17.3649 29.3333 16.2669 29.3333H7.73308C6.63509 29.3333 5.73124 29.3347 4.9974 29.2747C4.24799 29.2135 3.55853 29.0823 2.91146 28.7526C1.90812 28.2413 1.09202 27.4252 0.580732 26.4219C0.251032 25.7748 0.119835 25.0853 0.0585963 24.3359C-0.00136071 23.6021 2.43537e-06 22.6982 2.59907e-06 21.6003V7.73307C2.43537e-06 6.63509 -0.00136071 5.73124 0.0585963 4.9974C0.119835 4.24799 0.251031 3.55853 0.580732 2.91146C1.09202 1.90812 1.90812 1.09202 2.91146 0.580732C3.55853 0.251031 4.24799 0.119835 4.9974 0.0585963C5.73124 -0.00136071 6.63509 2.43534e-06 7.73308 2.59904e-06H16.2669C17.3649 2.43534e-06 18.2688 -0.00136071 19.0026 0.0585963C19.752 0.119835 20.4415 0.251031 21.0885 0.580732C22.0919 1.09202 22.908 1.90812 23.4193 2.91146C23.749 3.55853 23.8802 4.24799 23.9414 4.9974C24.0014 5.73124 24 6.63509 24 7.73307V21.6003Z" fill="var(--fill-0, #333236)"/>
</svg>
