<svg preserveAspectRatio="xMidYMid meet" width="100%" height="100%" overflow="visible" style="display: block;" viewBox="0 0 24 26.6667" fill="none" xmlns="http://www.w3.org/2000/svg">
<path id="Icon (Stroke)" d="M21.3333 18.3997C21.3333 17.2579 21.3329 16.4816 21.2839 15.8815C21.2361 15.297 21.1492 14.9976 21.043 14.7891C20.7873 14.2874 20.3793 13.8793 19.8776 13.6237C19.6691 13.5174 19.3697 13.4306 18.7852 13.3828C18.1851 13.3338 17.4088 13.3333 16.2669 13.3333H7.73308C6.59122 13.3333 5.8149 13.3338 5.21485 13.3828C4.63029 13.4306 4.33093 13.5174 4.1224 13.6237C3.62073 13.8793 3.21268 14.2874 2.95703 14.7891C2.85078 14.9976 2.76391 15.297 2.71615 15.8815C2.66713 16.4816 2.66667 17.2579 2.66667 18.3997V18.9336C2.66667 20.0754 2.66713 20.8518 2.71615 21.4518C2.76391 22.0364 2.85078 22.3357 2.95703 22.5443C3.21268 23.0459 3.62073 23.454 4.1224 23.7096C4.33093 23.8159 4.63029 23.9028 5.21485 23.9505C5.8149 23.9995 6.59122 24 7.73308 24H16.2669C17.4088 24 18.1851 23.9995 18.7852 23.9505C19.3697 23.9028 19.6691 23.8159 19.8776 23.7096C20.3793 23.454 20.7873 23.0459 21.043 22.5443C21.1492 22.3357 21.2361 22.0364 21.2839 21.4518C21.3329 20.8518 21.3333 20.0754 21.3333 18.9336V18.3997ZM17.3333 8C17.3333 5.05448 14.9455 2.66667 12 2.66667C9.05448 2.66667 6.66667 5.05448 6.66667 8V10.6706C6.99976 10.6683 7.35488 10.6667 7.73308 10.6667H16.2669C16.6451 10.6667 17.0002 10.6683 17.3333 10.6706V8ZM20 10.8685C20.3767 10.9511 20.7392 11.0694 21.0885 11.2474C22.0919 11.7587 22.908 12.5748 23.4193 13.5781C23.749 14.2252 23.8802 14.9147 23.9414 15.6641C24.0014 16.3979 24 17.3018 24 18.3997V18.9336C24 20.0316 24.0014 20.9354 23.9414 21.6693C23.8802 22.4187 23.749 23.1081 23.4193 23.7552C22.908 24.7585 22.0919 25.5746 21.0885 26.0859C20.4415 26.4156 19.752 26.5468 19.0026 26.6081C18.2688 26.668 17.3649 26.6667 16.2669 26.6667H7.73308C6.63509 26.6667 5.73124 26.668 4.9974 26.6081C4.24799 26.5468 3.55853 26.4156 2.91146 26.0859C1.90812 25.5746 1.09202 24.7585 0.580732 23.7552C0.251032 23.1081 0.119835 22.4187 0.0585963 21.6693C-0.00136071 20.9354 2.43537e-06 20.0316 2.59907e-06 18.9336V18.3997C2.43537e-06 17.3018 -0.00136071 16.3979 0.0585963 15.6641C0.119835 14.9147 0.251031 14.2252 0.580732 13.5781C1.09202 12.5748 1.90812 11.7587 2.91146 11.2474C3.26084 11.0694 3.6233 10.9511 4 10.8685V8C4 3.58172 7.58173 0 12 0C16.4183 0 20 3.58172 20 8V10.8685Z" fill="var(--fill-0, #ADAEB8)"/>
</svg>
