<svg preserveAspectRatio="xMidYMid meet" width="100%" height="100%" overflow="visible" style="display: block;" viewBox="0 0 20 20" fill="none" xmlns="http://www.w3.org/2000/svg">
<path id="Icon (Stroke)" d="M1.94931e-06 14.2002V5.79981C1.82683e-06 4.97632 -0.00102054 4.29843 0.0439473 3.74805C0.0898762 3.18599 0.188274 2.6689 0.435549 2.1836C0.819018 1.43109 1.43109 0.819018 2.1836 0.435549C2.6689 0.188274 3.18599 0.0898762 3.74805 0.0439473C4.29843 -0.00102053 4.97632 1.82651e-06 5.79981 1.94928e-06H8C8.55229 1.94928e-06 9 0.447717 9 1C9 1.55229 8.55229 2 8 2H5.79981C4.94342 2 4.36117 2.00035 3.91113 2.03711C3.47272 2.07293 3.2482 2.13809 3.0918 2.21778C2.71555 2.40951 2.40951 2.71555 2.21778 3.0918C2.13809 3.2482 2.07293 3.47272 2.03711 3.91113C2.00035 4.36117 2 4.94342 2 5.79981V14.2002C2 15.0566 2.00035 15.6388 2.03711 16.0889C2.07293 16.5273 2.13809 16.7518 2.21778 16.9082C2.40951 17.2845 2.71554 17.5905 3.0918 17.7822C3.2482 17.8619 3.47272 17.9271 3.91113 17.9629C4.36117 17.9997 4.94342 18 5.79981 18H14.2002C15.0566 18 15.6388 17.9997 16.0889 17.9629C16.5273 17.9271 16.7518 17.8619 16.9082 17.7822C17.2845 17.5905 17.5905 17.2845 17.7822 16.9082C17.8619 16.7518 17.9271 16.5273 17.9629 16.0889C17.9997 15.6388 18 15.0566 18 14.2002V12C18 11.4477 18.4477 11 19 11C19.5523 11 20 11.4477 20 12V14.2002C20 15.0237 20.001 15.7016 19.9561 16.252C19.9101 16.814 19.8117 17.3311 19.5645 17.8164C19.181 18.5689 18.5689 19.181 17.8164 19.5645C17.3311 19.8117 16.814 19.9101 16.252 19.9561C15.7016 20.001 15.0237 20 14.2002 20H5.79981C4.97632 20 4.29843 20.001 3.74805 19.9561C3.18599 19.9101 2.6689 19.8117 2.1836 19.5645C1.43109 19.181 0.819018 18.5689 0.435549 17.8164C0.188273 17.3311 0.0898761 16.814 0.0439473 16.252C-0.00102053 15.7016 1.82653e-06 15.0237 1.94931e-06 14.2002ZM20 7C20 7.55228 19.5523 7.99999 19 8C18.4477 8 18 7.55229 18 7V3.41406L10.707 10.707C10.3165 11.0976 9.6835 11.0976 9.29297 10.707C8.90245 10.3165 8.90245 9.6835 9.29297 9.29297L16.5859 2H13C12.4477 2 12 1.55229 12 1C12 0.447722 12.4477 1.94928e-06 13 1.94928e-06H19C19.5523 1.53493e-05 20 0.44773 20 1V7Z" fill="var(--fill-0, #4A494F)"/>
</svg>
