<svg preserveAspectRatio="xMidYMid meet" width="100%" height="100%" overflow="visible" style="display: block;" viewBox="0 0 20.0003 20.7335" fill="none" xmlns="http://www.w3.org/2000/svg">
<path id="Icon (Stroke)" d="M12.0001 12.3331C12.0001 12.0366 11.9989 11.8744 11.9894 11.7579C11.989 11.753 11.9878 11.7485 11.9874 11.7442C11.9837 11.7439 11.9798 11.7436 11.9757 11.7432C11.8592 11.7337 11.6968 11.7335 11.4005 11.7335H8.59974C8.30346 11.7335 8.14107 11.7337 8.02454 11.7432C8.02009 11.7436 8.01585 11.7438 8.01185 11.7442C8.01145 11.7485 8.01126 11.7531 8.01087 11.7579C8.00135 11.8744 8.00013 12.0366 8.00013 12.3331V18.7335H12.0001V12.3331ZM14.0001 18.7335H15.7999C16.3765 18.7335 16.749 18.7322 17.0324 18.709C17.304 18.6869 17.4048 18.6493 17.4542 18.6241C17.6422 18.5283 17.7949 18.3755 17.8908 18.1876C17.9159 18.1381 17.9535 18.0371 17.9757 17.7657C17.9989 17.4824 18.0001 17.1098 18.0001 16.5333V9.29792C18.0001 8.66724 17.9913 8.54265 17.963 8.44147C17.9302 8.32447 17.8761 8.21397 17.8038 8.11628C17.7413 8.03193 17.6478 7.94834 17.1505 7.56159L10.3683 2.2862C10.1816 2.14098 10.0821 2.0649 10.007 2.01471C10.0045 2.01308 10.0024 2.01129 10.0001 2.00983C9.9979 2.01129 9.99573 2.01308 9.99329 2.01471C9.91818 2.0649 9.81867 2.14098 9.63196 2.2862L2.84974 7.56159C2.35249 7.94834 2.25891 8.03193 2.19642 8.11628C2.12416 8.21397 2.07003 8.32447 2.03724 8.44147C2.00892 8.54265 2.00013 8.66723 2.00013 9.29792V16.5333L2.00306 17.2589C2.00614 17.4596 2.01296 17.6239 2.02454 17.7657C2.04674 18.0371 2.08432 18.1381 2.1095 18.1876C2.20537 18.3755 2.35808 18.5283 2.54603 18.6241C2.59546 18.6493 2.6963 18.6869 2.9679 18.709C3.25124 18.7322 3.62377 18.7335 4.20032 18.7335H6.00013V12.3331C6.00013 12.0696 5.99901 11.8117 6.01673 11.5948C6.03541 11.3663 6.07968 11.0966 6.2179 10.8253C6.40961 10.449 6.71569 10.143 7.09192 9.95124C7.36318 9.81303 7.63295 9.76876 7.86146 9.75006C8.07827 9.73235 8.33635 9.73346 8.59974 9.73346H11.4005C11.6639 9.73346 11.922 9.73235 12.1388 9.75006C12.3673 9.76876 12.6371 9.81303 12.9083 9.95124C13.2376 10.119 13.5131 10.3743 13.7052 10.6876L13.7824 10.8253L13.8693 11.0274C13.941 11.2286 13.9695 11.4233 13.9835 11.5948C14.0012 11.8117 14.0001 12.0696 14.0001 12.3331V18.7335ZM20.0001 16.5333C20.0001 17.0766 20.0012 17.5442 19.9699 17.9278C19.9376 18.3231 19.8657 18.7165 19.673 19.0948C19.3854 19.6592 18.9268 20.1187 18.3624 20.4063C17.9842 20.5991 17.5907 20.6699 17.1954 20.7022C16.8118 20.7336 16.3435 20.7335 15.7999 20.7335H4.20032C3.65677 20.7335 3.18849 20.7336 2.80481 20.7022C2.40958 20.6699 2.0161 20.5991 1.63782 20.4063C1.07344 20.1187 0.614857 19.6592 0.327276 19.0948C0.134572 18.7165 0.0626949 18.3231 0.0304006 17.9278C0.0147613 17.7362 0.00775693 17.5236 0.00403346 17.2911L0.000127209 16.5333V9.29792C0.000123249 8.78034 -0.00824501 8.33005 0.111455 7.90241C0.209791 7.55127 0.371217 7.221 0.588018 6.9278C0.852049 6.57082 1.21274 6.30116 1.62122 5.98346L8.40345 0.708072C8.68177 0.491597 9.04236 0.187263 9.47767 0.0694003C9.7771 -0.011631 10.0907 -0.021679 10.3937 0.0391269L10.5226 0.0694003L10.6827 0.122135C11.0469 0.262253 11.3533 0.5187 11.5968 0.708072L18.379 5.98346C18.7875 6.30116 19.1482 6.57082 19.4122 6.9278C19.629 7.221 19.7905 7.55127 19.8888 7.90241C20.0085 8.33005 20.0001 8.78034 20.0001 9.29792V16.5333Z" fill="var(--fill-0, #4A494F)"/>
</svg>
