<svg preserveAspectRatio="xMidYMid meet" width="100%" height="100%" overflow="visible" style="display: block;" viewBox="0 0 18.3333 18.3333" fill="none" xmlns="http://www.w3.org/2000/svg">
<path id="Icon (Stroke)" d="M10 14.939C9.72774 14.9779 9.4497 15 9.16667 15C8.88364 15 8.60559 14.9779 8.33333 14.939V15.8333C8.33333 16.2936 8.70643 16.6667 9.16667 16.6667C9.6269 16.6667 10 16.2936 10 15.8333V14.939ZM1.66667 8.33333C2.1269 8.33333 2.5 8.70643 2.5 9.16667C2.5 9.6269 2.1269 10 1.66667 10H0.833333C0.373096 10 0 9.6269 0 9.16667C0 8.70643 0.373096 8.33333 0.833333 8.33333H1.66667ZM17.5 8.33333C17.9602 8.33333 18.3333 8.70643 18.3333 9.16667C18.3333 9.6269 17.9602 10 17.5 10H16.6667C16.2064 10 15.8333 9.6269 15.8333 9.16667C15.8333 8.70643 16.2064 8.33333 16.6667 8.33333H17.5ZM2.66032 2.66032C2.98576 2.33488 3.51408 2.33488 3.83952 2.66032L4.33919 3.16081C4.66463 3.48624 4.66463 4.01376 4.33919 4.33919C4.01376 4.66463 3.48624 4.66463 3.16081 4.33919L2.66032 3.83952C2.33488 3.51408 2.33488 2.98576 2.66032 2.66032ZM14.4946 2.66032C14.8201 2.33519 15.3477 2.33575 15.673 2.66113C15.9981 2.98663 15.9984 3.51421 15.673 3.83952L15.1725 4.33919C14.8471 4.66456 14.3195 4.6646 13.9941 4.33919C13.6688 4.01374 13.6687 3.48621 13.9941 3.16081L14.4946 2.66032ZM8.33333 1.66667V0.833333C8.33333 0.373096 8.70643 0 9.16667 0C9.6269 0 10 0.373096 10 0.833333V1.66667C10 2.1269 9.6269 2.5 9.16667 2.5C8.70643 2.5 8.33333 2.1269 8.33333 1.66667ZM13.3333 9.16667C13.3333 6.86548 11.4679 5 9.16667 5C6.86548 5 5 6.86548 5 9.16667C5 11.4679 6.86548 13.3333 9.16667 13.3333C11.4679 13.3333 13.3333 11.4679 13.3333 9.16667ZM15 9.16667C15 11.4935 13.6373 13.5014 11.6667 14.4377V15.8333C11.6667 17.214 10.5474 18.3333 9.16667 18.3333C7.78596 18.3333 6.66667 17.214 6.66667 15.8333V14.4377C4.69608 13.5014 3.33333 11.4935 3.33333 9.16667C3.33333 5.94501 5.94501 3.33333 9.16667 3.33333C12.3883 3.33333 15 5.94501 15 9.16667Z" fill="var(--fill-0, #6500C2)"/>
</svg>
