<svg preserveAspectRatio="xMidYMid meet" width="100%" height="100%" overflow="visible" style="display: block;" viewBox="0 0 15.5954 16.6667" fill="none" xmlns="http://www.w3.org/2000/svg">
<path id="Icon (Stroke)" d="M7.79811 10C10.7156 10 13.3057 11.4097 14.9498 13.5856C15.0973 13.7808 15.2589 13.9924 15.373 14.196C15.504 14.4299 15.6011 14.701 15.5951 15.0301C15.5903 15.2948 15.5103 15.5433 15.4129 15.7389C15.3155 15.9345 15.1661 16.1477 14.9579 16.311C14.6802 16.529 14.3778 16.606 14.1091 16.6382C13.8628 16.6677 13.5685 16.6667 13.275 16.6667H2.32041C2.02703 16.6667 1.73329 16.6677 1.48708 16.6382C1.21846 16.606 0.91602 16.5289 0.63828 16.311C0.430126 16.1477 0.280765 15.9345 0.183364 15.7389C0.0859679 15.5433 0.00510006 15.2948 0.000258923 15.0301C-0.00568454 14.701 0.0913629 14.4299 0.222427 14.196C0.336487 13.9924 0.498886 13.7809 0.646418 13.5856C2.29056 11.4098 4.88059 10 7.79811 10ZM7.79811 11.6667C5.43225 11.6667 3.32337 12.8077 1.97617 14.5907C1.89379 14.6997 1.83087 14.7833 1.77842 14.8568C1.73911 14.9118 1.71267 14.9528 1.69378 14.9837C1.81753 14.9977 1.99374 15 2.32041 15H13.275C13.6006 15 13.7771 14.9976 13.9008 14.9837C13.8819 14.9529 13.8568 14.9114 13.8178 14.8568C13.7654 14.7834 13.7024 14.6997 13.6201 14.5907C12.2729 12.8077 10.1639 11.6667 7.79811 11.6667ZM10.7148 4.58333C10.7148 2.97254 9.40888 1.66673 7.79811 1.66667C6.18728 1.66667 4.88144 2.9725 4.88144 4.58333C4.88144 6.19416 6.18728 7.5 7.79811 7.5C9.40888 7.49993 10.7148 6.19412 10.7148 4.58333ZM12.3814 4.58333C12.3814 7.1146 10.3294 9.1666 7.79811 9.16667C5.26681 9.16667 3.21478 7.11464 3.21478 4.58333C3.21478 2.05203 5.26681 0 7.79811 0C10.3294 6.70029e-05 12.3814 2.05207 12.3814 4.58333Z" fill="var(--fill-0, #333236)"/>
</svg>
