<svg preserveAspectRatio="none" width="100%" height="100%" overflow="visible" style="display: block;" viewBox="0 0 120 120" fill="none" xmlns="http://www.w3.org/2000/svg">
<g id="play">
<path id="Icon" d="M30 25.6019C30 20.746 30 18.3181 31.0124 16.9798C31.8945 15.8138 33.2426 15.0923 34.702 15.0052C36.3772 14.9052 38.3973 16.2519 42.4376 18.9455L95.0154 53.9973C98.3538 56.2229 100.023 57.3358 100.605 58.7384C101.113 59.9646 101.113 61.3428 100.605 62.5691C100.023 63.9717 98.3538 65.0845 95.0154 67.3101L42.4376 102.362C38.3973 105.056 36.3772 106.402 34.702 106.302C33.2426 106.215 31.8945 105.494 31.0124 104.328C30 102.989 30 100.561 30 95.7056V25.6019Z" fill="var(--fill-0, white)"/>
</g>
</svg>
