<svg preserveAspectRatio="xMidYMid meet" width="100%" height="100%" overflow="visible" style="display: block;" viewBox="0 0 20 20" fill="none" xmlns="http://www.w3.org/2000/svg">
<path id="Icon (Stroke)" d="M6.29297 12.293C6.68349 11.9024 7.31651 11.9024 7.70703 12.293C8.09756 12.6835 8.09756 13.3165 7.70703 13.707L3.41406 18H7C7.55229 18 8 18.4477 8 19C8 19.5523 7.55229 20 7 20H1C0.734785 20 0.480507 19.8946 0.292971 19.707C0.105434 19.5195 1.94926e-06 19.2652 1.94928e-06 19V13C1.97562e-06 12.4477 0.447717 12 1 12C1.55229 12 2 12.4477 2 13V16.5859L6.29297 12.293ZM18 14.2002V12C18 11.4477 18.4477 11 19 11C19.5523 11 20 11.4477 20 12V14.2002C20 15.0237 20.001 15.7016 19.9561 16.252C19.9101 16.814 19.8117 17.3311 19.5645 17.8164C19.181 18.5689 18.5689 19.181 17.8164 19.5645C17.3311 19.8117 16.814 19.9101 16.252 19.9561C15.7016 20.001 15.0237 20 14.2002 20H12C11.4477 20 11 19.5523 11 19C11 18.4477 11.4477 18 12 18H14.2002C15.0566 18 15.6388 17.9997 16.0889 17.9629C16.5273 17.9271 16.7518 17.8619 16.9082 17.7822C17.2845 17.5905 17.5905 17.2845 17.7822 16.9082C17.8619 16.7518 17.9271 16.5273 17.9629 16.0889C17.9997 15.6388 18 15.0566 18 14.2002ZM1.94928e-06 8V5.79981C1.82651e-06 4.97632 -0.00102053 4.29843 0.0439473 3.74805C0.0898762 3.18599 0.188274 2.6689 0.435549 2.1836C0.819018 1.43109 1.43109 0.819018 2.1836 0.435549C2.6689 0.188274 3.18599 0.0898762 3.74805 0.0439473C4.29843 -0.00102053 4.97632 1.82651e-06 5.79981 1.94928e-06H8C8.55229 1.94928e-06 9 0.447717 9 1C9 1.55229 8.55229 2 8 2H5.79981C4.94342 2 4.36117 2.00035 3.91113 2.03711C3.47272 2.07293 3.2482 2.13809 3.0918 2.21778C2.71555 2.40951 2.40951 2.71555 2.21778 3.0918C2.13809 3.2482 2.07293 3.47272 2.03711 3.91113C2.00035 4.36117 2 4.94342 2 5.79981V8C2 8.55229 1.55229 9 1 9C0.447717 9 1.94928e-06 8.55229 1.94928e-06 8ZM20 7C20 7.55229 19.5523 8 19 8C18.4477 8 18 7.55229 18 7V3.41406L13.707 7.70703C13.3165 8.09756 12.6835 8.09756 12.293 7.70703C11.9024 7.31651 11.9024 6.68349 12.293 6.29297L16.5859 2H13C12.4477 2 12 1.55229 12 1C12 0.447717 12.4477 1.94928e-06 13 1.94928e-06H19C19.5523 1.94928e-06 20 0.447717 20 1V7Z" fill="var(--fill-0, #4A494F)"/>
</svg>
