<svg preserveAspectRatio="none" width="100%" height="100%" overflow="visible" style="display: block;" viewBox="0 0 20.6084 19" fill="none" xmlns="http://www.w3.org/2000/svg">
<path id="Icon (Stroke)" d="M18.6084 9.5C18.6084 5.35799 15.2503 2.0002 11.1084 2C6.96624 2 3.60837 5.35786 3.60837 9.5C3.60837 10.34 3.74571 11.146 3.999 11.8975C4.06297 12.0873 4.1431 12.3105 4.18845 12.5283L4.22068 12.7422L4.22751 12.9102C4.22786 13.0731 4.20787 13.2251 4.16501 13.3936C4.09643 13.6631 3.94978 13.9181 3.84275 14.1162L2.38669 16.8105L7.13181 16.3203C7.25587 16.3075 7.41769 16.2879 7.57614 16.2939C7.7084 16.299 7.82022 16.314 7.94919 16.3438C8.10523 16.3798 8.27616 16.4482 8.41306 16.501C9.24816 16.8227 10.1565 17 11.1084 17C15.2503 16.9998 18.6084 13.642 18.6084 9.5ZM11.2676 12C11.8198 12 12.2676 12.4477 12.2676 13C12.2676 13.5523 11.8198 14 11.2676 14H11.2578C10.7056 13.9999 10.2578 13.5522 10.2578 13C10.2578 12.4478 10.7056 12.0001 11.2578 12H11.2676ZM10.9101 9.05176C10.9112 9.05137 10.9141 9.05055 10.9189 9.04883C10.9288 9.04532 10.9463 9.03917 10.9697 9.03027C11.0166 9.01242 11.0872 8.9838 11.1738 8.94531C11.3502 8.86693 11.5784 8.75241 11.7988 8.60547C12.2999 8.27128 12.4774 7.97044 12.4775 7.75195V7.75C12.4779 7.45526 12.3734 7.16982 12.1836 6.94434C11.9938 6.71902 11.7307 6.56747 11.4404 6.51758C11.1499 6.46776 10.8508 6.52263 10.5967 6.67188C10.3426 6.82121 10.1496 7.05598 10.0517 7.33398C9.86847 7.85495 9.29731 8.12852 8.77634 7.94531C8.25535 7.76204 7.98174 7.19091 8.16501 6.66992C8.41961 5.94658 8.92189 5.33684 9.58298 4.94824C10.2443 4.55955 11.0222 4.41719 11.7783 4.54688C12.5342 4.67659 13.2199 5.06953 13.7138 5.65625C14.2076 6.24281 14.4784 6.98526 14.4775 7.75195L14.4668 7.98633C14.3605 9.13294 13.4918 9.88038 12.9082 10.2695C12.5665 10.4973 12.2315 10.6645 11.9863 10.7734C11.8624 10.8285 11.7577 10.8704 11.6816 10.8994C11.6435 10.9139 11.6119 10.9254 11.5888 10.9336C11.5775 10.9376 11.5678 10.9408 11.5605 10.9434C11.5571 10.9445 11.5542 10.9455 11.5517 10.9463C11.5504 10.9467 11.5488 10.9479 11.5478 10.9482H11.5459C11.022 11.1228 10.4549 10.8402 10.2802 10.3164C10.1165 9.82524 10.3552 9.29694 10.8174 9.08887L10.9101 9.05176ZM20.6084 9.5C20.6084 14.7466 16.3549 18.9998 11.1084 19C9.90674 19 8.75427 18.7769 7.69333 18.3682C7.60245 18.3332 7.54955 18.3128 7.51071 18.2988C7.47231 18.285 7.4782 18.2877 7.50095 18.293C7.51749 18.2935 7.52143 18.2919 7.49509 18.2939C7.46353 18.2964 7.4201 18.3011 7.33786 18.3096L2.21677 18.8389C1.99243 18.8621 1.75436 18.8873 1.55759 18.8896C1.37179 18.8918 1.03754 18.8812 0.716769 18.6855C0.340526 18.456 0.0838504 18.0731 0.0155975 17.6377C-0.0425575 17.2665 0.0753716 16.9531 0.14841 16.7822C0.225715 16.6014 0.340099 16.3917 0.447238 16.1934L2.08298 13.165C2.15433 13.033 2.19303 12.9622 2.21872 12.9092C2.22 12.9065 2.22055 12.9037 2.22165 12.9014C2.21976 12.8946 2.21854 12.8863 2.21579 12.877C2.19414 12.8037 2.16008 12.704 2.10349 12.5361C1.78172 11.5815 1.60837 10.56 1.60837 9.5C1.60837 4.25329 5.86167 0 11.1084 0C16.3549 0.000202552 20.6084 4.25342 20.6084 9.5Z" fill="var(--fill-0, #54009E)"/>
</svg>
