<svg preserveAspectRatio="xMidYMid meet" width="100%" height="100%" overflow="visible" style="display: block;" viewBox="0 0 29.3333 26.6667" fill="none" xmlns="http://www.w3.org/2000/svg">
<path id="Icon (Stroke)" d="M13.3333 25.3333V16.5521L10.276 19.6094C9.75534 20.1301 8.91132 20.1301 8.39063 19.6094C7.86993 19.0887 7.86993 18.2447 8.39063 17.724L13.724 12.3906L13.8255 12.2995C14.3492 11.8723 15.1212 11.9025 15.6094 12.3906L20.9427 17.724C21.4634 18.2447 21.4634 19.0887 20.9427 19.6094C20.422 20.1301 19.578 20.1301 19.0573 19.6094L16 16.5521V25.3333C16 26.0697 15.403 26.6667 14.6667 26.6667C13.9303 26.6667 13.3333 26.0697 13.3333 25.3333ZM26.6667 14C26.6667 11.5704 24.809 9.57253 22.4375 9.35286C21.8334 9.29692 21.3432 8.84081 21.2448 8.24219C20.7249 5.07964 17.9762 2.66667 14.6667 2.66667C11.3571 2.66667 8.60845 5.07964 8.08854 8.24219C7.99009 8.84081 7.49992 9.29692 6.89583 9.35286C4.5243 9.57253 2.66667 11.5704 2.66667 14C2.66667 15.6167 3.48818 17.0421 4.74219 17.8815C5.35388 18.2912 5.51762 19.1199 5.10807 19.7318C4.69839 20.3435 3.86965 20.5072 3.25781 20.0977C1.29605 18.7843 0 16.5437 0 14C0 10.5225 2.41969 7.61136 5.66797 6.85677C6.75365 2.90421 10.369 0 14.6667 0C18.9643 0 22.5783 2.90438 23.6641 6.85677C26.913 7.61091 29.3333 10.522 29.3333 14C29.3333 16.5437 28.0373 18.7843 26.0755 20.0977C25.4637 20.5072 24.6349 20.3435 24.2253 19.7318C23.8157 19.1199 23.9795 18.2912 24.5911 17.8815C25.8452 17.0421 26.6667 15.6167 26.6667 14Z" fill="var(--fill-0, #333236)"/>
</svg>
