<svg preserveAspectRatio="none" width="100%" height="100%" overflow="visible" style="display: block;" viewBox="0 0 18.0001 22" fill="none" xmlns="http://www.w3.org/2000/svg">
<path id="Icon (Stroke)" d="M1.9493e-06 16.2002V5.79981C1.82653e-06 4.97632 -0.00102053 4.29843 0.0439473 3.74805C0.0898762 3.18599 0.188274 2.6689 0.435549 2.1836C0.819018 1.43109 1.43109 0.819018 2.1836 0.435549C2.6689 0.188274 3.18599 0.0898762 3.74805 0.0439473C4.29843 -0.00102053 4.97632 1.82651e-06 5.79981 1.94928e-06H9.01172L9.49512 0.000978512C9.94978 0.00465222 10.3261 0.0226409 10.6914 0.110354C10.9183 0.164834 11.1383 0.242178 11.3516 0.334963C11.3961 0.351727 11.4392 0.370879 11.4805 0.393557C11.6055 0.453303 11.7292 0.517235 11.8477 0.589846C12.2746 0.851578 12.6282 1.21417 13.1133 1.69922L16.3008 4.88672C16.7858 5.37177 17.1484 5.72539 17.4102 6.15235C17.4826 6.27058 17.5468 6.39379 17.6064 6.51856C17.6292 6.55977 17.6482 6.60296 17.665 6.64746C17.758 6.86103 17.8351 7.08143 17.8897 7.3086C18.0066 7.79571 18 8.30211 18 8.98828V16.2002C18 17.0237 18.001 17.7016 17.9561 18.252C17.9101 18.814 17.8117 19.3311 17.5645 19.8164C17.181 20.5689 16.5689 21.181 15.8164 21.5645C15.3311 21.8117 14.814 21.9101 14.252 21.9561C13.7016 22.001 13.0237 22 12.2002 22H5.79981C4.97632 22 4.29843 22.001 3.74805 21.9561C3.18599 21.9101 2.6689 21.8117 2.1836 21.5645C1.43109 21.181 0.819017 20.5689 0.435549 19.8164C0.188274 19.3311 0.0898762 18.814 0.0439473 18.252C-0.00102054 17.7016 1.82653e-06 17.0237 1.9493e-06 16.2002ZM2 16.2002C2 17.0566 2.00035 17.6388 2.03711 18.0889C2.07293 18.5273 2.13809 18.7518 2.21778 18.9082C2.40951 19.2845 2.71555 19.5905 3.0918 19.7822C3.2482 19.8619 3.47272 19.9271 3.91113 19.9629C4.36117 19.9997 4.94342 20 5.79981 20H12.2002C13.0566 20 13.6388 19.9997 14.0889 19.9629C14.5273 19.9271 14.7518 19.8619 14.9082 19.7822C15.2845 19.5905 15.5905 19.2845 15.7822 18.9082C15.8619 18.7518 15.9271 18.5273 15.9629 18.0889C15.9997 17.6388 16 17.0566 16 16.2002V8.98828C16 8.46069 15.9945 8.1857 15.9775 8H12.5996C12.3362 8 12.0781 8.00111 11.8613 7.9834C11.6328 7.9647 11.3631 7.92044 11.0918 7.78223C10.7155 7.59049 10.4095 7.28446 10.2178 6.90821C10.0796 6.63694 10.0353 6.36718 10.0166 6.13867C9.99889 5.92186 10 5.66378 10 5.40039V2.02149C9.88302 2.01082 9.73067 2.00428 9.50196 2.00196L9.01172 2H5.79981C4.94342 2 4.36117 2.00035 3.91113 2.03711C3.47272 2.07293 3.2482 2.13809 3.0918 2.21778C2.71555 2.40951 2.40951 2.71555 2.21778 3.0918C2.13809 3.2482 2.07293 3.47272 2.03711 3.91113C2.00035 4.36117 2 4.94342 2 5.79981V16.2002ZM12 5.40039C12 5.69667 12.0012 5.85905 12.0107 5.97559C12.0111 5.97969 12.0114 5.98359 12.0117 5.98731C12.0157 5.98768 12.0199 5.98889 12.0244 5.98926C12.141 5.99878 12.3033 6 12.5996 6H14.5859L12 3.41406V5.40039Z" fill="var(--fill-0, #66666E)"/>
</svg>
