<svg preserveAspectRatio="xMidYMid meet" width="100%" height="100%" overflow="visible" style="display: block;" viewBox="0 0 29.3334 21.3333" fill="none" xmlns="http://www.w3.org/2000/svg">
<path id="Icon (Stroke)" d="M14.9336 2.59904e-06C16.0316 2.43534e-06 16.9354 -0.00136071 17.6693 0.0585963C18.4187 0.119835 19.1081 0.251031 19.7552 0.580732C20.7586 1.09202 21.5746 1.90812 22.0859 2.91146C22.4156 3.55853 22.5468 4.24799 22.6081 4.9974C22.6628 5.66671 22.6651 6.47748 22.6654 7.44792L25.2357 4.87761C25.5025 4.61076 25.7665 4.34592 25.9961 4.15365C26.1919 3.98969 26.6046 3.66106 27.1758 3.61589L27.4141 3.61068C27.8881 3.62979 28.3401 3.81773 28.6888 4.13933L28.8542 4.3112L28.9792 4.47787C29.24 4.87339 29.2888 5.30188 29.3086 5.52474C29.335 5.82312 29.3333 6.19803 29.3333 6.57552V14.7578C29.3333 15.1353 29.335 15.5102 29.3086 15.8086C29.286 16.0633 29.2259 16.5866 28.8542 17.0221C28.4384 17.509 27.814 17.7677 27.1758 17.7174C26.6046 17.6723 26.1919 17.3437 25.9961 17.1797C25.7665 16.9874 25.5025 16.7226 25.2357 16.4557L22.6654 13.8841C22.6651 14.8551 22.6628 15.6663 22.6081 16.3359C22.5468 17.0853 22.4156 17.7748 22.0859 18.4219C21.5746 19.4252 20.7586 20.2413 19.7552 20.7526C19.1081 21.0823 18.4187 21.2135 17.6693 21.2747C16.9354 21.3347 16.0316 21.3333 14.9336 21.3333H7.73308C6.63509 21.3333 5.73124 21.3347 4.9974 21.2747C4.24799 21.2135 3.55853 21.0823 2.91146 20.7526C1.90812 20.2413 1.09202 19.4252 0.580732 18.4219C0.251031 17.7748 0.119835 17.0853 0.0585963 16.3359C-0.00136071 15.6021 2.43534e-06 14.6982 2.59904e-06 13.6003V7.73307C2.43494e-06 6.63509 -0.00136069 5.73124 0.0585963 4.9974C0.119835 4.24799 0.251031 3.55853 0.580732 2.91146C1.09202 1.90812 1.90812 1.09202 2.91146 0.580732C3.55853 0.251031 4.24799 0.119835 4.9974 0.0585963C5.73124 -0.00136071 6.63509 2.43534e-06 7.73308 2.59904e-06H14.9336ZM23.2188 10.6667L26.6667 14.1133V7.21875L23.2188 10.6667ZM2.66667 13.6003C2.66667 14.7421 2.66713 15.5184 2.71615 16.1185C2.76391 16.703 2.85078 17.0024 2.95703 17.2109C3.21268 17.7126 3.62073 18.1207 4.1224 18.3763C4.33093 18.4826 4.63029 18.5694 5.21485 18.6172C5.8149 18.6662 6.59122 18.6667 7.73308 18.6667H14.9336C16.0755 18.6667 16.8518 18.6662 17.4518 18.6172C18.0364 18.5694 18.3357 18.4826 18.5443 18.3763C19.0459 18.1207 19.454 17.7126 19.7096 17.2109C19.8159 17.0024 19.9028 16.703 19.9505 16.1185C19.9995 15.5184 20 14.7421 20 13.6003V7.73307C20 6.59122 19.9995 5.8149 19.9505 5.21485C19.9028 4.63029 19.8159 4.33093 19.7096 4.1224C19.454 3.62073 19.0459 3.21268 18.5443 2.95703C18.3357 2.85078 18.0364 2.76391 17.4518 2.71615C16.8518 2.66713 16.0755 2.66667 14.9336 2.66667H7.73308C6.59122 2.66667 5.8149 2.66713 5.21485 2.71615C4.63029 2.76391 4.33093 2.85078 4.1224 2.95703C3.62073 3.21268 3.21268 3.62073 2.95703 4.1224C2.85078 4.33093 2.76391 4.63029 2.71615 5.21485C2.66713 5.8149 2.66667 6.59122 2.66667 7.73307V13.6003Z" fill="var(--fill-0, #333236)"/>
</svg>
