<svg preserveAspectRatio="none" width="100%" height="100%" overflow="visible" style="display: block;" viewBox="0 0 26.6667 26.6664" fill="none" xmlns="http://www.w3.org/2000/svg">
<path id="Icon (Stroke)" d="M2.59907e-06 18.9333V17.333C2.59907e-06 16.5966 0.596956 15.9997 1.33334 15.9997C2.06972 15.9997 2.66667 16.5966 2.66667 17.333V18.9333C2.66667 20.0751 2.66713 20.8515 2.71615 21.4515C2.76391 22.0361 2.85078 22.3354 2.95703 22.544C3.21268 23.0456 3.62073 23.4537 4.1224 23.7093C4.33093 23.8156 4.63029 23.9024 5.21485 23.9502C5.8149 23.9992 6.59122 23.9997 7.73308 23.9997H18.9336C20.0755 23.9997 20.8518 23.9992 21.4518 23.9502C22.0364 23.9024 22.3357 23.8156 22.5443 23.7093C23.0459 23.4537 23.454 23.0456 23.7096 22.544C23.8159 22.3354 23.9028 22.0361 23.9505 21.4515C23.9995 20.8515 24 20.0751 24 18.9333V17.333C24 16.5966 24.597 15.9997 25.3333 15.9997C26.0697 15.9997 26.6667 16.5966 26.6667 17.333V18.9333C26.6667 20.0313 26.668 20.9351 26.6081 21.669C26.5468 22.4184 26.4156 23.1078 26.0859 23.7549C25.5746 24.7582 24.7586 25.5743 23.7552 26.0856C23.1081 26.4153 22.4187 26.5465 21.6693 26.6078C20.9354 26.6677 20.0316 26.6664 18.9336 26.6664H7.73308C6.63509 26.6664 5.73124 26.6677 4.9974 26.6078C4.24799 26.5465 3.55853 26.4153 2.91146 26.0856C1.90812 25.5743 1.09202 24.7582 0.580732 23.7549C0.251031 23.1078 0.119835 22.4184 0.0585963 21.669C-0.00136071 20.9351 2.43537e-06 20.0313 2.59907e-06 18.9333ZM12 17.333V4.55177L7.60938 8.9424C7.08868 9.46309 6.24466 9.46309 5.72396 8.9424C5.20326 8.4217 5.20326 7.57768 5.72396 7.05698L12.3906 0.390312L12.4922 0.299167C13.0159 -0.127967 13.7879 -0.0978421 14.276 0.390312L20.9427 7.05698C21.4634 7.57768 21.4634 8.4217 20.9427 8.9424C20.422 9.46309 19.578 9.46309 19.0573 8.9424L14.6667 4.55177V17.333C14.6667 18.0694 14.0697 18.6664 13.3333 18.6664C12.597 18.6664 12 18.0694 12 17.333Z" fill="var(--fill-0, #760DDE)"/>
</svg>
