<svg preserveAspectRatio="none" width="100%" height="100%" overflow="visible" style="display: block;" viewBox="0 0 9.99987 9.99987" fill="none" xmlns="http://www.w3.org/2000/svg">
<path id="Icon (Stroke)" d="M8.57741 0.244078C8.90285 -0.0813592 9.43036 -0.0813592 9.7558 0.244078C10.0812 0.569515 10.0812 1.09703 9.7558 1.42246L6.17832 4.99994L9.7558 8.57741C10.0812 8.90285 10.0812 9.43036 9.7558 9.7558C9.43036 10.0812 8.90285 10.0812 8.57741 9.7558L4.99994 6.17832L1.42246 9.7558C1.09703 10.0812 0.569515 10.0812 0.244078 9.7558C-0.0813592 9.43036 -0.0813592 8.90285 0.244078 8.57741L3.82155 4.99994L0.244078 1.42246C-0.0813592 1.09703 -0.0813592 0.569515 0.244078 0.244078C0.569515 -0.0813592 1.09703 -0.0813592 1.42246 0.244078L4.99994 3.82155L8.57741 0.244078Z" fill="var(--fill-0, white)"/>
</svg>
