<svg preserveAspectRatio="xMidYMid meet" width="100%" height="100%" overflow="visible" style="display: block;" viewBox="0 0 68.8095 112.493" fill="none" xmlns="http://www.w3.org/2000/svg">
<g id="Mask group" style="mix-blend-mode:multiply">
<mask id="mask0_251_2723" style="mask-type:alpha" maskUnits="userSpaceOnUse" x="0" y="14" width="70" height="85">
<path id="Union" fill-rule="evenodd" clip-rule="evenodd" d="M59.5664 66.7145C65.2996 56.8872 68.8095 46.1015 68.8095 36.469C68.8095 16.3277 53.4641 8.85464 34.5347 19.7774C15.6052 30.7002 0.259844 55.8825 0.259844 76.0238C0.259844 96.165 15.6052 103.638 34.5347 92.7153C41.0117 88.9779 47.0691 83.5711 52.2357 77.2679C56.3984 77.7616 60.9432 75.1405 62.9749 73.4993C60.961 71.5071 59.9757 68.727 59.5664 66.7145Z" fill="var(--fill-0, #E9CCFF)" stroke="var(--stroke-0, #333236)" stroke-width="0.6"/>
</mask>
<g mask="url(#mask0_251_2723)">
<path id="Vector" opacity="0.6" d="M-65.8663 114.539C-65.8319 114.548 -65.7974 114.554 -65.763 114.554C-65.6385 114.554 -65.518 114.489 -65.449 114.38L-56.1528 98.6163L6.51044 62.4944C8.57662 61.3033 9.86094 59.1104 9.88895 56.7257L10.5373 1.51305C10.5316 -0.224067 9.91902 -1.53074 8.81261 -2.16781C7.70046 -2.80679 6.25331 -2.67478 4.74109 -1.80048L-68.5845 40.5102C-71.5649 42.2301 -73.9807 46.4198 -73.9711 49.8482L-73.8218 103.207C-73.816 104.944 -73.2035 106.253 -72.0971 106.888C-70.9888 107.527 -69.5397 107.393 -68.0256 106.521L-66.1611 105.446L-66.1362 114.181C-66.1362 114.347 -66.0252 114.493 -65.8663 114.539Z" fill="var(--fill-0, #ADAEB8)"/>
</g>
</g>
</svg>
