<svg preserveAspectRatio="xMidYMid meet" width="100%" height="100%" overflow="visible" style="display: block;" viewBox="0 0 185.517 191.49" fill="none" xmlns="http://www.w3.org/2000/svg">
<g id="&#237;&#149;&#152;&#237;&#138;&#184; &#235;&#167;&#144;&#237;&#146;&#141;&#236;&#132;&#160;">
<g id="Union">
<path d="M51.9987 1.26859C28.0843 1.26309 16.1273 1.26063 8.69797 8.68814C1.26858 16.1158 1.26828 28.073 1.26828 51.9879V108.593C1.26828 132.508 1.26859 144.465 8.69797 151.896C9.87575 153.074 11.1673 154.065 12.6023 154.9L18.5095 160.412L22.1706 162.244L22.5505 158.158C29.6604 159.329 39.0865 159.333 51.9987 159.336L73.0183 159.34L83.906 176.384L83.9421 176.465C84.1975 177.035 84.5476 177.572 84.9577 178.029L86.1726 179.932C86.5417 180.51 87.1436 180.807 87.7527 180.823L93.2312 186.275C95.1061 188.14 97.2145 187.66 97.2146 185.368V171.247C97.2146 170.618 97.0556 169.965 96.7859 169.35L103.734 159.347L123.453 159.352C147.368 159.358 159.325 159.36 166.755 151.933C174.184 144.505 174.184 132.548 174.184 108.633V52.0274C174.184 38.4193 174.184 28.6829 172.815 21.4491L175.921 17.138L168.375 10.5656C167.879 9.92126 167.339 9.30924 166.755 8.72456C159.325 1.29345 147.368 1.29023 123.453 1.28473L51.9987 1.26859Z" fill="var(--fill-0, #32066A)"/>
<path d="M51.9987 1.26859L51.9986 2.53687V2.53687L51.9987 1.26859ZM8.69797 8.68814L7.80119 7.79117L7.80121 7.79116L8.69797 8.68814ZM1.26828 51.9879L-1.66893e-06 51.9877L1.26828 51.9879ZM1.26828 108.593L-1.66893e-06 108.593L1.26828 108.593ZM8.69797 151.896L7.80112 152.793V152.793L8.69797 151.896ZM12.6023 154.9L13.2396 153.803L13.3631 153.875L13.4675 153.972L12.6023 154.9ZM18.5095 160.412L17.9422 161.546L17.7783 161.464L17.6443 161.339L18.5095 160.412ZM22.1706 162.244L23.4335 162.361L23.2618 164.208L21.6033 163.378L22.1706 162.244ZM22.5505 158.158L21.2877 158.04L21.4136 156.685L22.7565 156.906L22.5505 158.158ZM51.9987 159.336L51.9987 160.604L51.9986 160.604L51.9987 159.336ZM73.0183 159.34L73.0183 158.072L73.713 158.072L74.0871 158.657L73.0183 159.34ZM83.906 176.384L84.9748 175.701L85.0258 175.781L85.0644 175.867L83.906 176.384ZM83.9421 176.465L82.7847 176.983L82.7837 176.981L83.9421 176.465ZM84.9577 178.029L85.9022 177.183L85.9711 177.26L86.0266 177.347L84.9577 178.029ZM86.1726 179.932L85.1038 180.614L85.1037 180.614L86.1726 179.932ZM87.7527 180.823L87.7853 179.555L88.2896 179.568L88.6472 179.924L87.7527 180.823ZM93.2312 186.275L92.3367 187.174L92.3366 187.173L93.2312 186.275ZM97.2146 185.368L98.4828 185.368V185.368L97.2146 185.368ZM96.7859 169.35L95.6243 169.859L95.3393 169.209L95.7442 168.627L96.7859 169.35ZM103.734 159.347L102.692 158.624L103.071 158.079L103.734 158.079L103.734 159.347ZM123.453 159.352L123.453 160.62L123.453 160.62L123.453 159.352ZM166.755 151.933L167.651 152.83L167.651 152.83L166.755 151.933ZM174.184 52.0274L175.453 52.0276L174.184 52.0274ZM172.815 21.4491L171.569 21.6847L171.468 21.1495L171.786 20.7077L172.815 21.4491ZM175.921 17.138L176.754 16.1817L177.626 16.9412L176.95 17.8794L175.921 17.138ZM168.375 10.5656L167.542 11.5219L167.447 11.4392L167.37 11.3393L168.375 10.5656ZM166.755 8.72456L167.651 7.82792L167.651 7.82792L166.755 8.72456ZM123.453 1.28473L123.453 0.0164533L123.453 0.0164533L123.453 1.28473ZM51.9987 1.26859L51.9986 2.53687C40.0056 2.53411 31.1384 2.53484 24.3354 3.44799C17.5688 4.35625 13.0345 6.14625 9.59472 9.58513L8.69797 8.68814L7.80121 7.79116C11.7908 3.80252 16.9497 1.88 23.9976 0.933982C31.0089 -0.00713599 40.0775 -0.00242904 51.9989 0.000312662L51.9987 1.26859ZM8.69797 8.68814L9.59474 9.58512C6.15498 13.0241 4.36391 17.558 3.45407 24.3245C2.53932 31.1275 2.53656 39.9948 2.53656 51.988L1.26828 51.9879L-1.66893e-06 51.9877C-1.66893e-06 40.0661 -0.00262618 30.9974 0.940138 23.9861C1.8878 16.9384 3.81155 11.7799 7.80119 7.79117L8.69797 8.68814ZM1.26828 51.9879L2.53656 51.988V108.594L1.26828 108.593L-1.66893e-06 108.593V51.9877L1.26828 51.9879ZM1.26828 108.593L2.53656 108.594C2.53656 120.587 2.53932 129.454 3.45407 136.257C4.36391 143.024 6.155 147.559 9.59482 151L8.69797 151.896L7.80112 152.793C3.81155 148.802 1.8878 143.643 0.940138 136.595C-0.00261092 129.583 -1.66893e-06 120.515 -1.66893e-06 108.593L1.26828 108.593ZM8.69797 151.896L9.59482 151C10.6943 152.099 11.8985 153.024 13.2396 153.803L12.6023 154.9L11.9649 155.996C10.4361 155.107 9.05717 154.049 7.80112 152.793L8.69797 151.896ZM12.6023 154.9L13.4675 153.972L19.3747 159.485L18.5095 160.412L17.6443 161.339L11.737 155.827L12.6023 154.9ZM18.5095 160.412L19.0768 159.278L22.7379 161.11L22.1706 162.244L21.6033 163.378L17.9422 161.546L18.5095 160.412ZM22.1706 162.244L20.9078 162.126L21.2877 158.04L22.5505 158.158L23.8133 158.276L23.4335 162.361L22.1706 162.244ZM22.5505 158.158L22.7565 156.906C29.7394 158.057 39.0412 158.065 51.9989 158.068L51.9987 159.336L51.9986 160.604C39.1319 160.601 29.5814 160.601 22.3446 159.409L22.5505 158.158ZM51.9987 159.336L51.9988 158.068L73.0183 158.072L73.0183 159.34L73.0182 160.608L51.9987 160.604L51.9987 159.336ZM73.0183 159.34L74.0871 158.657L84.9748 175.701L83.906 176.384L82.8372 177.066L71.9495 160.023L73.0183 159.34ZM83.906 176.384L85.0644 175.867L85.1005 175.948L83.9421 176.465L82.7837 176.981L82.7476 176.9L83.906 176.384ZM83.9421 176.465L85.0995 175.946C85.301 176.396 85.5792 176.822 85.9022 177.183L84.9577 178.029L84.0133 178.876C83.516 178.321 83.0939 177.673 82.7847 176.983L83.9421 176.465ZM84.9577 178.029L86.0266 177.347L87.2415 179.249L86.1726 179.932L85.1037 180.614L83.8888 178.712L84.9577 178.029ZM86.1726 179.932L87.2413 179.249C87.368 179.447 87.5673 179.549 87.7853 179.555L87.7527 180.823L87.72 182.09C86.7199 182.065 85.7155 181.572 85.1038 180.614L86.1726 179.932ZM87.7527 180.823L88.6472 179.924L94.1257 185.376L93.2312 186.275L92.3366 187.173L86.8581 181.721L87.7527 180.823ZM93.2312 186.275L94.1256 185.376C94.8964 186.142 95.4704 186.183 95.6443 186.144C95.7114 186.128 95.7569 186.1 95.8027 186.032C95.858 185.95 95.9463 185.752 95.9463 185.368L97.2146 185.368L98.4828 185.368C98.4828 186.919 97.7109 188.275 96.2076 188.617C94.8585 188.924 93.4409 188.272 92.3367 187.174L93.2312 186.275ZM97.2146 185.368L95.9463 185.368V171.247L97.2146 171.247L98.4828 171.247V185.368L97.2146 185.368ZM97.2146 171.247L95.9463 171.247C95.9463 170.826 95.8382 170.347 95.6243 169.859L96.7859 169.35L97.9474 168.841C98.273 169.584 98.4828 170.41 98.4828 171.247L97.2146 171.247ZM96.7859 169.35L95.7442 168.627L102.692 158.624L103.734 159.347L104.776 160.071L97.8275 170.074L96.7859 169.35ZM103.734 159.347L103.734 158.079L123.453 158.084L123.453 159.352L123.453 160.62L103.734 160.616L103.734 159.347ZM123.453 159.352L123.453 158.084C135.446 158.087 144.314 158.086 151.117 157.173C157.884 156.265 162.418 154.475 165.858 151.036L166.755 151.933L167.651 152.83C163.662 156.818 158.503 158.741 151.455 159.687C144.443 160.628 135.374 160.623 123.453 160.62L123.453 159.352ZM166.755 151.933L165.858 151.036C169.298 147.597 171.089 143.063 171.998 136.296C172.913 129.493 172.916 120.626 172.916 108.633L174.184 108.633L175.453 108.633C175.453 120.555 175.455 129.623 174.512 136.635C173.565 143.682 171.641 148.841 167.651 152.83L166.755 151.933ZM174.184 108.633L172.916 108.633V52.0272L174.184 52.0274L175.453 52.0276V108.633L174.184 108.633ZM174.184 52.0274L172.916 52.0272C172.916 38.3651 172.91 28.773 171.569 21.6847L172.815 21.4491L174.061 21.2134C175.458 28.5928 175.453 38.4736 175.453 52.0276L174.184 52.0274ZM172.815 21.4491L171.786 20.7077L174.892 16.3966L175.921 17.138L176.95 17.8794L173.844 22.1905L172.815 21.4491ZM175.921 17.138L175.088 18.0943L167.542 11.5219L168.375 10.5656L169.208 9.60928L176.754 16.1817L175.921 17.138ZM168.375 10.5656L167.37 11.3393C166.908 10.7397 166.405 10.1686 165.858 9.62119L166.755 8.72456L167.651 7.82792C168.273 8.44989 168.849 9.10284 169.38 9.7919L168.375 10.5656ZM166.755 8.72456L165.858 9.6212C162.418 6.18058 157.883 4.3884 151.117 3.47697C144.313 2.56062 135.446 2.55577 123.453 2.55301L123.453 1.28473L123.453 0.0164533C135.375 0.019195 144.443 0.0187033 151.455 0.963113C158.503 1.91244 163.662 3.83742 167.651 7.82792L166.755 8.72456ZM123.453 1.28473L123.453 2.55301L51.9986 2.53687L51.9987 1.26859L51.9989 0.000312662L123.453 0.0164533L123.453 1.28473Z" fill="var(--stroke-0, #333236)"/>
</g>
<g id="Union_2">
<path d="M62.0644 10.6796C38.1495 10.6762 26.1921 10.6747 18.7627 18.1031C11.3333 25.5314 11.333 37.4889 11.333 61.4038V118.008C11.333 141.923 11.3333 153.881 18.7627 161.311C26.1921 168.742 38.1496 168.744 62.0644 168.747L83.08 168.75L96.2275 189.328C96.971 190.491 98.6586 190.525 99.4463 189.391L113.781 168.754L133.518 168.757C157.432 168.761 169.39 168.762 176.819 161.334C184.249 153.905 184.249 141.948 184.249 118.033V61.4285C184.249 37.5136 184.249 25.5561 176.819 18.1257C169.39 10.6952 157.432 10.6932 133.518 10.6898L62.0644 10.6796Z" fill="url(#paint0_linear_251_2707)"/>
<path d="M18.7627 18.1031L17.8659 17.2061V17.2061L18.7627 18.1031ZM18.7627 161.311L17.8659 162.208V162.208L18.7627 161.311ZM83.08 168.75V167.482L83.7747 167.482L84.1488 168.067L83.08 168.75ZM96.2275 189.328L95.1588 190.011L95.1588 190.011L96.2275 189.328ZM99.4463 189.391L100.488 190.115L100.488 190.115L99.4463 189.391ZM113.781 168.754L112.74 168.031L113.118 167.486L113.781 167.486V168.754ZM176.819 161.334L177.716 162.231L177.716 162.231L176.819 161.334ZM176.819 18.1257L177.716 17.229L176.819 18.1257ZM62.0644 10.6796V11.9479C50.0711 11.9461 41.2037 11.9476 34.4005 12.8614C27.6337 13.7703 23.0993 15.5607 19.6595 19L18.7627 18.1031L17.8659 17.2061C21.8555 13.2171 27.0144 11.2941 34.0625 10.3474C41.074 9.40568 50.1428 9.4096 62.0644 9.4113V10.6796ZM18.7627 18.1031L19.6595 19C16.2197 22.4393 14.4286 26.9735 13.5188 33.7402C12.604 40.5433 12.6013 49.4107 12.6013 61.404L11.333 61.4038L10.0647 61.4036C10.0647 49.482 10.0621 40.4132 11.0048 33.4018C11.9525 26.3539 13.8762 21.1952 17.8659 17.2061L18.7627 18.1031ZM11.333 61.4038L12.6013 61.404V118.008L11.333 118.008L10.0647 118.008V61.4036L11.333 61.4038ZM11.333 118.008L12.6013 118.008C12.6013 130.002 12.604 138.869 13.5188 145.673C14.4286 152.439 16.2197 156.974 19.6595 160.414L18.7627 161.311L17.8659 162.208C13.8762 158.218 11.9525 153.058 11.0048 146.01C10.0621 138.998 10.0647 129.93 10.0647 118.008L11.333 118.008ZM18.7627 161.311L19.6595 160.414C23.0993 163.855 27.6337 165.646 34.4005 166.557C41.2037 167.473 50.0712 167.477 62.0644 167.479V168.747V170.015C50.1428 170.014 41.074 170.015 34.0625 169.071C27.0144 168.122 21.8555 166.198 17.8659 162.208L18.7627 161.311ZM62.0644 168.747V167.479L83.08 167.482V168.75V170.018L62.0644 170.015V168.747ZM83.08 168.75L84.1488 168.067L97.2962 188.645L96.2275 189.328L95.1588 190.011L82.0113 169.433L83.08 168.75ZM96.2275 189.328L97.2962 188.645C97.5526 189.046 98.1338 189.057 98.4047 188.667L99.4463 189.391L100.488 190.115C99.1835 191.992 96.3893 191.936 95.1588 190.011L96.2275 189.328ZM99.4463 189.391L98.4046 188.667L112.74 168.031L113.781 168.754L114.823 169.478L100.488 190.115L99.4463 189.391ZM113.781 168.754V167.486L133.518 167.489V168.757V170.025L113.781 170.023V168.754ZM133.518 168.757V167.489C145.511 167.491 154.378 167.489 161.181 166.575C167.948 165.666 172.483 163.876 175.922 160.437L176.819 161.334L177.716 162.231C173.726 166.22 168.568 168.143 161.519 169.089C154.508 170.031 145.439 170.027 133.518 170.025V168.757ZM176.819 161.334L175.922 160.437C179.362 156.997 181.153 152.463 182.063 145.697C182.978 138.893 182.981 130.026 182.981 118.033L184.249 118.033L185.517 118.033C185.517 129.955 185.52 139.024 184.577 146.035C183.629 153.083 181.706 158.242 177.716 162.231L176.819 161.334ZM184.249 118.033L182.981 118.033V61.4283L184.249 61.4285L185.517 61.4287V118.033L184.249 118.033ZM184.249 61.4285L182.981 61.4283C182.981 49.435 182.978 40.5676 182.063 33.7642C181.153 26.9973 179.362 22.4626 175.922 19.0223L176.819 18.1257L177.716 17.229C181.706 21.2192 183.629 26.3784 184.577 33.4266C185.52 40.4383 185.517 49.5071 185.517 61.4287L184.249 61.4285ZM176.819 18.1257L175.922 19.0223C172.483 15.5821 167.948 13.7903 161.181 12.8795C154.378 11.9638 145.511 11.9598 133.518 11.9581V10.6898V9.4215C145.439 9.42321 154.508 9.42188 161.519 10.3656C168.568 11.3143 173.726 13.2388 177.716 17.229L176.819 18.1257ZM133.518 10.6898V11.9581L62.0644 11.9479V10.6796V9.4113L133.518 9.4215V10.6898Z" fill="var(--stroke-0, #333236)"/>
</g>
<path id="Heart 2" d="M107.98 125.212C118.008 117.775 132.479 106.132 138.509 96.8214C143.022 89.8655 144.49 81.2484 142.527 73.2368C138.334 54.9871 115.113 47.533 100.65 59.7654C99.8361 60.4489 99.0862 61.2065 98.3165 61.9844C98.0025 62.3019 97.6849 62.6227 97.3582 62.9433C97.0316 62.6228 96.714 62.302 96.3999 61.9846C95.6302 61.207 94.8804 60.4496 94.0669 59.7664C79.603 47.5383 56.3827 54.9992 52.1894 73.2502C50.2268 81.2624 51.6948 89.8791 56.2072 96.8337C62.2376 106.143 76.7087 117.781 86.7366 125.215C89.5307 127.287 97.3582 132.684 97.3582 132.684C97.3582 132.684 105.186 127.285 107.98 125.212Z" fill="var(--fill-0, #F8ECFF)"/>
</g>
<defs>
<linearGradient id="paint0_linear_251_2707" x1="97.791" y1="-13.7611" x2="97.7618" y2="190.221" gradientUnits="userSpaceOnUse">
<stop stop-color="#7405CA"/>
<stop offset="1" stop-color="#C188F9"/>
</linearGradient>
</defs>
</svg>
