<svg preserveAspectRatio="xMidYMid meet" width="100%" height="100%" overflow="visible" style="display: block;" viewBox="0 0 349.909 445.637" fill="none" xmlns="http://www.w3.org/2000/svg">
<path id="Vector" d="M1.12207 416.232L0.537109 206.953V206.952L0.540039 206.353C0.648097 200.131 2.86216 193.254 6.41113 187.104C9.95994 180.955 14.8161 175.581 20.1582 172.336L20.6768 172.029L313.197 3.27148L313.2 3.27051C318.746 0.034695 323.703 -0.185848 327.188 1.8584L327.188 1.85938L345.596 12.5586C342.606 12.3031 339.202 13.1212 335.647 15.0879L335.109 15.3936L42.5986 184.157C36.7683 187.51 33.1761 193.245 31.0498 199.72C28.9237 206.194 28.2453 213.456 28.2754 219.953V219.954L28.8613 432.468C28.8615 436.827 29.8868 440.377 31.7178 442.948L6.84863 428.937C3.36233 426.886 1.12212 422.58 1.12207 416.234V416.232Z" fill="url(#paint0_linear_251_2721)" stroke="var(--stroke-0, #333236)" stroke-width="1.07274"/>
<defs>
<linearGradient id="paint0_linear_251_2721" x1="174.954" y1="3.08551e-08" x2="174.954" y2="445.637" gradientUnits="userSpaceOnUse">
<stop stop-color="#4DA6FE"/>
<stop offset="1" stop-color="#ADAEB8"/>
</linearGradient>
</defs>
</svg>
