<svg preserveAspectRatio="xMidYMid meet" width="100%" height="100%" overflow="visible" style="display: block;" viewBox="0 0 350.899 200.32" fill="none" xmlns="http://www.w3.org/2000/svg">
<g id="&#236;&#157;&#184;&#235;&#172;&#188;">
<g id="Union">
<path fill-rule="evenodd" clip-rule="evenodd" d="M178.665 103.225C177.417 100.263 175.803 96.4323 174.289 93.7648C172.556 91.2268 164.752 94.7075 166.674 97.7694C166.828 98.2338 167.192 99.1081 167.692 100.232L165.729 101.113C165.729 101.113 166.163 105.678 169.304 110.677C172.246 115.362 174.904 117.089 177.543 115.947C178.351 115.743 179.277 115.208 180.321 113.965C182.054 111.899 180.646 107.987 179.346 104.834C179.135 104.34 178.907 103.799 178.665 103.225Z" fill="#333236"/>
<path d="M174.289 93.7648L174.599 93.5891C174.594 93.5805 174.588 93.5722 174.583 93.5641L174.289 93.7648ZM178.665 103.225L178.337 103.363V103.363L178.665 103.225ZM166.674 97.7694L167.012 97.6572C167.003 97.6302 166.991 97.6043 166.976 97.5801L166.674 97.7694ZM167.692 100.232L167.837 100.557C168.016 100.477 168.097 100.267 168.017 100.088L167.692 100.232ZM165.729 101.113L165.584 100.788C165.444 100.85 165.361 100.994 165.375 101.146L165.729 101.113ZM169.304 110.677L169.002 110.867V110.867L169.304 110.677ZM177.543 115.947L177.456 115.602C177.438 115.606 177.42 115.613 177.402 115.62L177.543 115.947ZM180.321 113.965L180.594 114.193V114.193L180.321 113.965ZM179.346 104.834L179.675 104.699L179.674 104.695L179.346 104.834ZM174.289 93.7648L173.979 93.9406C175.481 96.5859 177.086 100.395 178.337 103.363L178.665 103.225L178.993 103.087C177.748 100.131 176.126 96.2787 174.599 93.5891L174.289 93.7648ZM166.674 97.7694L166.976 97.5801C166.589 96.9649 166.672 96.3287 167.104 95.6955C167.545 95.0472 168.336 94.4392 169.266 93.9875C170.194 93.5372 171.221 93.2614 172.104 93.2452C172.999 93.2289 173.661 93.4761 173.995 93.9656L174.289 93.7648L174.583 93.5641C174.051 92.7846 173.087 92.5151 172.091 92.5333C171.084 92.5517 169.955 92.8615 168.955 93.3469C167.959 93.8308 167.05 94.5085 166.515 95.2947C165.969 96.0959 165.798 97.043 166.373 97.9587L166.674 97.7694ZM167.692 100.232L168.017 100.088C167.517 98.9617 167.16 98.1027 167.012 97.6572L166.674 97.7694L166.336 97.8817C166.497 98.3649 166.867 99.2544 167.366 100.377L167.692 100.232ZM167.692 100.232L167.546 99.9073L165.584 100.788L165.729 101.113L165.875 101.437L167.837 100.557L167.692 100.232ZM165.729 101.113C165.375 101.146 165.375 101.146 165.375 101.146C165.375 101.146 165.375 101.147 165.375 101.147C165.375 101.147 165.375 101.147 165.375 101.148C165.375 101.149 165.375 101.15 165.375 101.151C165.376 101.154 165.376 101.158 165.377 101.163C165.378 101.173 165.379 101.187 165.381 101.205C165.385 101.242 165.392 101.296 165.401 101.366C165.42 101.505 165.45 101.708 165.496 101.966C165.587 102.483 165.742 103.221 165.996 104.117C166.504 105.908 167.41 108.332 169.002 110.867L169.304 110.677L169.605 110.488C168.056 108.023 167.175 105.664 166.681 103.923C166.434 103.053 166.285 102.337 166.197 101.842C166.153 101.594 166.124 101.401 166.107 101.271C166.098 101.206 166.092 101.157 166.089 101.125C166.087 101.109 166.086 101.097 166.085 101.089C166.084 101.085 166.084 101.082 166.084 101.081C166.084 101.08 166.084 101.079 166.084 101.079C166.084 101.079 166.084 101.079 166.084 101.079C166.084 101.079 166.084 101.079 166.084 101.079C166.084 101.079 166.084 101.079 165.729 101.113ZM169.304 110.677L169.002 110.867C170.484 113.225 171.917 114.88 173.345 115.797C174.793 116.726 176.242 116.898 177.685 116.274L177.543 115.947L177.402 115.62C176.206 116.138 175.006 116.017 173.73 115.197C172.433 114.365 171.066 112.814 169.605 110.488L169.304 110.677ZM180.321 113.965L180.048 113.736C179.04 114.937 178.175 115.42 177.456 115.602L177.543 115.947L177.631 116.292C178.528 116.065 179.514 115.48 180.594 114.193L180.321 113.965ZM179.346 104.834L179.017 104.97C179.667 106.546 180.33 108.281 180.62 109.871C180.913 111.473 180.809 112.829 180.048 113.736L180.321 113.965L180.594 114.193C181.566 113.035 181.624 111.402 181.321 109.743C181.016 108.072 180.325 106.275 179.675 104.699L179.346 104.834ZM178.665 103.225L178.337 103.363C178.579 103.937 178.807 104.479 179.019 104.974L179.346 104.834L179.674 104.695C179.463 104.202 179.235 103.661 178.993 103.087L178.665 103.225Z" fill="var(--stroke-0, #333236)"/>
</g>
<g id="Group 2147223609">
<path id="Vector" opacity="0.2" d="M65.8003 199.173C78.8659 205.384 121.226 184.818 146.257 175.019C164.823 167.704 205.67 150.451 198.519 144.654C191.642 139.133 161.935 151.141 135.942 160.527C108.985 170.188 54.9353 193.928 65.8003 199.173Z" fill="url(#paint0_linear_251_2651)"/>
<path id="Vector_2" d="M93.778 41.0301C93.778 41.0301 104.267 25.5228 107.651 26.3152C111.035 27.1075 111.035 28.579 110.922 31.9748C110.809 35.3705 109.343 51.7834 109.343 51.7834L93.778 41.0301Z" fill="var(--fill-0, #E8AFAC)" stroke="var(--stroke-0, #333236)" stroke-width="0.712091" stroke-linejoin="round"/>
<path id="Vector 2888" d="M84.679 39.419C71.0385 22.8075 85.7814 11.3449 94.3677 12.4012C99.1026 17.0341 96.6364 24.2802 94.8115 27.3242L84.679 39.419Z" fill="var(--fill-0, #333236)" stroke="var(--stroke-0, #333236)" stroke-width="0.712091" stroke-linejoin="round"/>
<path id="Vector 2892" d="M101.297 44.3692C109.856 42.612 108.501 30.033 106.754 23.9632L101.297 29.9858V44.3692Z" fill="var(--fill-0, #333236)"/>
<g id="Union_2">
<path fill-rule="evenodd" clip-rule="evenodd" d="M87.7105 186.49C87.5966 187.396 86.9023 188.525 84.6776 188.42C81.6269 188.303 74.2409 185.814 69.7513 181.316C67.112 178.672 65.2003 176.54 64.6136 173.744C64.073 171.169 64.4291 168.988 65.9571 167.751C66.421 167.137 68.184 165.229 75.9447 168.907C77.581 169.682 77.064 170.15 76.7014 170.477C76.4996 170.66 76.3456 170.799 76.6365 170.924C77.4505 171.274 79.8211 171.383 79.8211 171.383L89.5887 180.835L87.7105 186.49Z" fill="#333236"/>
<path d="M84.6776 188.42L84.6944 188.064L84.6912 188.064L84.6776 188.42ZM87.7105 186.49L87.3726 186.378C87.3652 186.4 87.3601 186.422 87.3572 186.445L87.7105 186.49ZM69.7513 181.316L70.0033 181.064V181.064L69.7513 181.316ZM64.6136 173.744L64.2652 173.817H64.2652L64.6136 173.744ZM65.9571 167.751L66.1812 168.027C66.2036 168.009 66.2237 167.988 66.241 167.965L65.9571 167.751ZM75.9447 168.907L75.7922 169.229V169.229L75.9447 168.907ZM76.7014 170.477L76.9401 170.741L76.9401 170.741L76.7014 170.477ZM76.6365 170.924L76.7772 170.597V170.597L76.6365 170.924ZM79.8211 171.383L80.0687 171.127C80.0063 171.067 79.9241 171.031 79.8374 171.027L79.8211 171.383ZM89.5887 180.835L89.9266 180.947C89.9697 180.817 89.9346 180.674 89.8363 180.579L89.5887 180.835ZM84.6776 188.42L84.6608 188.776C85.8343 188.831 86.6592 188.563 87.2115 188.109C87.763 187.657 87.9982 187.056 88.0637 186.534L87.7105 186.49L87.3572 186.445C87.3089 186.83 87.14 187.247 86.7597 187.559C86.3802 187.87 85.7456 188.114 84.6944 188.064L84.6776 188.42ZM69.7513 181.316L69.4993 181.567C71.7862 183.858 74.7982 185.627 77.6134 186.838C80.4229 188.046 83.0776 188.715 84.664 188.776L84.6776 188.42L84.6912 188.064C83.2269 188.008 80.6633 187.374 77.8947 186.184C75.1318 184.996 72.2061 183.271 70.0033 181.064L69.7513 181.316ZM64.6136 173.744L64.2652 173.817C64.8765 176.73 66.8678 178.931 69.4993 181.567L69.7513 181.316L70.0033 181.064C67.3561 178.412 65.5241 176.349 64.9621 173.671L64.6136 173.744ZM65.9571 167.751L65.7329 167.474C64.0489 168.838 63.7145 171.193 64.2652 173.817L64.6136 173.744L64.9621 173.671C64.4316 171.144 64.8092 169.139 66.1812 168.027L65.9571 167.751ZM65.9571 167.751L66.241 167.965C66.3411 167.833 66.5055 167.637 66.803 167.462C67.1014 167.286 67.5524 167.118 68.2373 167.075C69.618 166.986 71.934 167.4 75.7922 169.229L75.9447 168.907L76.0972 168.585C72.1947 166.735 69.7488 166.264 68.1918 166.364C67.4079 166.414 66.8462 166.609 66.441 166.849C66.0349 167.088 65.8049 167.361 65.6731 167.536L65.9571 167.751ZM75.9447 168.907L75.7922 169.229C76.1864 169.415 76.4265 169.573 76.5664 169.698C76.7062 169.824 76.7179 169.892 76.719 169.902C76.7198 169.908 76.7223 169.932 76.6779 169.994C76.6298 170.06 76.5588 170.126 76.4626 170.213L76.7014 170.477L76.9401 170.741C77.0252 170.665 77.1549 170.549 77.2546 170.412C77.3579 170.269 77.4555 170.067 77.4262 169.818C77.3974 169.573 77.2542 169.359 77.0421 169.168C76.83 168.978 76.5212 168.786 76.0972 168.585L75.9447 168.907ZM76.7014 170.477L76.4626 170.213C76.4152 170.256 76.3561 170.309 76.3059 170.362C76.2598 170.411 76.19 170.492 76.1506 170.598C76.1023 170.727 76.1037 170.887 76.2034 171.031C76.2835 171.146 76.4019 171.211 76.4959 171.251L76.6365 170.924L76.7772 170.597C76.756 170.588 76.749 170.583 76.7506 170.584C76.752 170.585 76.7691 170.597 76.7877 170.624C76.8083 170.653 76.8259 170.694 76.8305 170.743C76.8348 170.789 76.8256 170.826 76.8177 170.847C76.8104 170.866 76.8033 170.875 76.8052 170.873C76.8067 170.871 76.8122 170.864 76.8244 170.851C76.8509 170.822 76.8866 170.79 76.9401 170.741L76.7014 170.477ZM76.6365 170.924L76.4959 171.251C76.7392 171.356 77.074 171.434 77.4156 171.494C77.7641 171.556 78.1461 171.603 78.4979 171.639C78.8504 171.675 79.1765 171.7 79.4143 171.716C79.5333 171.723 79.6305 171.729 79.6981 171.733C79.7319 171.735 79.7583 171.736 79.7764 171.737C79.7855 171.738 79.7925 171.738 79.7972 171.738C79.7996 171.738 79.8014 171.738 79.8027 171.738C79.8033 171.738 79.8038 171.738 79.8042 171.738C79.8044 171.738 79.8045 171.738 79.8046 171.738C79.8047 171.738 79.8047 171.738 79.8047 171.738C79.8048 171.738 79.8048 171.738 79.8211 171.383C79.8374 171.027 79.8374 171.027 79.8374 171.027C79.8374 171.027 79.8374 171.027 79.8374 171.027C79.8373 171.027 79.8373 171.027 79.8372 171.027C79.8369 171.027 79.8366 171.027 79.8361 171.027C79.835 171.027 79.8335 171.027 79.8313 171.027C79.8271 171.027 79.8206 171.026 79.8121 171.026C79.7951 171.025 79.7698 171.024 79.7372 171.022C79.672 171.018 79.5776 171.013 79.4616 171.005C79.2295 170.99 78.9121 170.965 78.5702 170.93C78.2276 170.895 77.8644 170.85 77.5394 170.793C77.2076 170.734 76.9408 170.667 76.7772 170.597L76.6365 170.924ZM79.8211 171.383L79.5735 171.639L89.3411 181.091L89.5887 180.835L89.8363 180.579L80.0687 171.127L79.8211 171.383ZM89.5887 180.835L89.2508 180.723L87.3726 186.378L87.7105 186.49L88.0484 186.602L89.9266 180.947L89.5887 180.835Z" fill="var(--stroke-0, #333236)"/>
</g>
<path id="Vector 2889" d="M102.145 37.798C108.76 34.7871 107.621 26.0547 106.224 22.0648L98.8484 26.5688L102.145 37.798Z" fill="var(--fill-0, #333236)"/>
<g id="Union_3">
<path fill-rule="evenodd" clip-rule="evenodd" d="M114.624 85.8992L102.34 82.3359C102.34 82.3359 105.974 60.7658 94.3707 99.2833C91.7718 107.108 90.537 113.152 89.3799 118.815C88.7045 122.121 88.0557 125.297 87.1775 128.622C86.5288 131.078 85.6016 134.045 84.6077 137.226C82.8052 142.995 80.7834 149.466 79.806 154.861C77.1782 162.027 74.9217 168.885 74.9217 168.885C74.9217 168.885 77.4881 170.958 79.806 172.21C82.3742 174.235 83.2146 175.582 84.5958 177.795C84.8456 178.195 85.1131 178.624 85.4116 179.09C87.3612 182.242 88.7589 182.92 89.3005 182.92C89.842 182.92 95.92 165.878 98.9526 153.27C99.6042 150.607 100.158 148.362 100.629 146.449C102.352 139.459 102.983 136.9 103.323 134.596C103.734 133.332 104.08 132.176 104.412 131.069C105.285 128.156 106.055 125.583 107.624 122.29C109.567 119.247 113.03 111.522 115.11 106.883C115.779 105.39 116.305 104.217 116.591 103.622C119.334 107.1 122.757 110.935 125.408 113.531C130.174 118.096 136.564 123.53 138.297 124.726C140.788 126.465 143.929 126.03 148.261 122.444C152.16 119.183 162.774 110.379 163.532 110.596C163.994 110.728 164.535 111.142 165.157 111.618C165.557 111.923 165.99 112.255 166.457 112.552C169.164 114.509 173.93 110.27 174.688 106.9C175.446 103.531 174.038 93.7487 169.381 93.3139C165.945 92.9931 163.511 94.7433 160.382 96.9929C159.271 97.7922 158.072 98.6545 156.709 99.5094C151.835 102.553 144.046 105.265 144.046 105.265C144.046 105.265 138.513 93.7487 136.347 88.5314C136.046 87.8412 135.761 87.1243 135.47 86.3964C133.567 81.6224 131.475 76.3739 123.675 75.0535C119.138 74.2854 116.311 80.0255 114.624 85.8992Z" fill="url(#paint1_linear_251_2651)"/>
<path d="M102.34 82.3359L101.989 82.2767C101.959 82.455 102.068 82.6274 102.241 82.6778L102.34 82.3359ZM114.624 85.8992L114.525 86.2411C114.616 86.2675 114.713 86.2566 114.796 86.2109C114.879 86.1652 114.94 86.0884 114.966 85.9975L114.624 85.8992ZM94.3707 99.2833L94.7087 99.3956L94.7116 99.386L94.3707 99.2833ZM89.3799 118.815L89.7287 118.887V118.887L89.3799 118.815ZM87.1775 128.622L87.5217 128.712V128.712L87.1775 128.622ZM84.6077 137.226L84.9476 137.332V137.332L84.6077 137.226ZM79.806 154.861L80.1403 154.983C80.1474 154.964 80.1527 154.944 80.1564 154.924L79.806 154.861ZM74.9217 168.885L74.5835 168.774C74.5372 168.915 74.5828 169.069 74.698 169.162L74.9217 168.885ZM79.806 172.21L80.0265 171.93C80.0104 171.918 79.9932 171.906 79.9752 171.897L79.806 172.21ZM84.5958 177.795L84.8979 177.607V177.607L84.5958 177.795ZM85.4116 179.09L85.7145 178.903L85.7114 178.898L85.4116 179.09ZM98.9526 153.27L98.6067 153.185L98.6064 153.187L98.9526 153.27ZM100.629 146.449L100.975 146.534V146.534L100.629 146.449ZM103.323 134.596L102.985 134.486C102.978 134.505 102.974 134.524 102.971 134.544L103.323 134.596ZM104.412 131.069L104.071 130.967V130.967L104.412 131.069ZM107.624 122.29L107.324 122.098C107.316 122.111 107.309 122.124 107.302 122.137L107.624 122.29ZM115.11 106.883L115.435 107.028V107.028L115.11 106.883ZM116.591 103.622L116.871 103.401C116.795 103.305 116.674 103.254 116.552 103.268C116.43 103.281 116.324 103.357 116.27 103.467L116.591 103.622ZM125.408 113.531L125.159 113.785L125.162 113.788L125.408 113.531ZM138.297 124.726L138.5 124.434L138.499 124.433L138.297 124.726ZM148.261 122.444L148.488 122.718L148.489 122.717L148.261 122.444ZM163.532 110.596L163.434 110.938V110.938L163.532 110.596ZM165.157 111.618L164.941 111.9V111.9L165.157 111.618ZM166.457 112.552L166.665 112.264C166.66 112.26 166.654 112.256 166.648 112.252L166.457 112.552ZM174.688 106.9L175.035 106.979V106.979L174.688 106.9ZM169.381 93.3139L169.348 93.6684V93.6684L169.381 93.3139ZM160.382 96.9929L160.59 97.2819V97.2819L160.382 96.9929ZM156.709 99.5094L156.897 99.8114L156.898 99.811L156.709 99.5094ZM144.046 105.265L143.725 105.419C143.803 105.583 143.992 105.661 144.163 105.601L144.046 105.265ZM136.347 88.5314L136.676 88.3949L136.674 88.3891L136.347 88.5314ZM135.47 86.3964L135.801 86.2646V86.2646L135.47 86.3964ZM123.675 75.0535L123.735 74.7025V74.7025L123.675 75.0535ZM102.34 82.3359L102.241 82.6778L114.525 86.2411L114.624 85.8992L114.723 85.5573L102.44 81.9939L102.34 82.3359ZM94.3707 99.2833L94.7116 99.386C97.612 89.7581 99.5576 83.8942 100.844 80.5123C101.489 78.8176 101.962 77.7625 102.3 77.1715C102.474 76.8686 102.593 76.7229 102.659 76.6679C102.692 76.6406 102.676 76.6658 102.619 76.6708C102.539 76.6777 102.476 76.6396 102.447 76.6091C102.43 76.5906 102.438 76.5892 102.453 76.6377C102.468 76.6814 102.482 76.7461 102.494 76.835C102.518 77.0127 102.527 77.2509 102.522 77.5367C102.514 78.1063 102.452 78.8212 102.373 79.5277C102.294 80.2321 102.198 80.9197 102.122 81.4318C102.084 81.6876 102.05 81.8992 102.027 82.0467C102.015 82.1205 102.006 82.1782 101.999 82.2173C101.996 82.2369 101.993 82.2519 101.992 82.2619C101.991 82.2669 101.99 82.2706 101.99 82.2731C101.99 82.2744 101.99 82.2753 101.989 82.2759C101.989 82.2762 101.989 82.2764 101.989 82.2765C101.989 82.2767 101.989 82.2767 102.34 82.3359C102.692 82.395 102.692 82.3949 102.692 82.3947C102.692 82.3945 102.692 82.3942 102.692 82.3939C102.692 82.3931 102.692 82.3921 102.692 82.3908C102.693 82.3881 102.693 82.3841 102.694 82.3789C102.696 82.3684 102.699 82.353 102.702 82.333C102.708 82.2928 102.718 82.2341 102.73 82.1593C102.754 82.0096 102.787 81.7955 102.826 81.5367C102.903 81.0196 103 80.323 103.081 79.6071C103.161 78.8931 103.225 78.1516 103.234 77.5476C103.239 77.2466 103.23 76.9687 103.2 76.7409C103.184 76.627 103.163 76.5166 103.131 76.4179C103.1 76.3239 103.052 76.2126 102.967 76.1219C102.87 76.0192 102.728 75.9464 102.557 75.9614C102.408 75.9744 102.288 76.0501 102.203 76.121C102.034 76.2623 101.863 76.5033 101.683 76.8173C101.314 77.46 100.825 78.5594 100.178 80.2591C98.8826 83.6659 96.9311 89.5498 94.0298 99.1806L94.3707 99.2833ZM89.3799 118.815L89.7287 118.887C90.8855 113.224 92.1169 107.198 94.7086 99.3956L94.3707 99.2833L94.0328 99.1711C91.4267 107.017 90.1885 113.079 89.031 118.744L89.3799 118.815ZM87.1775 128.622L87.5217 128.712C88.4029 125.376 89.0536 122.191 89.7287 118.887L89.3799 118.815L89.031 118.744C88.3554 122.051 87.7084 125.217 86.8333 128.531L87.1775 128.622ZM84.6077 137.226L84.9476 137.332C85.9406 134.154 86.8705 131.178 87.5217 128.712L87.1775 128.622L86.8333 128.531C86.187 130.978 85.2625 133.937 84.2679 137.12L84.6077 137.226ZM79.806 154.861L80.1564 154.924C81.129 149.555 83.1431 143.108 84.9476 137.332L84.6077 137.226L84.2679 137.12C82.4673 142.883 80.4378 149.376 79.4557 154.797L79.806 154.861ZM74.9217 168.885C75.2599 168.997 75.2599 168.997 75.2599 168.997C75.26 168.997 75.26 168.997 75.26 168.996C75.2601 168.996 75.2602 168.996 75.2603 168.996C75.2606 168.995 75.261 168.993 75.2615 168.992C75.2626 168.989 75.2642 168.984 75.2664 168.977C75.2707 168.964 75.2772 168.944 75.2858 168.918C75.3029 168.867 75.3284 168.789 75.3618 168.689C75.4285 168.488 75.5268 168.192 75.653 167.815C75.9054 167.06 76.2693 165.98 76.7153 164.676C77.6074 162.067 78.8276 158.563 80.1403 154.983L79.806 154.861L79.4718 154.738C78.1567 158.324 76.9347 161.833 76.0416 164.445C75.595 165.751 75.2305 166.833 74.9777 167.589C74.8513 167.967 74.7528 168.263 74.6859 168.465C74.6524 168.566 74.6268 168.643 74.6096 168.695C74.601 168.721 74.5945 168.741 74.5901 168.754C74.5879 168.761 74.5863 168.766 74.5852 168.769C74.5846 168.771 74.5842 168.772 74.5839 168.773C74.5838 168.773 74.5837 168.774 74.5836 168.774C74.5836 168.774 74.5835 168.774 74.5835 168.774C74.5835 168.774 74.5835 168.774 74.9217 168.885ZM79.806 172.21L79.9752 171.897C78.8365 171.282 77.63 170.461 76.7035 169.79C76.2414 169.455 75.8511 169.159 75.5766 168.947C75.4394 168.841 75.3312 168.756 75.2575 168.698C75.2206 168.669 75.1924 168.646 75.1735 168.631C75.164 168.623 75.1569 168.618 75.1522 168.614C75.1499 168.612 75.1481 168.611 75.147 168.61C75.1464 168.609 75.146 168.609 75.1457 168.609C75.1456 168.609 75.1455 168.609 75.1455 168.609C75.1454 168.609 75.1454 168.608 75.1454 168.608C75.1454 168.608 75.1454 168.608 74.9217 168.885C74.698 169.162 74.698 169.162 74.6981 169.163C74.6981 169.163 74.6981 169.163 74.6982 169.163C74.6983 169.163 74.6984 169.163 74.6986 169.163C74.699 169.163 74.6995 169.164 74.7002 169.164C74.7015 169.165 74.7035 169.167 74.7061 169.169C74.7112 169.173 74.7188 169.179 74.7287 169.187C74.7485 169.203 74.7777 169.226 74.8155 169.256C74.8912 169.316 75.0016 169.403 75.1412 169.511C75.4204 169.726 75.8166 170.027 76.2858 170.367C77.2219 171.045 78.4577 171.886 79.6369 172.523L79.806 172.21ZM84.5958 177.795L84.8979 177.607C83.509 175.381 82.6427 173.993 80.0265 171.93L79.806 172.21L79.5856 172.489C82.1057 174.477 82.9203 175.782 84.2938 177.983L84.5958 177.795ZM85.4116 179.09L85.7114 178.898C85.4142 178.434 85.1478 178.007 84.8979 177.607L84.5958 177.795L84.2938 177.983C84.5435 178.384 84.812 178.814 85.1118 179.282L85.4116 179.09ZM89.3005 182.92V182.564C89.1543 182.564 88.7503 182.458 88.1151 181.916C87.4907 181.384 86.6765 180.458 85.7144 178.903L85.4116 179.09L85.1088 179.277C86.0963 180.874 86.9557 181.863 87.653 182.458C88.3394 183.043 88.9051 183.276 89.3005 183.276V182.92ZM98.9526 153.27L98.6064 153.187C97.0935 159.477 94.8194 166.878 92.8549 172.709C91.8729 175.625 90.9694 178.144 90.2785 179.932C89.9327 180.827 89.642 181.534 89.4224 182.015C89.312 182.257 89.2234 182.433 89.1577 182.545C89.1239 182.603 89.1031 182.631 89.0948 182.641C89.0903 182.647 89.0981 182.636 89.1181 182.621C89.1317 182.611 89.1972 182.564 89.3005 182.564V182.92V183.276C89.4206 183.276 89.5057 183.22 89.5417 183.194C89.5839 183.162 89.6166 183.127 89.6395 183.1C89.6862 183.045 89.7307 182.976 89.7719 182.906C89.8562 182.762 89.9567 182.56 90.0702 182.311C90.2985 181.811 90.5952 181.088 90.9427 180.188C91.6385 178.387 92.5456 175.858 93.5298 172.937C95.4979 167.095 97.779 159.672 99.2987 153.353L98.9526 153.27ZM100.629 146.449L100.284 146.364C99.8119 148.277 99.2585 150.522 98.6067 153.185L98.9526 153.27L99.2984 153.355C99.95 150.692 100.503 148.448 100.975 146.534L100.629 146.449ZM103.323 134.596L102.971 134.544C102.634 136.827 102.009 139.365 100.284 146.364L100.629 146.449L100.975 146.534C102.696 139.554 103.332 136.973 103.675 134.648L103.323 134.596ZM104.412 131.069L104.071 130.967C103.739 132.074 103.394 133.227 102.985 134.486L103.323 134.596L103.662 134.706C104.074 133.438 104.421 132.278 104.753 131.171L104.412 131.069ZM107.624 122.29L107.302 122.137C105.721 125.457 104.944 128.053 104.071 130.967L104.412 131.069L104.753 131.171C105.625 128.259 106.39 125.71 107.945 122.443L107.624 122.29ZM115.11 106.883L114.785 106.737C112.699 111.392 109.249 119.084 107.324 122.098L107.624 122.29L107.924 122.482C109.886 119.411 113.362 111.653 115.435 107.028L115.11 106.883ZM116.591 103.622L116.27 103.467C115.982 104.068 115.453 105.247 114.785 106.737L115.11 106.883L115.435 107.028C116.105 105.533 116.629 104.366 116.912 103.776L116.591 103.622ZM116.591 103.622L116.312 103.842C119.063 107.331 122.496 111.178 125.159 113.785L125.408 113.531L125.657 113.276C123.019 110.693 119.606 106.87 116.871 103.401L116.591 103.622ZM125.408 113.531L125.162 113.788C129.93 118.355 136.337 123.807 138.094 125.019L138.297 124.726L138.499 124.433C136.791 123.254 130.417 117.836 125.654 113.274L125.408 113.531ZM138.297 124.726L138.093 125.018C139.418 125.943 140.926 126.29 142.661 125.931C144.379 125.574 146.3 124.529 148.488 122.718L148.261 122.444L148.034 122.169C145.89 123.945 144.074 124.91 142.516 125.233C140.975 125.553 139.667 125.248 138.5 124.434L138.297 124.726ZM148.261 122.444L148.489 122.717C150.438 121.087 154.064 118.073 157.297 115.494C158.913 114.204 160.428 113.026 161.584 112.185C162.163 111.764 162.646 111.432 163.004 111.213C163.184 111.103 163.324 111.027 163.423 110.983C163.473 110.961 163.503 110.951 163.517 110.947C163.542 110.942 163.501 110.957 163.434 110.938L163.532 110.596L163.63 110.254C163.516 110.221 163.409 110.241 163.348 110.256C163.277 110.273 163.205 110.301 163.134 110.332C162.993 110.395 162.823 110.489 162.633 110.605C162.25 110.839 161.749 111.184 161.165 111.609C159.996 112.46 158.471 113.646 156.852 114.937C153.613 117.521 149.983 120.54 148.033 122.17L148.261 122.444ZM163.532 110.596L163.434 110.938C163.612 110.989 163.827 111.102 164.088 111.275C164.346 111.446 164.627 111.661 164.941 111.9L165.157 111.618L165.373 111.335C165.065 111.099 164.764 110.869 164.481 110.681C164.201 110.496 163.914 110.335 163.63 110.254L163.532 110.596ZM165.157 111.618L164.941 111.9C165.339 112.205 165.784 112.545 166.265 112.853L166.457 112.552L166.648 112.252C166.196 111.964 165.775 111.642 165.373 111.335L165.157 111.618ZM166.457 112.552L166.248 112.841C167.024 113.402 167.938 113.507 168.851 113.317C169.758 113.128 170.679 112.646 171.519 112.007C173.191 110.735 174.633 108.766 175.035 106.979L174.688 106.9L174.341 106.822C173.985 108.404 172.665 110.24 171.088 111.44C170.303 112.038 169.478 112.459 168.706 112.62C167.94 112.78 167.243 112.681 166.665 112.264L166.457 112.552ZM174.688 106.9L175.035 106.979C175.432 105.218 175.257 101.866 174.407 98.9083C173.981 97.4245 173.377 96.0106 172.566 94.9324C171.754 93.8524 170.711 93.0805 169.414 92.9594L169.381 93.3139L169.348 93.6684C170.379 93.7647 171.259 94.3785 171.997 95.3603C172.736 96.3439 173.31 97.6677 173.723 99.105C174.552 101.989 174.702 105.214 174.341 106.822L174.688 106.9ZM169.381 93.3139L169.414 92.9594C165.824 92.6242 163.282 94.4691 160.175 96.7038L160.382 96.9929L160.59 97.2819C163.739 95.0176 166.065 93.362 169.348 93.6684L169.381 93.3139ZM160.382 96.9929L160.175 96.7038C159.062 97.5037 157.872 98.3597 156.52 99.2077L156.709 99.5094L156.898 99.811C158.272 98.9493 159.48 98.0807 160.59 97.2819L160.382 96.9929ZM156.709 99.5094L156.52 99.2074C154.109 100.713 150.965 102.143 148.413 103.2C147.14 103.727 146.018 104.16 145.214 104.46C144.812 104.611 144.49 104.728 144.269 104.808C144.159 104.847 144.073 104.878 144.015 104.898C143.987 104.908 143.965 104.916 143.95 104.921C143.943 104.924 143.937 104.926 143.934 104.927C143.932 104.928 143.931 104.928 143.93 104.928C143.929 104.929 143.929 104.929 143.929 104.929C143.929 104.929 143.929 104.929 143.929 104.929C143.929 104.929 143.929 104.929 144.046 105.265C144.163 105.601 144.163 105.601 144.163 105.601C144.163 105.601 144.163 105.601 144.163 105.601C144.163 105.601 144.164 105.601 144.164 105.601C144.165 105.6 144.167 105.6 144.169 105.599C144.173 105.598 144.178 105.596 144.186 105.593C144.201 105.588 144.224 105.58 144.253 105.57C144.312 105.549 144.399 105.518 144.51 105.478C144.734 105.397 145.059 105.279 145.464 105.127C146.273 104.824 147.403 104.389 148.686 103.857C151.247 102.797 154.435 101.349 156.897 99.8114L156.709 99.5094ZM144.046 105.265C144.367 105.111 144.367 105.111 144.366 105.111C144.366 105.111 144.366 105.111 144.366 105.11C144.366 105.11 144.366 105.11 144.366 105.109C144.365 105.107 144.364 105.105 144.363 105.103C144.36 105.097 144.356 105.089 144.351 105.078C144.34 105.056 144.324 105.023 144.304 104.981C144.263 104.895 144.203 104.769 144.125 104.606C143.969 104.282 143.745 103.812 143.469 103.231C142.917 102.07 142.158 100.469 141.331 98.7037C139.677 95.1717 137.756 90.9951 136.676 88.3949L136.347 88.5314L136.018 88.6679C137.105 91.2849 139.033 95.4752 140.686 99.0057C141.514 100.772 142.273 102.375 142.826 103.537C143.102 104.118 143.327 104.588 143.482 104.914C143.56 105.076 143.621 105.203 143.662 105.288C143.682 105.331 143.698 105.364 143.709 105.386C143.714 105.397 143.718 105.405 143.721 105.411C143.722 105.414 143.723 105.416 143.724 105.417C143.724 105.418 143.724 105.418 143.724 105.419C143.724 105.419 143.725 105.419 143.725 105.419C143.725 105.419 143.725 105.419 144.046 105.265ZM136.347 88.5314L136.674 88.3891C136.375 87.705 136.092 86.9935 135.801 86.2646L135.47 86.3964L135.14 86.5283C135.429 87.2552 135.717 87.9774 136.021 88.6737L136.347 88.5314ZM135.47 86.3964L135.801 86.2646C134.853 83.8863 133.836 81.3261 132.057 79.2013C130.266 77.061 127.716 75.3765 123.735 74.7025L123.675 75.0535L123.616 75.4046C127.434 76.0509 129.831 77.6508 131.511 79.6584C133.205 81.6815 134.185 84.1325 135.14 86.5283L135.47 86.3964ZM123.675 75.0535L123.735 74.7025C121.271 74.2855 119.312 75.6546 117.791 77.7784C116.271 79.9013 115.129 82.8513 114.282 85.8009L114.624 85.8992L114.966 85.9975C115.806 83.0734 116.921 80.2165 118.37 78.193C119.819 76.1703 121.541 75.0534 123.616 75.4046L123.675 75.0535Z" fill="var(--stroke-0, #2A292D)"/>
</g>
<path id="Vector_3" d="M88.1779 44.9626C87.965 49.064 86.4741 60.5048 87.965 62.9872C89.4558 65.4696 95.3631 70.8517 95.3631 70.8517C95.3631 70.8517 96.697 85.7609 97.6554 88.3512C98.6138 90.9416 103.378 97.6646 113.282 96.9091C122.322 96.2194 127.792 89.4457 128.82 84.5517C129.849 79.6577 129.495 77.0184 127.792 75.6153C126.088 74.2121 123.426 73.2407 122.893 70.2187C122.361 67.1966 121.189 60.8286 119.379 53.2733C117.782 46.4736 115.12 40.8611 107.559 39.2422C100.105 37.7311 88.1779 44.9626 88.1779 44.9626Z" fill="var(--fill-0, #99CFFF)" stroke="var(--stroke-0, #2A292D)" stroke-width="0.712091" stroke-linejoin="round"/>
<path id="Vector_4" d="M93.206 41.1051C93.2915 44.622 92.3324 50.7053 95.6001 51.7448C97.871 52.4671 101.924 50.455 102.266 45.8229C102.694 41.1908 101.583 35.5294 101.583 35.5294L93.206 41.1051Z" fill="var(--fill-0, #E8AFAC)" stroke="var(--stroke-0, #333236)" stroke-width="0.712091" stroke-linejoin="round"/>
<g id="Union_4">
<path fill-rule="evenodd" clip-rule="evenodd" d="M82.4793 36.4834C81.0131 29.2391 82.3665 26.6357 84.5096 24.2587C87.3423 21.1085 94.7141 26.6491 98.84 31.2415C99.3561 30.1703 100.342 29.4461 101.474 29.4461C103.14 29.4461 104.49 31.0154 104.49 32.9511C104.49 34.8615 103.175 36.415 101.539 36.4552C101.499 36.5494 101.457 36.6486 101.414 36.7523C100.283 39.4492 97.8761 45.1863 90.5085 45.1863C89.1994 45.1863 83.9456 43.7277 82.4793 36.4834Z" fill="url(#paint2_linear_251_2651)"/>
<path d="M84.5096 24.2587L84.774 24.4971L84.7743 24.4968L84.5096 24.2587ZM98.84 31.2415L98.5751 31.4795C98.6545 31.5678 98.7727 31.6108 98.8902 31.594C99.0078 31.5773 99.1092 31.503 99.1608 31.3961L98.84 31.2415ZM101.539 36.4552L101.53 36.0993C101.39 36.1027 101.266 36.1876 101.211 36.3163L101.539 36.4552ZM101.414 36.7523L101.086 36.6146L101.086 36.6146L101.414 36.7523ZM84.5096 24.2587L84.2451 24.0203C83.1514 25.2335 82.2354 26.5318 81.7938 28.4666C81.3551 30.3894 81.3923 32.9075 82.1304 36.554L82.4793 36.4834L82.8283 36.4128C82.1001 32.815 82.0809 30.4093 82.4881 28.625C82.8925 26.8528 83.7247 25.6609 84.774 24.4971L84.5096 24.2587ZM98.84 31.2415L99.1049 31.0036C97.0245 28.688 94.1217 26.1274 91.3678 24.5382C89.9929 23.7448 88.6297 23.1786 87.4089 23.0218C86.1787 22.8638 85.0546 23.1201 84.2448 24.0206L84.5096 24.2587L84.7743 24.4968C85.3809 23.8222 86.2406 23.5897 87.3182 23.7281C88.4053 23.8677 89.6741 24.383 91.0119 25.155C93.6835 26.6967 96.5296 29.2026 98.5751 31.4795L98.84 31.2415ZM98.84 31.2415L99.1608 31.3961C99.6294 30.4233 100.504 29.8022 101.474 29.8022V29.4461V29.0901C100.18 29.0901 99.0828 29.9172 98.5192 31.087L98.84 31.2415ZM101.474 29.4461V29.8022C102.895 29.8022 104.134 31.16 104.134 32.9511H104.49H104.846C104.846 30.8707 103.385 29.0901 101.474 29.0901V29.4461ZM104.49 32.9511H104.134C104.134 34.718 102.927 36.0649 101.53 36.0993L101.539 36.4552L101.548 36.8112C103.423 36.765 104.846 35.0051 104.846 32.9511H104.49ZM101.414 36.7523L101.742 36.89C101.786 36.7862 101.827 36.6877 101.867 36.5942L101.539 36.4552L101.211 36.3163C101.171 36.4112 101.129 36.511 101.086 36.6146L101.414 36.7523ZM90.5085 45.1863V45.5424C94.2993 45.5424 96.8343 44.0608 98.5593 42.2244C100.272 40.4009 101.177 38.2364 101.742 36.89L101.414 36.7523L101.086 36.6146C100.519 37.9652 99.6553 40.0177 98.0403 41.7369C96.4373 43.4433 94.0852 44.8303 90.5085 44.8303V45.1863ZM82.4793 36.4834L82.1304 36.554C83.6341 43.9835 89.0503 45.5424 90.5085 45.5424V45.1863V44.8303C89.3485 44.8303 84.2571 43.4719 82.8283 36.4128L82.4793 36.4834Z" fill="var(--stroke-0, #333236)"/>
</g>
<path id="Vector 2807" d="M87.2284 41.2142C88.3414 42.2732 90.1134 41.973 90.7982 41.4115" stroke="var(--stroke-0, #333236)" stroke-width="0.712091" stroke-linecap="round"/>
<ellipse id="Ellipse 6102" cx="0.789587" cy="1.46622" rx="0.789587" ry="1.46622" transform="matrix(0.999964 -0.0084336 0.0771886 0.997016 90.2371 34.2765)" fill="var(--fill-0, #333236)"/>
<ellipse id="Ellipse 6137" cx="0.789587" cy="1.46622" rx="0.789587" ry="1.46622" transform="matrix(0.999964 -0.0084336 0.0771886 0.997016 84.191 33.8725)" fill="var(--fill-0, #333236)"/>
<path id="Vector 2899" d="M1.12527 53.458C1.23983 47.1993 4.67522 44.8601 6.3786 44.4728L9.69577 46.0692C7.89357 47.6531 7.1066 50.5489 6.93838 51.7988L1.12527 53.458Z" fill="var(--fill-0, #1E7E56)" stroke="var(--stroke-0, #333236)" stroke-width="0.85451" stroke-linecap="round" stroke-linejoin="round"/>
<path id="Vector 2887" d="M83.6935 23.0573C83.1917 17.484 86.7866 14.3788 92.1278 12.7718C99.2385 10.6325 107.366 19.4839 106.505 26.8832C106.102 30.3455 105.387 28.4712 102.484 30.3859C96.2755 34.4817 84.3832 30.7189 83.6935 23.0573Z" fill="var(--fill-0, #333236)" stroke="var(--stroke-0, #333236)" stroke-width="0.712091" stroke-linejoin="round"/>
<ellipse id="Ellipse 6136" cx="101.295" cy="32.5973" rx="2.61699" ry="3.13987" transform="rotate(-11.5341 101.295 32.5973)" fill="var(--fill-0, #FFBAB6)"/>
<g id="Vector 2898">
<path d="M103.502 86.8255C103.487 86.7968 103.472 86.7673 103.456 86.737C103.471 86.7668 103.487 86.7963 103.502 86.8255C104.719 89.1065 105.12 86.1005 119.184 72.2991C159.75 32.4906 270.522 -4.32806 345.571 0.843209L350.543 12.0723C294.209 3.0888 164.253 34.8265 117.182 80.8848C113.667 84.3245 107.251 93.9022 103.502 86.8255Z" fill="url(#paint3_linear_251_2651)"/>
<path d="M103.456 86.737C104.711 89.1803 104.943 86.2739 119.184 72.2991C159.75 32.4906 270.523 -4.32806 345.571 0.843209L350.543 12.0723C294.209 3.0888 164.253 34.8265 117.182 80.8848C113.652 84.3387 107.198 93.9814 103.456 86.737Z" stroke="var(--stroke-0, #333236)" stroke-width="0.712091" stroke-linecap="round" stroke-linejoin="round"/>
</g>
<g id="Vector 2897">
<path d="M9.59895 44.5048C13.4341 45.4239 45.6902 77.2618 77.3181 86.7352C88.4174 87.621 98.4042 85.5587 109.682 83.8388L110.704 85.3623C100.643 90.6841 89.0236 90.2414 77.3181 86.7352C61.2221 85.4508 42.7864 77.9667 14.6824 54.2479C7.99295 48.6022 4.63039 46.5058 3.03643 47.2128C3.03643 47.2128 4.34434 43.2454 9.59895 44.5048Z" fill="var(--fill-0, #BEF525)"/>
<path d="M9.59895 44.5048C14.8536 45.7641 73.4593 105.064 110.704 85.3623L109.682 83.8388C82.05 88.0528 62.166 94.3224 14.6824 54.2479C7.99295 48.6022 4.63039 46.5058 3.03643 47.2128C3.03643 47.2128 4.34434 43.2454 9.59895 44.5048Z" stroke="var(--stroke-0, #333236)" stroke-width="0.712091" stroke-linecap="round" stroke-linejoin="round"/>
</g>
<g id="Union_5">
<path fill-rule="evenodd" clip-rule="evenodd" d="M116.558 61.9315C116.558 61.9315 115.994 72.4584 115.543 78.0048C115.498 78.704 115.46 79.4625 115.421 80.2555C115.17 85.3673 114.848 91.9138 111.821 93.2857C108.974 94.6189 104.93 92.587 100.225 90.2234C99.3379 89.7777 98.4273 89.3202 97.4967 88.8712C95.1461 87.714 93.0397 86.5917 91.2185 85.6215C88.4082 84.1243 86.2773 82.989 84.9769 82.6456C83.064 82.1404 77.4526 80.6431 75.949 78.3146L74.793 77.6615C74.1508 77.2987 73.9244 76.484 74.2872 75.8418C74.548 75.3801 75.0425 75.1332 75.5385 75.1658L75.3133 75.0386C74.6711 74.6758 74.4446 73.8611 74.8074 73.2189C75.1127 72.6786 75.7378 72.4325 76.3109 72.5841C75.9552 72.1695 75.8777 71.5604 76.162 71.0573C76.5248 70.4151 77.3395 70.1886 77.9817 70.5514L78.0092 70.567C77.8111 70.1807 77.8048 69.7055 78.0343 69.2993C78.3971 68.6571 79.2118 68.4306 79.854 68.7934L84.1323 71.2105L83.724 70.4856C83.362 69.8429 83.5896 69.0285 84.2323 68.6665C84.8749 68.3045 85.6894 68.5321 86.0513 69.1748L88.284 73.1389C88.398 73.3413 88.4535 73.5608 88.456 73.7778C88.5354 74.0222 88.5932 74.2583 88.6244 74.4774C88.6768 75.2138 88.5831 75.5859 88.513 75.8641C88.4323 76.1845 88.3829 76.3804 88.6244 76.8651L105.618 83.6644C105.618 83.6644 105.843 76.0805 106.069 71.3264C106.294 66.5724 106.407 61.4787 106.407 61.4787L116.558 61.9315Z" fill="#FFBAB6"/>
<path d="M115.543 78.0048L115.188 77.9759L115.188 77.9817L115.543 78.0048ZM116.558 61.9315L116.914 61.9506C116.919 61.8557 116.886 61.7628 116.822 61.6924C116.758 61.622 116.669 61.5801 116.574 61.5758L116.558 61.9315ZM115.421 80.2555L115.066 80.2381V80.2381L115.421 80.2555ZM111.821 93.2857L111.674 92.9613L111.67 92.9632L111.821 93.2857ZM100.225 90.2234L100.385 89.9053V89.9053L100.225 90.2234ZM97.4967 88.8712L97.3394 89.1906L97.342 89.1918L97.4967 88.8712ZM91.2185 85.6215L91.3859 85.3073V85.3073L91.2185 85.6215ZM84.9769 82.6456L85.0679 82.3014V82.3014L84.9769 82.6456ZM75.949 78.3146L76.2481 78.1215C76.2169 78.073 76.1743 78.0329 76.1242 78.0046L75.949 78.3146ZM74.793 77.6615L74.6179 77.9715H74.6179L74.793 77.6615ZM74.2872 75.8418L74.5972 76.0169H74.5972L74.2872 75.8418ZM75.5385 75.1658L75.5151 75.5211C75.6809 75.532 75.8322 75.4268 75.8797 75.2676C75.9271 75.1084 75.8582 74.9375 75.7136 74.8558L75.5385 75.1658ZM75.3133 75.0386L75.1382 75.3486H75.1382L75.3133 75.0386ZM74.8074 73.2189L74.4974 73.0437V73.0437L74.8074 73.2189ZM76.3109 72.5841L76.2199 72.9283C76.3706 72.9682 76.5297 72.9054 76.6125 72.7733C76.6954 72.6412 76.6827 72.4706 76.5811 72.3523L76.3109 72.5841ZM76.162 71.0573L75.852 70.8821L75.852 70.8821L76.162 71.0573ZM77.9817 70.5514L77.8066 70.8614L77.8066 70.8614L77.9817 70.5514ZM78.0092 70.567L77.8341 70.877C77.971 70.9543 78.1424 70.9327 78.2558 70.8237C78.3693 70.7148 78.3978 70.5444 78.326 70.4045L78.0092 70.567ZM78.0343 69.2993L78.3443 69.4744V69.4744L78.0343 69.2993ZM79.854 68.7934L80.0291 68.4834H80.0291L79.854 68.7934ZM84.1323 71.2105L83.9572 71.5205C84.0963 71.5991 84.2708 71.5754 84.3839 71.4624C84.497 71.3495 84.521 71.175 84.4425 71.0358L84.1323 71.2105ZM83.724 70.4856L84.0342 70.3108V70.3108L83.724 70.4856ZM84.2323 68.6665L84.0575 68.3563L84.0575 68.3563L84.2323 68.6665ZM86.0513 69.1748L85.7411 69.3495V69.3495L86.0513 69.1748ZM88.284 73.1389L87.9738 73.3136V73.3136L88.284 73.1389ZM88.456 73.7778L88.1 73.7819C88.1004 73.8179 88.1063 73.8536 88.1174 73.8878L88.456 73.7778ZM88.6244 74.4774L88.9795 74.4521C88.979 74.4438 88.9781 74.4354 88.9769 74.4272L88.6244 74.4774ZM88.513 75.8641L88.1677 75.7771V75.7771L88.513 75.8641ZM88.6244 76.8651L88.3057 77.0239C88.3447 77.1021 88.411 77.1633 88.4921 77.1957L88.6244 76.8651ZM105.618 83.6644L105.485 83.9949C105.593 84.0381 105.716 84.0259 105.813 83.9621C105.91 83.8984 105.97 83.7912 105.973 83.6749L105.618 83.6644ZM106.069 71.3264L105.713 71.3096V71.3096L106.069 71.3264ZM106.407 61.4787L106.423 61.1231C106.327 61.1188 106.234 61.1533 106.164 61.2187C106.094 61.2842 106.053 61.3751 106.051 61.4709L106.407 61.4787ZM115.543 78.0048L115.898 78.0336C116.124 75.2561 116.378 71.2344 116.575 67.9093C116.674 66.2463 116.759 64.7567 116.819 63.6828C116.849 63.1459 116.872 62.7129 116.889 62.4141C116.897 62.2647 116.903 62.1488 116.907 62.0703C116.909 62.0311 116.911 62.0011 116.912 61.981C116.913 61.971 116.913 61.9634 116.913 61.9583C116.914 61.9557 116.914 61.9538 116.914 61.9525C116.914 61.9519 116.914 61.9514 116.914 61.9511C116.914 61.9509 116.914 61.9508 116.914 61.9507C116.914 61.9506 116.914 61.9506 116.558 61.9315C116.203 61.9125 116.203 61.9125 116.203 61.9126C116.203 61.9127 116.203 61.9128 116.203 61.9129C116.203 61.9133 116.203 61.9137 116.203 61.9144C116.203 61.9156 116.202 61.9175 116.202 61.9201C116.202 61.9251 116.202 61.9327 116.201 61.9428C116.2 61.9628 116.198 61.9927 116.196 62.0319C116.192 62.1103 116.186 62.226 116.178 62.3753C116.161 62.6738 116.138 63.1065 116.108 63.6432C116.048 64.7164 115.963 66.2052 115.864 67.8671C115.667 71.1921 115.414 75.207 115.188 77.9759L115.543 78.0048ZM115.421 80.2555L115.777 80.273C115.816 79.4794 115.853 78.7238 115.898 78.0278L115.543 78.0048L115.188 77.9817C115.142 78.6843 115.105 79.4457 115.066 80.2381L115.421 80.2555ZM111.821 93.2857L111.968 93.61C112.823 93.2225 113.46 92.4817 113.941 91.5537C114.423 90.6257 114.763 89.4828 115.011 88.243C115.508 85.7649 115.652 82.8222 115.777 80.273L115.421 80.2555L115.066 80.2381C114.94 82.8007 114.797 85.6871 114.313 88.1031C114.071 89.3104 113.747 90.3809 113.309 91.2259C112.871 92.071 112.333 92.6629 111.674 92.9614L111.821 93.2857ZM100.225 90.2234L100.065 90.5416C102.41 91.7196 104.624 92.8325 106.61 93.4794C108.591 94.1247 110.424 94.3333 111.972 93.6081L111.821 93.2857L111.67 92.9632C110.372 93.5713 108.759 93.4305 106.83 92.8023C104.906 92.1756 102.745 91.0909 100.385 89.9053L100.225 90.2234ZM97.4967 88.8712L97.342 89.1918C98.2696 89.6394 99.1777 90.0956 100.065 90.5416L100.225 90.2234L100.385 89.9053C99.4982 89.4597 98.585 89.0009 97.6514 88.5505L97.4967 88.8712ZM91.2185 85.6215L91.0511 85.9357C92.872 86.9058 94.9831 88.0305 97.3394 89.1906L97.4967 88.8712L97.6539 88.5517C95.3091 87.3974 93.2074 86.2777 91.3859 85.3073L91.2185 85.6215ZM84.9769 82.6456L84.886 82.9899C85.4992 83.1518 86.3296 83.5074 87.3746 84.0205C88.4147 84.5312 89.6442 85.1862 91.0511 85.9357L91.2185 85.6215L91.3859 85.3073C89.9825 84.5596 88.7414 83.8983 87.6884 83.3813C86.6403 82.8666 85.755 82.4829 85.0679 82.3014L84.9769 82.6456ZM75.949 78.3146L75.6499 78.5077C76.0671 79.1538 76.7506 79.7175 77.5374 80.2052C78.3288 80.6959 79.2518 81.126 80.1778 81.4946C82.0296 82.2319 83.9293 82.7372 84.886 82.9899L84.9769 82.6456L85.0679 82.3014C84.1116 82.0488 82.2491 81.5528 80.4412 80.833C79.5372 80.4731 78.6558 80.0608 77.9125 79.6C77.1645 79.1363 76.5827 78.6396 76.2481 78.1215L75.949 78.3146ZM74.793 77.6615L74.6179 77.9715L75.7739 78.6246L75.949 78.3146L76.1242 78.0046L74.9682 77.3515L74.793 77.6615ZM74.2872 75.8418L73.9772 75.6666C73.5176 76.48 73.8045 77.512 74.6179 77.9715L74.793 77.6615L74.9682 77.3515C74.4972 77.0854 74.3311 76.4879 74.5972 76.0169L74.2872 75.8418ZM75.5385 75.1658L75.5618 74.8105C74.9345 74.7693 74.3078 75.0814 73.9772 75.6666L74.2872 75.8418L74.5972 76.0169C74.7882 75.6787 75.1504 75.4971 75.5151 75.5211L75.5385 75.1658ZM75.3133 75.0386L75.1382 75.3486L75.3633 75.4758L75.5385 75.1658L75.7136 74.8558L75.4884 74.7286L75.3133 75.0386ZM74.8074 73.2189L74.4974 73.0437C74.0379 73.8571 74.3248 74.889 75.1382 75.3486L75.3133 75.0386L75.4884 74.7286C75.0174 74.4625 74.8513 73.865 75.1174 73.394L74.8074 73.2189ZM76.3109 72.5841L76.402 72.2399C75.6761 72.0479 74.8843 72.359 74.4974 73.0437L74.8074 73.2189L75.1174 73.394C75.3411 72.9982 75.7994 72.8171 76.2199 72.9283L76.3109 72.5841ZM76.162 71.0573L75.852 70.8821C75.4917 71.5199 75.5905 72.2912 76.0407 72.8159L76.3109 72.5841L76.5811 72.3523C76.3199 72.0478 76.2638 71.6009 76.472 71.2324L76.162 71.0573ZM77.9817 70.5514L78.1568 70.2414C77.3434 69.7819 76.3115 70.0688 75.852 70.8821L76.162 71.0573L76.472 71.2324C76.7381 70.7614 77.3356 70.5953 77.8066 70.8614L77.9817 70.5514ZM78.0092 70.567L78.1843 70.257L78.1568 70.2414L77.9817 70.5514L77.8066 70.8614L77.8341 70.877L78.0092 70.567ZM78.0343 69.2993L77.7243 69.1242C77.4334 69.639 77.442 70.2412 77.6924 70.7295L78.0092 70.567L78.326 70.4045C78.1802 70.1202 78.1761 69.772 78.3443 69.4744L78.0343 69.2993ZM79.854 68.7934L80.0291 68.4834C79.2158 68.0239 78.1838 68.3108 77.7243 69.1242L78.0343 69.2993L78.3443 69.4744C78.6104 69.0034 79.2079 68.8373 79.6789 69.1034L79.854 68.7934ZM84.1323 71.2105L84.3074 70.9005L80.0291 68.4834L79.854 68.7934L79.6789 69.1034L83.9572 71.5205L84.1323 71.2105ZM83.724 70.4856L83.4138 70.6603L83.8221 71.3852L84.1323 71.2105L84.4425 71.0358L84.0342 70.3108L83.724 70.4856ZM84.2323 68.6665L84.0575 68.3563C83.2435 68.8147 82.9553 69.8463 83.4138 70.6603L83.724 70.4856L84.0342 70.3108C83.7688 69.8395 83.9356 69.2422 84.407 68.9767L84.2323 68.6665ZM86.0513 69.1748L86.3615 69.0001C85.9031 68.1861 84.8715 67.8978 84.0575 68.3563L84.2323 68.6665L84.407 68.9767C84.8783 68.7113 85.4756 68.8782 85.7411 69.3495L86.0513 69.1748ZM88.284 73.1389L88.5942 72.9642L86.3615 69.0001L86.0513 69.1748L85.7411 69.3495L87.9738 73.3136L88.284 73.1389ZM88.456 73.7778L88.812 73.7737C88.8089 73.4984 88.7383 73.2201 88.5942 72.9642L88.284 73.1389L87.9738 73.3136C88.0577 73.4626 88.0982 73.6232 88.1 73.7819L88.456 73.7778ZM88.6244 74.4774L88.9769 74.4272C88.9422 74.1836 88.8789 73.9272 88.7946 73.6678L88.456 73.7778L88.1174 73.8878C88.1919 74.1172 88.2442 74.333 88.2719 74.5275L88.6244 74.4774ZM88.513 75.8641L88.8582 75.9511C88.934 75.6505 89.0355 75.2386 88.9795 74.4521L88.6244 74.4774L88.2693 74.5026C88.3181 75.189 88.2322 75.5212 88.1677 75.7771L88.513 75.8641ZM88.6244 76.8651L88.9431 76.7064C88.8345 76.4885 88.8077 76.3677 88.8034 76.2846C88.7989 76.1968 88.816 76.1189 88.8582 75.9511L88.513 75.8641L88.1677 75.7771C88.1293 75.9297 88.0813 76.11 88.0923 76.3214C88.1035 76.5376 88.1728 76.7571 88.3057 77.0239L88.6244 76.8651ZM105.618 83.6644L105.75 83.3338L88.7567 76.5346L88.6244 76.8651L88.4921 77.1957L105.485 83.9949L105.618 83.6644ZM106.069 71.3264L105.713 71.3096C105.6 73.6891 105.487 76.7756 105.403 79.2661C105.36 80.5116 105.325 81.6084 105.301 82.3939C105.288 82.7867 105.278 83.1016 105.272 83.3183C105.269 83.4267 105.266 83.5106 105.264 83.5673C105.263 83.5957 105.263 83.6173 105.262 83.6318C105.262 83.6391 105.262 83.6445 105.262 83.6482C105.262 83.6501 105.262 83.6514 105.262 83.6524C105.262 83.6528 105.262 83.6532 105.262 83.6534C105.262 83.6535 105.262 83.6536 105.262 83.6537C105.262 83.6537 105.262 83.6538 105.618 83.6644C105.973 83.6749 105.973 83.6749 105.973 83.6749C105.974 83.6748 105.974 83.6747 105.974 83.6746C105.974 83.6744 105.974 83.674 105.974 83.6736C105.974 83.6727 105.974 83.6713 105.974 83.6695C105.974 83.6658 105.974 83.6603 105.974 83.6531C105.975 83.6386 105.975 83.6171 105.976 83.5887C105.978 83.5321 105.98 83.4483 105.984 83.3401C105.99 83.1235 106 82.8088 106.012 82.4163C106.037 81.6312 106.072 80.535 106.114 79.2903C106.199 76.8003 106.312 73.7178 106.424 71.3433L106.069 71.3264ZM106.407 61.4787C106.051 61.4709 106.051 61.4709 106.051 61.4709C106.051 61.471 106.051 61.471 106.051 61.4711C106.051 61.4712 106.051 61.4715 106.051 61.4718C106.051 61.4724 106.051 61.4733 106.051 61.4745C106.051 61.477 106.051 61.4806 106.051 61.4855C106.051 61.4952 106.05 61.5098 106.05 61.529C106.049 61.5673 106.048 61.6243 106.046 61.6985C106.042 61.8468 106.037 62.0641 106.03 62.3398C106.016 62.8912 105.995 63.6759 105.967 64.6091C105.91 66.4757 105.826 68.9354 105.713 71.3096L106.069 71.3264L106.424 71.3433C106.537 68.9634 106.622 66.4993 106.678 64.6306C106.707 63.6961 106.728 62.9103 106.742 62.358C106.749 62.0819 106.754 61.8641 106.758 61.7153C106.76 61.641 106.761 61.5838 106.762 61.5453C106.762 61.526 106.763 61.5113 106.763 61.5015C106.763 61.4966 106.763 61.4929 106.763 61.4904C106.763 61.4892 106.763 61.4882 106.763 61.4876C106.763 61.4873 106.763 61.487 106.763 61.4869C106.763 61.4868 106.763 61.4867 106.763 61.4867C106.763 61.4867 106.763 61.4866 106.407 61.4787ZM116.558 61.9315L116.574 61.5758L106.423 61.1231L106.407 61.4787L106.391 61.8344L116.542 62.2872L116.558 61.9315Z" fill="var(--stroke-0, #333236)"/>
</g>
</g>
<g id="Group 2147223612">
<ellipse id="Ellipse 6138" cx="2.56477" cy="3.30868" rx="2.56477" ry="3.30868" transform="matrix(-0.804991 0.593288 0.593288 0.804991 105.422 35.9913)" fill="var(--fill-0, #333236)"/>
<ellipse id="Ellipse 6139" cx="2.56477" cy="3.30868" rx="2.56477" ry="3.30868" transform="matrix(-0.894279 0.44751 0.44751 0.894279 110.464 40.651)" fill="var(--fill-0, #333236)"/>
<ellipse id="Ellipse 6140" cx="2.56477" cy="3.30868" rx="2.56477" ry="3.30868" transform="matrix(-0.827315 0.561739 0.561739 0.827315 114.033 45.2162)" fill="var(--fill-0, #333236)"/>
<path id="Ellipse 6141" d="M119.304 50.6271C120.612 51.617 121.194 52.9289 121.395 53.9913C121.484 54.4637 121.144 54.8966 120.674 54.9951C119.616 55.2165 118.025 55.4244 116.766 54.6248C115.601 53.8851 115.225 52.3906 115.926 51.2866C116.627 50.1827 118.139 49.8874 119.304 50.6271Z" fill="var(--fill-0, #333236)"/>
</g>
<path id="Vector 2893" d="M114.235 101.252C114.302 101.319 115.859 102.898 116.629 103.679" stroke="var(--stroke-0, #2A292D)" stroke-width="0.712091" stroke-linecap="round" stroke-linejoin="round"/>
<path id="Vector 2895" d="M104.792 61.3315C104.891 61.3511 106.809 61.4862 107.653 61.5272" stroke="var(--stroke-0, #333236)" stroke-width="0.712091" stroke-linecap="round" stroke-linejoin="round"/>
<path id="Vector 2897_2" d="M104.466 83.2119C104.53 83.2504 105.838 83.7607 106.418 83.9674" stroke="var(--stroke-0, #333236)" stroke-width="0.712091" stroke-linecap="round" stroke-linejoin="round"/>
<path id="Vector 2898_2" d="M88.512 75.8677C88.4707 75.9295 88.4244 76.6251 87.9764 77.2001" stroke="var(--stroke-0, #333236)" stroke-width="0.712091" stroke-linecap="round" stroke-linejoin="round"/>
<path id="Vector 2896" d="M95.1646 70.6196C95.2101 70.6474 96.1389 70.9447 96.5505 71.0573" stroke="var(--stroke-0, #2A292D)" stroke-width="0.712091" stroke-linecap="round" stroke-linejoin="round"/>
</g>
<defs>
<linearGradient id="paint0_linear_251_2651" x1="80.994" y1="191.188" x2="199.443" y2="149.533" gradientUnits="userSpaceOnUse">
<stop/>
<stop offset="1" stop-opacity="0"/>
</linearGradient>
<linearGradient id="paint1_linear_251_2651" x1="124.902" y1="74.9841" x2="124.902" y2="354.075" gradientUnits="userSpaceOnUse">
<stop stop-color="#333236"/>
<stop offset="1" stop-color="#C1A8DB"/>
</linearGradient>
<linearGradient id="paint2_linear_251_2651" x1="95.8309" y1="33.3314" x2="93.16" y2="45.1823" gradientUnits="userSpaceOnUse">
<stop stop-color="#FFBAB6"/>
<stop offset="1" stop-color="#FFD7D5"/>
</linearGradient>
<linearGradient id="paint3_linear_251_2651" x1="97.788" y1="95.243" x2="188.7" y2="26.215" gradientUnits="userSpaceOnUse">
<stop stop-color="#CFFF48"/>
<stop offset="1" stop-color="#ADEA00"/>
</linearGradient>
</defs>
</svg>
