<svg preserveAspectRatio="xMidYMid meet" width="100%" height="100%" overflow="visible" style="display: block;" viewBox="0 0 53.7581 94.5641" fill="none" xmlns="http://www.w3.org/2000/svg">
<g id="Group 2147223342">
<g id="Union">
<path fill-rule="evenodd" clip-rule="evenodd" d="M50.4071 30.4365C50.4428 33.4844 48.6432 37.1162 46.1973 39.235C47.9355 39.0332 49.1858 40.3422 49.2131 42.7297C49.2496 45.8437 47.1969 49.6023 44.6273 51.1254C44.5827 51.1518 44.5388 51.1741 44.495 51.1964C44.4699 51.2092 44.4448 51.2219 44.4196 51.2354C44.9072 51.4791 45.2979 51.8892 45.568 52.4407C45.8381 52.9921 45.9819 53.6733 45.9905 54.4427C46.0261 57.4838 43.9908 61.1849 41.4008 62.8674C41.9455 63.148 42.327 63.698 42.4971 64.4479C42.6671 65.1977 42.6181 66.1137 42.3562 67.0802C42.0944 68.0467 41.6314 69.0203 41.0258 69.8779C40.4201 70.7356 39.6991 71.4388 38.9537 71.8988L38.9537 71.9036L19.0265 83.7148C17.5987 84.5611 16.1833 85.0418 14.9022 85.0926C14.6211 85.9347 14.0288 86.7496 13.3384 87.1588L3.30161 93.1078C2.32857 93.6845 1.52906 93.2372 1.51585 92.1087L1.0729 54.2601C1.05969 53.1315 1.83779 51.7491 2.81083 51.1724L12.8476 45.2234C13.553 44.8053 14.1671 44.9254 14.4567 45.4529C15.7413 43.1482 17.2625 39.8608 18.7682 35.3017C19.5474 32.7514 19.5665 30.1187 19.5851 27.5541C19.6168 23.1972 19.647 19.0367 23.4002 15.8095C32.6337 10.3366 29.9763 36.0518 29.9763 36.0518L44.9807 27.1584L44.9833 27.1843C47.9557 25.5458 50.3665 26.9609 50.4071 30.4365Z" fill="#333236"/>
<path d="M46.1973 39.235L45.4949 38.4241C45.1391 38.7323 45.0258 39.2364 45.2155 39.6672C45.4051 40.098 45.8534 40.3548 46.321 40.3006L46.1973 39.235ZM50.4071 30.4365L51.4798 30.4239V30.4239L50.4071 30.4365ZM49.2131 42.7297L48.1405 42.742L48.1405 42.7422L49.2131 42.7297ZM44.6273 51.1254L45.1743 52.0482L45.1743 52.0482L44.6273 51.1254ZM44.495 51.1964L44.9811 52.1527L44.9811 52.1527L44.495 51.1964ZM44.4196 51.2354L43.9127 50.29C43.5595 50.4794 43.3413 50.85 43.347 51.2508C43.3528 51.6516 43.5815 52.0157 43.94 52.1949L44.4196 51.2354ZM45.568 52.4407L46.5314 51.9688L46.5314 51.9688L45.568 52.4407ZM45.9905 54.4427L44.9178 54.4547L44.9178 54.4552L45.9905 54.4427ZM41.4008 62.8674L40.8164 61.9678C40.4958 62.1761 40.3102 62.5393 40.3294 62.9212C40.3486 63.3031 40.5696 63.6459 40.9095 63.821L41.4008 62.8674ZM42.3562 67.0802L41.3208 66.7996V66.7996L42.3562 67.0802ZM41.0258 69.8779L41.902 70.4967L41.902 70.4967L41.0258 69.8779ZM38.9537 71.8988L38.3903 70.9859C38.0699 71.1836 37.8766 71.5349 37.881 71.9114L38.9537 71.8988ZM38.9537 71.9036L39.5007 72.8264C39.8305 72.631 40.0309 72.2743 40.0264 71.891L38.9537 71.9036ZM19.0265 83.7148L18.4796 82.792V82.792L19.0265 83.7148ZM14.9022 85.0926L14.8597 84.0207C14.4141 84.0384 14.0259 84.33 13.8847 84.753L14.9022 85.0926ZM13.3384 87.1588L13.8854 88.0817H13.8854L13.3384 87.1588ZM3.30161 93.1078L3.84858 94.0306H3.84858L3.30161 93.1078ZM1.51585 92.1087L2.58852 92.0961V92.0961L1.51585 92.1087ZM1.0729 54.2601L2.14557 54.2475L1.0729 54.2601ZM2.81083 51.1724L2.26386 50.2496H2.26386L2.81083 51.1724ZM12.8476 45.2234L12.3006 44.3006V44.3006L12.8476 45.2234ZM14.4567 45.4529L13.5163 45.9691C13.7041 46.3113 14.0629 46.5244 14.4532 46.5257C14.8435 46.5269 15.2037 46.3161 15.3937 45.9752L14.4567 45.4529ZM18.7682 35.3017L19.7868 35.6381C19.7893 35.6305 19.7918 35.6228 19.7941 35.6151L18.7682 35.3017ZM19.5851 27.5541L20.6578 27.5619V27.5619L19.5851 27.5541ZM23.4002 15.8095L22.8532 14.8867C22.7993 14.9186 22.7483 14.9552 22.7008 14.9961L23.4002 15.8095ZM29.9763 36.0518L28.9092 35.9416C28.8676 36.3447 29.0566 36.7368 29.398 36.9553C29.7393 37.1738 30.1746 37.1813 30.5232 36.9746L29.9763 36.0518ZM44.9807 27.1584L46.0483 27.0529C46.0122 26.688 45.7923 26.3669 45.4652 26.2013C45.1381 26.0358 44.7491 26.0487 44.4338 26.2356L44.9807 27.1584ZM44.9833 27.1843L43.9158 27.2899C43.9513 27.6488 44.1647 27.9658 44.4839 28.1337C44.8031 28.3016 45.1853 28.2979 45.5012 28.1238L44.9833 27.1843ZM46.1973 39.235L46.8996 40.0458C49.5501 37.7499 51.5197 33.8298 51.4798 30.4239L50.4071 30.4365L49.3345 30.449C49.3659 33.1391 47.7363 36.4826 45.4949 38.4241L46.1973 39.235ZM49.2131 42.7297L50.2858 42.7174C50.2702 41.3539 49.9045 40.1499 49.1489 39.2991C48.3665 38.4181 47.2648 38.0311 46.0736 38.1694L46.1973 39.235L46.321 40.3006C46.868 40.2371 47.2605 40.4037 47.5447 40.7237C47.8556 41.0738 48.1287 41.718 48.1405 42.742L49.2131 42.7297ZM44.6273 51.1254L45.1743 52.0482C46.6672 51.1633 47.9436 49.6777 48.839 48.0384C49.7358 46.3964 50.3066 44.4977 50.2858 42.7171L49.2131 42.7297L48.1405 42.7422C48.1561 44.0757 47.7189 45.6133 46.956 47.0099C46.1918 48.4092 45.157 49.5644 44.0804 50.2026L44.6273 51.1254ZM44.495 51.1964L44.9811 52.1527C45.021 52.1324 45.0952 52.0951 45.1743 52.0482L44.6273 51.1254L44.0804 50.2025C44.0702 50.2086 44.0566 50.2159 44.0088 50.2402L44.495 51.1964ZM44.4196 51.2354L44.9266 52.1808C44.9397 52.1738 44.9544 52.1662 44.9811 52.1527L44.495 51.1964L44.0088 50.2402C43.9854 50.2521 43.9499 50.2701 43.9127 50.29L44.4196 51.2354ZM45.568 52.4407L46.5314 51.9688C46.1716 51.2343 45.6235 50.6379 44.8993 50.2759L44.4196 51.2354L43.94 52.1949C44.1908 52.3203 44.4242 52.5442 44.6046 52.9125L45.568 52.4407ZM45.9905 54.4427L47.0632 54.4306C47.0532 53.5411 46.8871 52.695 46.5314 51.9688L45.568 52.4407L44.6046 52.9125C44.7891 53.2892 44.9106 53.8056 44.9178 54.4547L45.9905 54.4427ZM41.4008 62.8674L41.9852 63.767C43.4603 62.8087 44.728 61.3145 45.6216 59.6789C46.5146 58.0445 47.0836 56.178 47.0632 54.4301L45.9905 54.4427L44.9178 54.4552C44.933 55.7485 44.5022 57.2531 43.7388 58.6502C42.9762 60.046 41.9312 61.2436 40.8164 61.9678L41.4008 62.8674ZM42.4971 64.4479L43.5432 64.2106C43.3225 63.2372 42.7881 62.3754 41.8921 61.9138L41.4008 62.8674L40.9095 63.821C41.103 63.9207 41.3315 64.1588 41.4509 64.6851L42.4971 64.4479ZM42.3562 67.0802L43.3916 67.3607C43.6859 66.2746 43.762 65.1752 43.5432 64.2106L42.4971 64.4479L41.4509 64.6851C41.5723 65.2202 41.5503 65.9528 41.3208 66.7996L42.3562 67.0802ZM41.0258 69.8779L41.902 70.4967C42.5765 69.5415 43.0954 68.4542 43.3916 67.3607L42.3562 67.0802L41.3208 66.7996C41.0934 67.6391 40.6862 68.499 40.1495 69.2591L41.0258 69.8779ZM38.9537 71.8988L39.517 72.8117C40.4074 72.2622 41.2292 71.4495 41.902 70.4967L41.0258 69.8779L40.1495 69.2591C39.611 70.0217 38.9908 70.6153 38.3903 70.9859L38.9537 71.8988ZM38.9537 71.9036L40.0264 71.891L40.0263 71.8861L38.9537 71.8988L37.881 71.9114L37.8811 71.9163L38.9537 71.9036ZM19.0265 83.7148L19.5735 84.6376L39.5007 72.8264L38.9537 71.9036L38.4068 70.9808L18.4796 82.792L19.0265 83.7148ZM14.9022 85.0926L14.9448 86.1645C16.4534 86.1046 18.0419 85.5454 19.5735 84.6376L19.0265 83.7148L18.4796 82.792C17.1554 83.5768 15.9131 83.9789 14.8597 84.0207L14.9022 85.0926ZM13.3384 87.1588L13.8854 88.0817C14.8432 87.5139 15.5755 86.4635 15.9198 85.4323L14.9022 85.0926L13.8847 84.753C13.6668 85.4058 13.2144 85.9853 12.7914 86.236L13.3384 87.1588ZM3.30161 93.1078L3.84858 94.0306L13.8854 88.0817L13.3384 87.1588L12.7914 86.236L2.75465 92.185L3.30161 93.1078ZM1.51585 92.1087L0.443192 92.1212C0.452448 92.9121 0.749055 93.7497 1.52501 94.1839C2.29979 94.6174 3.16861 94.4337 3.84858 94.0306L3.30161 93.1078L2.75465 92.185C2.61563 92.2674 2.53155 92.2838 2.50554 92.2865C2.48583 92.2885 2.51957 92.2819 2.57258 92.3116C2.62574 92.3413 2.63851 92.374 2.63065 92.3576C2.61997 92.3354 2.59039 92.2565 2.58852 92.0961L1.51585 92.1087ZM1.0729 54.2601L0.000239848 54.2726L0.443192 92.1212L1.51585 92.1087L2.58852 92.0961L2.14557 54.2475L1.0729 54.2601ZM2.81083 51.1724L2.26386 50.2496C1.57762 50.6563 1.01965 51.3036 0.637198 51.9831C0.254822 52.6625 -0.00909233 53.4752 0.000239848 54.2726L1.0729 54.2601L2.14557 54.2475C2.14169 53.9164 2.26022 53.4736 2.50685 53.0355C2.75341 52.5974 3.07101 52.2652 3.3578 52.0952L2.81083 51.1724ZM12.8476 45.2234L12.3006 44.3006L2.26386 50.2496L2.81083 51.1724L3.3578 52.0952L13.3946 46.1462L12.8476 45.2234ZM14.4567 45.4529L15.3971 44.9368C15.1024 44.3999 14.6007 44.0223 13.9747 43.9238C13.3811 43.8305 12.799 44.0052 12.3006 44.3006L12.8476 45.2234L13.3946 46.1462C13.6016 46.0235 13.6792 46.0492 13.6414 46.0433C13.6199 46.0399 13.5867 46.0288 13.5544 46.0055C13.5232 45.983 13.5135 45.964 13.5163 45.9691L14.4567 45.4529ZM18.7682 35.3017L17.7496 34.9653C16.2632 39.4659 14.7684 42.6904 13.5197 44.9307L14.4567 45.4529L15.3937 45.9752C16.7142 43.606 18.2618 40.2557 19.7868 35.6381L18.7682 35.3017ZM19.5851 27.5541L18.5124 27.5463C18.4936 30.136 18.4684 32.6115 17.7423 34.9882L18.7682 35.3017L19.7941 35.6151C20.6264 32.8912 20.6394 30.1015 20.6578 27.5619L19.5851 27.5541ZM23.4002 15.8095L22.7008 14.9961C18.5303 18.5821 18.5436 23.2534 18.5124 27.5463L19.5851 27.5541L20.6578 27.5619C20.6899 23.1411 20.7636 19.4913 24.0996 16.6229L23.4002 15.8095ZM29.9763 36.0518C31.0433 36.1621 31.0433 36.1618 31.0434 36.1614C31.0434 36.1612 31.0435 36.1607 31.0435 36.1602C31.0436 36.1592 31.0438 36.1578 31.0439 36.156C31.0443 36.1524 31.0448 36.1473 31.0455 36.1406C31.0468 36.1273 31.0488 36.108 31.0512 36.0827C31.0562 36.0322 31.0633 35.9583 31.0721 35.8627C31.0897 35.6714 31.1141 35.3932 31.1418 35.0419C31.1972 34.3397 31.2658 33.3444 31.3189 32.1677C31.4247 29.8204 31.4702 26.7252 31.2197 23.7872C30.9738 20.9041 30.4298 17.967 29.2269 16.0856C28.6068 15.1158 27.7432 14.321 26.5655 14.0605C25.3957 13.8018 24.1447 14.1212 22.8532 14.8867L23.4002 15.8095L23.9472 16.7323C24.964 16.1296 25.6498 16.0553 26.1021 16.1554C26.5463 16.2536 26.99 16.57 27.4193 17.2413C28.3151 18.6424 28.8379 21.1079 29.0819 23.9695C29.3213 26.7761 29.2794 29.7677 29.1756 32.071C29.1238 33.2196 29.0569 34.1905 29.003 34.8732C28.9761 35.2144 28.9524 35.4833 28.9356 35.6661C28.9272 35.7574 28.9205 35.8272 28.916 35.8737C28.9137 35.897 28.912 35.9144 28.9108 35.9258C28.9102 35.9315 28.9098 35.9356 28.9095 35.9383C28.9094 35.9396 28.9093 35.9405 28.9093 35.9411C28.9092 35.9413 28.9092 35.9415 28.9092 35.9416C28.9092 35.9416 28.9092 35.9416 29.9763 36.0518ZM44.9807 27.1584L44.4338 26.2356L29.4293 35.129L29.9763 36.0518L30.5232 36.9746L45.5277 28.0812L44.9807 27.1584ZM44.9833 27.1843L46.0508 27.0787L46.0483 27.0529L44.9807 27.1584L43.9132 27.264L43.9158 27.2899L44.9833 27.1843ZM50.4071 30.4365L51.4798 30.4239C51.4569 28.4639 50.7554 26.812 49.3436 25.971C47.9269 25.1271 46.1551 25.3134 44.4654 26.2448L44.9833 27.1843L45.5012 28.1238C46.7838 27.4167 47.7036 27.4914 48.2456 27.8142C48.7925 28.1401 49.3167 28.9335 49.3345 30.449L50.4071 30.4365Z" fill="var(--stroke-0, #333236)"/>
</g>
<g id="Group 2147223341">
<path id="Vector" d="M49.0864 39.2354C51.5323 37.1167 53.3319 33.4849 53.2962 30.4369C53.2556 26.9614 50.8448 25.5463 47.8724 27.1847L47.8698 27.1588L32.8654 36.0522C32.8654 36.0522 35.5228 10.3371 26.2893 15.8099C20.3268 20.9367 23.7603 28.4191 21.6573 35.3021C18.7089 44.2297 15.7009 48.2809 14.5267 49.6263C14.3742 49.7992 14.2457 50.0073 14.1561 50.2262C14.0665 50.4451 14.0196 50.6658 14.0209 50.8623L14.3973 83.0249C14.4084 83.9705 15.0945 84.5159 15.9545 84.8279C17.6339 85.437 19.7605 84.9926 21.9156 83.7152L41.8428 71.9041L41.8428 71.8992C42.5882 71.4392 43.3092 70.736 43.9149 69.8783C44.5205 69.0207 44.9835 68.0471 45.2453 67.0806C45.5072 66.1141 45.5562 65.1981 45.3862 64.4483C45.2161 63.6985 44.8346 63.1485 44.2899 62.8678C46.8799 61.1853 48.9152 57.4842 48.8796 54.4431C48.871 53.6738 48.7272 52.9926 48.4571 52.4411C48.187 51.8897 47.7963 51.4796 47.3088 51.2358C47.3781 51.1987 47.4463 51.1674 47.5164 51.1258C50.086 49.6028 52.1387 45.8441 52.1022 42.7301C52.0749 40.3427 50.8246 39.0336 49.0864 39.2354Z" fill="var(--fill-0, #FFE3BA)" stroke="var(--stroke-0, #333236)" stroke-width="1.07274" stroke-linejoin="round"/>
<path id="Vector_2" d="M15.7366 45.2237L5.69981 51.1727C4.72677 51.7494 3.94867 53.1318 3.96188 54.2604L4.40483 92.109C4.41804 93.2375 5.21755 93.6848 6.19059 93.1081L16.2274 87.1591C17.2004 86.5824 17.9785 85.2 17.9653 84.0714L17.5223 46.2228C17.5091 45.0943 16.7096 44.647 15.7366 45.2237Z" fill="var(--fill-0, #A64EFF)" stroke="var(--stroke-0, #333236)" stroke-width="2.14547" stroke-linejoin="round"/>
</g>
</g>
</svg>
