<svg preserveAspectRatio="xMidYMid meet" width="100%" height="100%" overflow="visible" style="display: block;" viewBox="0 0 92.3538 105.729" fill="none" xmlns="http://www.w3.org/2000/svg">
<g id="Union">
<mask id="path-1-inside-1_251_2727" fill="white">
<path d="M76.5848 60.4917C86.6225 60.4917 90.3178 66.0033 91.6473 70.6245C94.4403 80.3304 88.8056 97.1814 77.3407 104.351L75.1453 105.729V88.5239C68.0104 87.7922 62.5223 81.7935 62.5223 74.5386C62.5223 66.7959 68.8399 60.4917 76.5848 60.4917ZM43.702 0.0503041C46.1535 -0.193556 48.5689 0.45194 50.5692 1.92726C52.6914 3.50019 54.0817 5.81742 54.4842 8.43898C54.8867 11.0605 54.2284 13.6822 52.6551 15.8159C51.0818 17.9497 48.7763 19.3398 46.1541 19.73C42.2268 20.3275 38.4696 21.6071 35.0789 23.5093C34.896 23.619 34.7013 23.7296 34.5184 23.8394C34.0549 24.1076 33.6034 24.4125 33.1522 24.7173C31.5911 25.7781 30.1148 26.9728 28.7489 28.3384C28.0781 28.9967 27.4558 29.6914 26.8582 30.4107C26.7729 30.5204 26.6878 30.6183 26.6024 30.728C22.236 36.1175 19.8582 42.7878 19.8582 49.8355C19.8583 56.6879 22.1143 63.1624 26.2489 68.4663C26.5782 68.9053 26.944 69.3203 27.2977 69.7349C27.6635 70.1494 28.0295 70.564 28.4198 70.9663C28.81 71.3686 29.2005 71.7583 29.6151 72.1362C29.8102 72.3191 30.0181 72.5149 30.2254 72.6978C34.6649 76.5506 40.2141 78.9893 46.1414 79.8794C48.7637 80.2696 51.069 81.6596 52.6424 83.7935C54.2158 85.9273 54.8628 88.5489 54.4725 91.1704C54.0822 93.7919 52.6909 96.1082 50.5565 97.6812C48.5685 99.1565 46.1417 99.8029 43.6903 99.5591V99.6206C32.7499 98.2062 22.6508 93.2922 14.7352 85.3911L14.7108 85.3667L14.6014 85.2564C-4.9011 65.6618 -4.86528 33.8496 14.6981 14.2915C21.8575 7.13408 30.8348 2.4398 40.5799 0.562023C41.4459 0.391317 42.3121 0.232282 43.1903 0.0981556C43.2878 0.0859897 43.3857 0.0869023 43.4832 0.0747181C43.5562 0.062563 43.629 0.0497639 43.702 0.0376088V0.0503041ZM77.8045 2.18409C85.7811 2.18414 92.2694 8.67065 92.2694 16.645C92.2693 24.3877 85.7811 30.6919 77.8045 30.6919C70.0596 30.6919 63.7538 24.3877 63.7537 16.645C63.7537 8.67062 70.0596 2.18409 77.8045 2.18409Z"/>
</mask>
<path d="M76.5848 60.4917C86.6225 60.4917 90.3178 66.0033 91.6473 70.6245C94.4403 80.3304 88.8056 97.1814 77.3407 104.351L75.1453 105.729V88.5239C68.0104 87.7922 62.5223 81.7935 62.5223 74.5386C62.5223 66.7959 68.8399 60.4917 76.5848 60.4917ZM43.702 0.0503041C46.1535 -0.193556 48.5689 0.45194 50.5692 1.92726C52.6914 3.50019 54.0817 5.81742 54.4842 8.43898C54.8867 11.0605 54.2284 13.6822 52.6551 15.8159C51.0818 17.9497 48.7763 19.3398 46.1541 19.73C42.2268 20.3275 38.4696 21.6071 35.0789 23.5093C34.896 23.619 34.7013 23.7296 34.5184 23.8394C34.0549 24.1076 33.6034 24.4125 33.1522 24.7173C31.5911 25.7781 30.1148 26.9728 28.7489 28.3384C28.0781 28.9967 27.4558 29.6914 26.8582 30.4107C26.7729 30.5204 26.6878 30.6183 26.6024 30.728C22.236 36.1175 19.8582 42.7878 19.8582 49.8355C19.8583 56.6879 22.1143 63.1624 26.2489 68.4663C26.5782 68.9053 26.944 69.3203 27.2977 69.7349C27.6635 70.1494 28.0295 70.564 28.4198 70.9663C28.81 71.3686 29.2005 71.7583 29.6151 72.1362C29.8102 72.3191 30.0181 72.5149 30.2254 72.6978C34.6649 76.5506 40.2141 78.9893 46.1414 79.8794C48.7637 80.2696 51.069 81.6596 52.6424 83.7935C54.2158 85.9273 54.8628 88.5489 54.4725 91.1704C54.0822 93.7919 52.6909 96.1082 50.5565 97.6812C48.5685 99.1565 46.1417 99.8029 43.6903 99.5591V99.6206C32.7499 98.2062 22.6508 93.2922 14.7352 85.3911L14.7108 85.3667L14.6014 85.2564C-4.9011 65.6618 -4.86528 33.8496 14.6981 14.2915C21.8575 7.13408 30.8348 2.4398 40.5799 0.562023C41.4459 0.391317 42.3121 0.232282 43.1903 0.0981556C43.2878 0.0859897 43.3857 0.0869023 43.4832 0.0747181C43.5562 0.062563 43.629 0.0497639 43.702 0.0376088V0.0503041ZM77.8045 2.18409C85.7811 2.18414 92.2694 8.67065 92.2694 16.645C92.2693 24.3877 85.7811 30.6919 77.8045 30.6919C70.0596 30.6919 63.7538 24.3877 63.7537 16.645C63.7537 8.67062 70.0596 2.18409 77.8045 2.18409Z" fill="var(--fill-0, #6500C2)"/>
<path d="M76.5848 60.4917V58.5893V58.5893V60.4917ZM91.6473 70.6245L89.819 71.1505L89.8191 71.1506L91.6473 70.6245ZM77.3407 104.351L76.332 102.738L76.3293 102.74L77.3407 104.351ZM75.1453 105.729H73.2429V109.169L76.1567 107.34L75.1453 105.729ZM75.1453 88.5239H77.0478V86.8066L75.3394 86.6314L75.1453 88.5239ZM62.5223 74.5386L60.6199 74.5386V74.5386H62.5223ZM43.702 0.0503041H41.7996V2.15135L43.8903 1.94338L43.702 0.0503041ZM50.5692 1.92726L51.702 0.398866L51.6984 0.396238L50.5692 1.92726ZM54.4842 8.43898L56.3646 8.1503L56.3646 8.15028L54.4842 8.43898ZM52.6551 15.8159L54.1863 16.9449L54.1863 16.9449L52.6551 15.8159ZM46.1541 19.73L45.8741 17.8483L45.868 17.8492L46.1541 19.73ZM35.0789 23.5093L34.1482 21.8501L34.1241 21.8636L34.1004 21.8779L35.0789 23.5093ZM34.5184 23.8394L35.4714 25.4859L35.4842 25.4784L35.497 25.4708L34.5184 23.8394ZM33.1522 24.7173L32.0873 23.1408L32.083 23.1438L33.1522 24.7173ZM28.7489 28.3384L30.0815 29.6961L30.0877 29.69L30.0939 29.6838L28.7489 28.3384ZM26.8582 30.4107L25.3949 29.195L25.3754 29.2184L25.3567 29.2425L26.8582 30.4107ZM26.6024 30.728L28.0805 31.9256L28.0924 31.911L28.1039 31.8962L26.6024 30.728ZM19.8582 49.8355H17.9558V49.8355L19.8582 49.8355ZM26.2489 68.4663L27.7706 67.3247L27.7601 67.3106L27.7493 67.2967L26.2489 68.4663ZM27.2977 69.7349L25.8504 70.9696L25.8608 70.9818L25.8714 70.9938L27.2977 69.7349ZM28.4198 70.9663L27.0542 72.2909H27.0542L28.4198 70.9663ZM29.6151 72.1362L30.916 70.7482L30.9064 70.7392L30.8967 70.7303L29.6151 72.1362ZM30.2254 72.6978L28.9669 74.1244L28.9727 74.1295L28.9785 74.1346L30.2254 72.6978ZM46.1414 79.8794L45.8589 81.7607L45.8614 81.7611L46.1414 79.8794ZM52.6424 83.7935L54.1736 82.6645V82.6645L52.6424 83.7935ZM54.4725 91.1704L56.3542 91.4506L56.3542 91.4506L54.4725 91.1704ZM50.5565 97.6812L49.4279 96.1497L49.4228 96.1535L50.5565 97.6812ZM43.6903 99.5591L43.8786 97.666L41.7878 97.4581V99.5591H43.6903ZM43.6903 99.6206L43.4463 101.507L45.5927 101.785V99.6206H43.6903ZM14.7352 85.3911L13.39 86.7363L13.3912 86.7376L14.7352 85.3911ZM14.7108 85.3667L13.3596 86.7059L13.3656 86.7119L14.7108 85.3667ZM14.6014 85.2564L15.9526 83.9171L15.9498 83.9143L14.6014 85.2564ZM14.6981 14.2915L13.3531 12.9461L13.353 12.9461L14.6981 14.2915ZM40.5799 0.562023L40.9399 2.43009L40.9479 2.42852L40.5799 0.562023ZM43.1903 0.0981556L42.9547 -1.78962L42.9288 -1.78639L42.903 -1.78245L43.1903 0.0981556ZM43.4832 0.0747181L43.7191 1.96245L43.7576 1.95764L43.7959 1.95127L43.4832 0.0747181ZM43.702 0.0376088H45.6044V-2.20802L43.3893 -1.83894L43.702 0.0376088ZM77.8045 2.18409L77.8045 0.281676H77.8045V2.18409ZM92.2694 16.645L94.1718 16.645V16.645H92.2694ZM77.8045 30.6919V32.5943H77.8045L77.8045 30.6919ZM63.7537 16.645H61.8513V16.645L63.7537 16.645ZM76.5848 60.4917V62.3941C81.2364 62.3941 84.2159 63.6621 86.1631 65.2861C88.1332 66.9292 89.2252 69.0865 89.819 71.1505L91.6473 70.6245L93.4756 70.0985C92.7399 67.5414 91.3196 64.6322 88.6001 62.3642C85.858 60.0771 81.971 58.5893 76.5848 58.5893V60.4917ZM91.6473 70.6245L89.8191 71.1506C91.0622 75.4705 90.4679 81.6615 88.0709 87.7411C85.6854 93.7914 81.6333 99.4229 76.332 102.738L77.3407 104.351L78.3493 105.964C84.5129 102.11 89.0107 95.7308 91.6105 89.1367C94.1989 82.5719 95.0255 75.4844 93.4755 70.0984L91.6473 70.6245ZM77.3407 104.351L76.3293 102.74L74.134 104.118L75.1453 105.729L76.1567 107.34L78.352 105.962L77.3407 104.351ZM75.1453 105.729H77.0478V88.5239H75.1453H73.2429V105.729H75.1453ZM75.1453 88.5239L75.3394 86.6314C69.1682 85.9986 64.4247 80.8112 64.4247 74.5386H62.5223H60.6199C60.6199 82.7758 66.8526 89.5859 74.9513 90.4164L75.1453 88.5239ZM62.5223 74.5386L64.4247 74.5386C64.4248 67.8491 69.888 62.3941 76.5848 62.3941V60.4917V58.5893C67.7918 58.5893 60.6199 65.7427 60.6199 74.5386L62.5223 74.5386ZM43.702 0.0503041L43.8903 1.94338C45.8806 1.74539 47.8251 2.26721 49.4399 3.45828L50.5692 1.92726L51.6984 0.396238C49.3128 -1.36333 46.4263 -2.1325 43.5137 -1.84277L43.702 0.0503041ZM50.5692 1.92726L49.4364 3.45564C51.1523 4.72745 52.2768 6.59745 52.6038 8.72767L54.4842 8.43898L56.3646 8.15028C55.8867 5.03739 54.2305 2.27293 51.702 0.39887L50.5692 1.92726ZM54.4842 8.43898L52.6038 8.72765C52.9285 10.8427 52.4007 12.9553 51.1239 14.6869L52.6551 15.8159L54.1863 16.9449C56.0562 14.409 56.8448 11.2782 56.3646 8.1503L54.4842 8.43898ZM52.6551 15.8159L51.1239 14.6869C49.8501 16.4145 47.9943 17.5328 45.8741 17.8483L46.1541 19.73L46.4342 21.6117C49.5584 21.1468 52.3135 19.4849 54.1863 16.9449L52.6551 15.8159ZM46.1541 19.73L45.868 17.8492C41.7204 18.4802 37.744 19.8329 34.1482 21.8501L35.0789 23.5093L36.0097 25.1685C39.1952 23.3814 42.7332 22.1747 46.4403 21.6108L46.1541 19.73ZM35.0789 23.5093L34.1004 21.8779C34.0204 21.9258 33.9361 21.975 33.8398 22.0312C33.7473 22.0852 33.6428 22.1461 33.5398 22.2079L34.5184 23.8394L35.497 25.4708C35.5769 25.4229 35.6612 25.3736 35.7575 25.3175C35.85 25.2634 35.9545 25.2025 36.0575 25.1407L35.0789 23.5093ZM34.5184 23.8394L33.5654 22.1929C33.0351 22.4998 32.529 22.8425 32.0873 23.1408L33.1522 24.7173L34.2171 26.2938C34.6779 25.9825 35.0748 25.7154 35.4714 25.4859L34.5184 23.8394ZM33.1522 24.7173L32.083 23.1438C30.4333 24.2647 28.8628 25.5345 27.4038 26.993L28.7489 28.3384L30.0939 29.6838C31.3669 28.4111 32.7489 27.2914 34.2214 26.2908L33.1522 24.7173ZM28.7489 28.3384L27.4162 26.9807C26.6884 27.6952 26.0222 28.4399 25.3949 29.195L26.8582 30.4107L28.3216 31.6263C28.8894 30.9428 29.4679 30.2983 30.0815 29.6961L28.7489 28.3384ZM26.8582 30.4107L25.3567 29.2425C25.3318 29.2745 25.3048 29.3075 25.26 29.3622C25.2196 29.4113 25.1613 29.4822 25.1009 29.5599L26.6024 30.728L28.1039 31.8962C28.1288 31.8642 28.1558 31.8312 28.2006 31.7765C28.241 31.7273 28.2993 31.6565 28.3598 31.5788L26.8582 30.4107ZM26.6024 30.728L25.1242 29.5305C20.4827 35.2594 17.9558 42.3527 17.9558 49.8355H19.8582H21.7607C21.7607 43.2228 23.9892 36.9756 28.0805 31.9256L26.6024 30.728ZM19.8582 49.8355L17.9558 49.8355C17.9559 57.1133 20.3544 63.9991 24.7485 69.6359L26.2489 68.4663L27.7493 67.2967C23.8742 62.3257 21.7607 56.2625 21.7607 49.8354L19.8582 49.8355ZM26.2489 68.4663L24.7271 69.608C25.1028 70.1087 25.5251 70.5883 25.8504 70.9696L27.2977 69.7349L28.7449 68.5001C28.3629 68.0523 28.0536 67.7018 27.7706 67.3247L26.2489 68.4663ZM27.2977 69.7349L25.8714 70.9938C26.2326 71.4031 26.6277 71.8512 27.0542 72.2909L28.4198 70.9663L29.7853 69.6418C29.4313 69.2768 29.0944 68.8957 28.724 68.476L27.2977 69.7349ZM28.4198 70.9663L27.0542 72.2909C27.4574 72.7065 27.8782 73.1272 28.3335 73.5422L29.6151 72.1362L30.8967 70.7303C30.5228 70.3895 30.1625 70.0307 29.7853 69.6418L28.4198 70.9663ZM29.6151 72.1362L28.3141 73.5243C28.5022 73.7006 28.7334 73.9184 28.9669 74.1244L30.2254 72.6978L31.4839 71.2711C31.3028 71.1113 31.1182 70.9377 30.916 70.7482L29.6151 72.1362ZM30.2254 72.6978L28.9785 74.1346C33.7114 78.2421 39.6026 80.8212 45.8589 81.7607L46.1414 79.8794L46.424 77.9981C40.8257 77.1574 35.6184 74.8591 31.4723 71.261L30.2254 72.6978ZM46.1414 79.8794L45.8614 81.7611C47.9817 82.0766 49.8373 83.1948 51.1112 84.9225L52.6424 83.7935L54.1736 82.6645C52.3008 80.1245 49.5458 78.4626 46.4214 77.9977L46.1414 79.8794ZM52.6424 83.7935L51.1112 84.9225C52.3845 86.6494 52.9074 88.7638 52.5908 90.8903L54.4725 91.1704L56.3542 91.4506C56.8182 88.3339 56.047 85.2052 54.1736 82.6645L52.6424 83.7935ZM54.4725 91.1704L52.5908 90.8903C52.2749 93.0122 51.1539 94.8777 49.4279 96.1497L50.5565 97.6812L51.6851 99.2126C54.2279 97.3388 55.8895 94.5717 56.3542 91.4506L54.4725 91.1704ZM50.5565 97.6812L49.4228 96.1535C47.8242 97.3397 45.8712 97.8642 43.8786 97.666L43.6903 99.5591L43.502 101.452C46.4122 101.742 49.3127 100.973 51.6902 99.2089L50.5565 97.6812ZM43.6903 99.5591H41.7878V99.6206H43.6903H45.5927V99.5591H43.6903ZM43.6903 99.6206L43.9342 97.7339C33.408 96.373 23.6963 91.6478 16.0792 84.0447L14.7352 85.3911L13.3912 86.7376C21.6053 94.9366 32.0918 100.039 43.4463 101.507L43.6903 99.6206ZM14.7352 85.3911L16.0804 84.0459L16.056 84.0215L14.7108 85.3667L13.3656 86.7119L13.39 86.7363L14.7352 85.3911ZM14.7108 85.3667L16.0619 84.0275L15.9526 83.9171L14.6014 85.2564L13.2502 86.5956L13.3596 86.7059L14.7108 85.3667ZM14.6014 85.2564L15.9498 83.9143C-2.81259 65.0634 -2.77848 34.4534 16.0431 15.6369L14.6981 14.2915L13.353 12.9461C-6.95207 33.2457 -6.98962 66.2602 13.253 86.5984L14.6014 85.2564ZM14.6981 14.2915L16.0431 15.6369C22.9308 8.75118 31.5637 4.23675 40.9399 2.43008L40.5799 0.562023L40.22 -1.30603C30.1058 0.64285 20.7843 5.51698 13.3531 12.9461L14.6981 14.2915ZM40.5799 0.562023L40.9479 2.42852C41.7985 2.26084 42.6358 2.10732 43.4775 1.97876L43.1903 0.0981556L42.903 -1.78245C41.9884 -1.64275 41.0933 -1.47821 40.212 -1.30447L40.5799 0.562023ZM43.1903 0.0981556L43.4258 1.98593C43.4012 1.989 43.3868 1.98913 43.4462 1.98571C43.4847 1.98349 43.5969 1.97773 43.7191 1.96245L43.4832 0.0747181L43.2473 -1.81302C43.272 -1.8161 43.2865 -1.81623 43.2273 -1.81282C43.1889 -1.81061 43.0768 -1.80485 42.9547 -1.78962L43.1903 0.0981556ZM43.4832 0.0747181L43.7959 1.95127C43.8372 1.94438 43.8778 1.93743 43.9135 1.93131C43.9507 1.92496 43.983 1.91943 44.0147 1.91416L43.702 0.0376088L43.3893 -1.83894C43.348 -1.83206 43.3074 -1.82511 43.2717 -1.81899C43.2345 -1.81263 43.2022 -1.8071 43.1706 -1.80183L43.4832 0.0747181ZM43.702 0.0376088H41.7996V0.0503041H43.702H45.6044V0.0376088H43.702ZM77.8045 2.18409L77.8045 4.08651C84.731 4.08655 90.3669 9.72181 90.3669 16.645H92.2694H94.1718C94.1718 7.61949 86.8313 0.281728 77.8045 0.281676L77.8045 2.18409ZM92.2694 16.645L90.3669 16.645C90.3669 23.2851 84.7831 28.7894 77.8045 28.7895L77.8045 30.6919L77.8045 32.5943C86.7791 32.5943 94.1717 25.4903 94.1718 16.645L92.2694 16.645ZM77.8045 30.6919V28.7895C71.1098 28.7895 65.6562 23.3366 65.6562 16.645L63.7537 16.645L61.8513 16.645C61.8514 25.4389 69.0094 32.5943 77.8045 32.5943V30.6919ZM63.7537 16.645H65.6562C65.6562 9.66962 71.1612 4.08651 77.8045 4.08651V2.18409V0.281676C68.958 0.281676 61.8513 7.67162 61.8513 16.645H63.7537Z" fill="var(--stroke-0, #FBF3FF)" mask="url(#path-1-inside-1_251_2727)"/>
</g>
</svg>
