<svg preserveAspectRatio="xMidYMid meet" width="100%" height="100%" overflow="visible" style="display: block;" viewBox="0 0 332.08 459.41" fill="none" xmlns="http://www.w3.org/2000/svg">
<path id="Vector" d="M31.2686 457.945L31.1709 423.681C31.1704 423.489 31.0681 423.313 30.9023 423.218C30.7572 423.134 30.5831 423.124 30.4307 423.187L30.3672 423.218L23.0537 427.435C17.2105 430.801 11.7411 431.252 7.61914 428.876L7.61816 428.875L7.2373 428.646C3.35733 426.204 1.14353 421.392 1.12207 414.9L0.536133 205.599C0.517689 198.992 2.83985 191.614 6.63086 185.041C10.4219 178.468 15.653 172.751 21.3975 169.437L309.019 3.47168H309.02C314.672 0.203915 319.975 -0.315754 324.063 1.81641L324.454 2.03125C328.442 4.32743 330.779 9.00165 330.941 15.3828L330.95 16.0059L331.543 225.308C331.561 231.914 329.238 239.292 325.445 245.865C321.652 252.438 316.419 258.156 310.675 261.471L69.8545 400.435C69.7982 400.467 69.748 400.51 69.707 400.56L69.6689 400.612L32.9756 458.439L32.9746 458.44C32.8028 458.712 32.5008 458.874 32.1963 458.874C32.1207 458.874 32.0352 458.861 31.9355 458.833C31.5417 458.717 31.2688 458.357 31.2686 457.947V457.945Z" fill="url(#paint0_linear_251_2732)" stroke="var(--stroke-0, #333236)" stroke-width="1.07274" stroke-linecap="round" stroke-linejoin="round"/>
<defs>
<linearGradient id="paint0_linear_251_2732" x1="166.04" y1="159.595" x2="166.04" y2="572.365" gradientUnits="userSpaceOnUse">
<stop stop-color="white"/>
<stop offset="1" stop-color="#D0E5FF"/>
</linearGradient>
</defs>
</svg>
