<svg preserveAspectRatio="xMidYMid meet" width="100%" height="100%" overflow="visible" style="display: block;" viewBox="0 0 7.36138 11.1588" fill="none" xmlns="http://www.w3.org/2000/svg">
<g id="Union" filter="url(#filter0_d_249_2530)">
<path fill-rule="evenodd" clip-rule="evenodd" d="M5.69544 0.626445C5.77444 0.361958 5.43789 0.175797 5.25583 0.383278L0.357607 5.96538C0.211798 6.13154 0.329795 6.39207 0.550864 6.39207H2.28156C2.45366 6.39207 2.57717 6.55786 2.52791 6.72277L1.45345 10.3198C1.37445 10.5843 1.711 10.7705 1.89307 10.563L6.79128 4.9809C6.93709 4.81473 6.8191 4.55421 6.59803 4.55421H4.86733C4.69523 4.55421 4.57172 4.38841 4.62098 4.22351L5.69544 0.626445Z" fill="var(--fill-0, #CFFF48)"/>
<path fill-rule="evenodd" clip-rule="evenodd" d="M5.69544 0.626445C5.77444 0.361958 5.43789 0.175797 5.25583 0.383278L0.357607 5.96538C0.211798 6.13154 0.329795 6.39207 0.550864 6.39207H2.28156C2.45366 6.39207 2.57717 6.55786 2.52791 6.72277L1.45345 10.3198C1.37445 10.5843 1.711 10.7705 1.89307 10.563L6.79128 4.9809C6.93709 4.81473 6.8191 4.55421 6.59803 4.55421H4.86733C4.69523 4.55421 4.57172 4.38841 4.62098 4.22351L5.69544 0.626445Z" stroke="var(--stroke-0, #71AF15)" stroke-width="0.585366" stroke-linejoin="round"/>
</g>
<defs>
<filter id="filter0_d_249_2530" x="0" y="0" width="7.36138" height="11.1588" filterUnits="userSpaceOnUse" color-interpolation-filters="sRGB">
<feFlood flood-opacity="0" result="BackgroundImageFix"/>
<feColorMatrix in="SourceAlpha" type="matrix" values="0 0 0 0 0 0 0 0 0 0 0 0 0 0 0 0 0 0 127 0" result="hardAlpha"/>
<feOffset dx="0.212488" dy="0.212488"/>
<feComposite in2="hardAlpha" operator="out"/>
<feColorMatrix type="matrix" values="0 0 0 0 0.443137 0 0 0 0 0.686275 0 0 0 0 0.0823529 0 0 0 1 0"/>
<feBlend mode="normal" in2="BackgroundImageFix" result="effect1_dropShadow_249_2530"/>
<feBlend mode="normal" in="SourceGraphic" in2="effect1_dropShadow_249_2530" result="shape"/>
</filter>
</defs>
</svg>
