<svg preserveAspectRatio="xMidYMid meet" width="100%" height="100%" overflow="visible" style="display: block;" viewBox="0 0 188.798 97.6997" fill="none" xmlns="http://www.w3.org/2000/svg">
<g id="Subtract" style="mix-blend-mode:plus-darker">
<mask id="path-1-inside-1_249_2402" fill="white">
<path d="M91.3261 1.26216C93.0293 -0.420705 95.7694 -0.420736 97.4726 1.26216L187.49 90.2172C190.27 92.9642 188.325 97.6997 184.417 97.6997H4.38177C0.473818 97.6997 -1.47196 92.9642 1.30755 90.2172L91.3261 1.26216ZM97.08 42.019C95.6629 40.6288 93.3936 40.6288 91.9765 42.019L65.2363 68.2504C62.9069 70.5356 64.5249 74.4955 67.788 74.4956H121.269C124.532 74.4953 126.15 70.5355 123.821 68.2504L97.08 42.019Z"/>
</mask>
<path d="M91.3261 1.26216C93.0293 -0.420705 95.7694 -0.420736 97.4726 1.26216L187.49 90.2172C190.27 92.9642 188.325 97.6997 184.417 97.6997H4.38177C0.473818 97.6997 -1.47196 92.9642 1.30755 90.2172L91.3261 1.26216ZM97.08 42.019C95.6629 40.6288 93.3936 40.6288 91.9765 42.019L65.2363 68.2504C62.9069 70.5356 64.5249 74.4955 67.788 74.4956H121.269C124.532 74.4953 126.15 70.5355 123.821 68.2504L97.08 42.019Z" fill="var(--fill-0, #F1E6FB)"/>
<path d="M91.3261 1.26216L90.821 0.750951L90.821 0.750987L91.3261 1.26216ZM97.4726 1.26216L97.9777 0.75099L97.9777 0.750958L97.4726 1.26216ZM187.49 90.2172L186.985 90.7284V90.7284L187.49 90.2172ZM1.30755 90.2172L0.802413 89.7061L0.802387 89.7061L1.30755 90.2172ZM97.08 42.019L96.5767 42.532L96.5768 42.532L97.08 42.019ZM91.9765 42.019L92.4798 42.532H92.4798L91.9765 42.019ZM65.2363 68.2504L64.733 67.7374L64.733 67.7374L65.2363 68.2504ZM67.788 74.4956L67.788 75.2142H67.788V74.4956ZM121.269 74.4956V75.2142H121.27L121.269 74.4956ZM123.821 68.2504L124.325 67.7374L124.324 67.7374L123.821 68.2504ZM91.3261 1.26216L91.8312 1.77337C93.2545 0.367086 95.5442 0.367073 96.9675 1.77336L97.4726 1.26216L97.9777 0.750958C95.9945 -1.20854 92.8042 -1.2085 90.821 0.750951L91.3261 1.26216ZM97.4726 1.26216L96.9675 1.77333L186.985 90.7284L187.49 90.2172L187.995 89.7061L97.9777 0.75099L97.4726 1.26216ZM187.49 90.2172L186.985 90.7284C189.308 93.0239 187.683 96.981 184.417 96.981V97.6997V98.4183C188.967 98.4183 191.232 92.9045 187.995 89.7061L187.49 90.2172ZM184.417 97.6997V96.981H4.38177V97.6997V98.4183H184.417V97.6997ZM4.38177 97.6997V96.981C1.11588 96.981 -0.5098 93.0237 1.81271 90.7284L1.30755 90.2172L0.802387 89.7061C-2.43412 92.9047 -0.168248 98.4183 4.38177 98.4183V97.6997ZM1.30755 90.2172L1.81268 90.7284L91.8312 1.77334L91.3261 1.26216L90.821 0.750987L0.802413 89.7061L1.30755 90.2172ZM97.08 42.019L97.5833 41.506C95.8867 39.8416 93.1698 39.8416 91.4732 41.506L91.9765 42.019L92.4798 42.532C93.6174 41.416 95.4391 41.416 96.5767 42.532L97.08 42.019ZM91.9765 42.019L91.4732 41.506L64.733 67.7374L65.2363 68.2504L65.7395 68.7635L92.4798 42.532L91.9765 42.019ZM65.2363 68.2504L64.733 67.7374C61.9441 70.4733 63.8814 75.2141 67.788 75.2142L67.788 74.4956L67.788 73.7769C65.1685 73.7768 63.8696 70.5979 65.7395 68.7635L65.2363 68.2504ZM67.788 74.4956V75.2142H121.269V74.4956V73.7769H67.788V74.4956ZM121.269 74.4956L121.27 75.2142C125.176 75.2139 127.113 70.4733 124.325 67.7374L123.821 68.2504L123.318 68.7634C125.188 70.5978 123.889 73.7767 121.269 73.7769L121.269 74.4956ZM123.821 68.2504L124.324 67.7374L97.5833 41.506L97.08 42.019L96.5768 42.532L123.318 68.7635L123.821 68.2504Z" fill="var(--stroke-0, #ADAEB8)" mask="url(#path-1-inside-1_249_2402)"/>
</g>
</svg>
