<svg preserveAspectRatio="xMidYMid meet" width="100%" height="100%" overflow="visible" style="display: block;" viewBox="0 0 232.37 178.341" fill="none" xmlns="http://www.w3.org/2000/svg">
<g id="&#236;&#134;&#144; (&#236;&#156;&#132;)">
<g id="&#234;&#183;&#184;&#235;&#166;&#188;&#236;&#158;&#144;" opacity="0.5">
<g id="Group 1410103985">
<path id="Vector 1658" d="M198.638 127.037C198.617 127.052 198.594 127.064 198.569 127.074L195.891 128.109L195.815 128.128C195.79 128.131 195.764 128.131 195.739 128.127L192.851 127.72C192.807 127.714 192.765 127.698 192.728 127.674L180.839 120.034C180.942 120.253 181.049 120.479 181.146 120.696C181.277 120.987 181.397 121.266 181.484 121.496C181.528 121.611 181.564 121.717 181.591 121.808C181.615 121.891 181.639 121.99 181.639 122.078C181.639 122.148 181.627 122.239 181.611 122.327C181.595 122.422 181.572 122.537 181.544 122.664C181.487 122.918 181.409 123.234 181.323 123.567C181.151 124.234 180.946 124.979 180.809 125.462L180.779 125.533C180.766 125.555 180.75 125.575 180.732 125.594L179.085 127.246L179.043 127.282C179.029 127.292 179.012 127.301 178.996 127.309L176.73 128.345L176.678 128.362C176.625 128.375 176.569 128.375 176.516 128.359L172.952 127.296L173.802 129.832L173.817 129.909C173.819 129.935 173.817 129.962 173.812 129.988L173.199 133.083L173.17 133.166C173.156 133.193 173.137 133.217 173.116 133.238L171.264 135.097L171.209 135.141C171.189 135.154 171.167 135.164 171.144 135.171L169.29 135.793L169.232 135.807C169.213 135.809 169.193 135.81 169.174 135.809L166.08 135.608C166.025 135.604 165.972 135.585 165.926 135.554L162.979 133.499C163.033 133.591 163.089 133.682 163.14 133.773C163.292 134.043 163.432 134.304 163.535 134.521C163.586 134.629 163.631 134.732 163.663 134.822C163.691 134.902 163.723 135.006 163.723 135.103C163.723 135.215 163.693 135.438 163.653 135.692C163.611 135.959 163.552 136.293 163.489 136.647C163.361 137.356 163.208 138.152 163.106 138.668C163.099 138.699 163.088 138.729 163.073 138.757L162.046 140.615C162.012 140.675 161.959 140.723 161.895 140.749L158.392 142.198L158.333 142.216C158.272 142.228 158.208 142.221 158.151 142.195L153.61 140.141L153.571 140.12L136.022 128.81C136.01 128.803 135.998 128.795 135.988 128.786L129.998 123.642C129.977 123.624 129.958 123.603 129.943 123.58L126.635 118.637C126.629 118.628 126.623 118.619 126.618 118.609L121.694 109.212L104.021 99.3912L104.013 99.3878L104.013 99.3871L83.5753 87.2577L83.5587 87.2467L80.8746 85.3955C80.7416 85.3038 80.7033 85.1241 80.7875 84.9862L96.4118 59.3874C96.4963 59.249 96.6744 59.201 96.8169 59.2782L138.409 81.8266L142.206 80.8196C142.221 80.8157 142.237 80.8129 142.252 80.8113L150.087 79.9716C150.101 79.9701 150.115 79.9697 150.129 79.9701L156.521 80.1647C156.558 80.1659 156.594 80.1733 156.628 80.1873L165.089 83.6775C165.106 83.6844 165.122 83.6925 165.137 83.7023L184.751 96.2447C184.769 96.2564 184.786 96.2701 184.802 96.2854L186.661 98.1381C186.695 98.1713 186.72 98.2121 186.735 98.2567L187.15 99.4934C187.157 99.5137 187.161 99.5349 187.163 99.5562C187.202 99.8972 187.193 100.426 187.035 100.924C186.877 101.424 186.552 101.941 185.931 102.149C184.953 102.477 182.383 103.522 181.211 104.007C181.175 104.022 181.135 104.03 181.095 104.03L177.293 104.037L179.187 105.115C179.192 105.118 179.197 105.121 179.203 105.125C182.437 107.25 187.301 110.448 191.375 113.135C193.412 114.478 195.252 115.694 196.594 116.585C197.264 117.03 197.811 117.394 198.195 117.652C198.387 117.781 198.539 117.883 198.646 117.957C198.7 117.994 198.743 118.024 198.775 118.047C198.79 118.058 198.805 118.068 198.816 118.077C198.822 118.081 198.845 118.098 198.865 118.118C198.962 118.215 199.303 118.628 199.671 119.079C200.047 119.539 200.471 120.065 200.747 120.409L200.776 120.451C200.801 120.496 200.815 120.547 200.815 120.598L200.822 124.311L200.817 124.363C200.808 124.415 200.786 124.464 200.751 124.506L198.694 126.984L198.638 127.037Z" fill="var(--fill-0, black)" stroke="var(--stroke-0, black)" stroke-width="0.609027" stroke-linecap="round" stroke-linejoin="round"/>
<g id="Vector">
</g>
<g id="Vector_2">
</g>
<g id="Vector_3">
</g>
<g id="Vector_4">
</g>
</g>
<path id="Vector_5" d="M2.49746 41.9663L21.8877 9.48558C23.065 7.51348 23.6536 6.52743 24.632 6.28052C25.6104 6.03361 26.5965 6.62226 28.5686 7.79956L132.566 69.8838C134.538 71.0611 135.524 71.6498 135.771 72.6282C136.018 73.6066 135.43 74.5926 134.252 76.5647L114.862 109.045C113.685 111.018 113.096 112.004 112.118 112.25C111.139 112.497 110.153 111.909 108.181 110.731L4.18349 48.6472C2.21139 47.4699 1.22534 46.8812 0.978423 45.9028C0.73151 44.9244 1.32016 43.9384 2.49746 41.9663Z" fill="var(--fill-0, black)"/>
</g>
<g id="Group 1410103987">
<g id="Rectangle 34624881" filter="url(#filter0_d_249_2408)">
<rect x="167.653" y="113.709" width="46.0774" height="46.0774" rx="4.26319" transform="rotate(-56.1543 167.653 113.709)" fill="var(--fill-0, #F8ECFF)"/>
<rect x="168.075" y="113.626" width="45.4684" height="45.4684" rx="3.95867" transform="rotate(-56.1543 168.075 113.626)" stroke="var(--stroke-0, black)" stroke-width="0.609027"/>
</g>
<path id="Union" d="M204.128 104.579C204.273 104.351 204.375 104.321 204.61 104.481C206.066 105.474 207.534 106.449 208.997 107.43L212.778 109.965C213.26 110.289 213.723 110.638 214.107 111.078C215.156 112.284 215.408 113.633 214.802 115.093C214.146 116.677 213.111 117.898 211.375 118.376C210.802 118.534 210.216 118.546 209.625 118.486C209.453 118.469 209.402 118.412 209.41 118.24C209.451 117.424 209.482 116.607 209.51 115.791C209.515 115.645 209.564 115.608 209.707 115.619C209.95 115.64 210.195 115.643 210.439 115.639C211.239 115.628 211.769 115.213 212.09 114.515C212.388 113.865 212.221 113.307 211.588 112.791C211.399 112.636 211.193 112.501 210.989 112.364C208.313 110.568 205.638 108.769 202.955 106.983C202.701 106.815 202.693 106.707 202.858 106.474C203.298 105.854 203.721 105.221 204.128 104.579ZM207.578 99.286C207.886 98.5951 208.328 97.9924 208.872 97.4635C209.791 96.5692 210.914 96.2427 212.181 96.2972C212.368 96.305 212.396 96.3748 212.392 96.5378C212.373 97.2775 212.357 98.0182 212.362 98.7587C212.363 99.0065 212.313 99.0877 212.039 99.0779C211.031 99.0399 210.347 99.4763 210.022 100.322C209.848 100.778 209.874 101.22 210.204 101.601C210.545 101.994 210.979 102.202 211.511 102.097C212.089 101.983 212.564 101.653 213.048 101.347C214.017 100.735 214.977 100.115 216.066 99.7091C218.529 98.7921 221.158 100.675 221.582 102.616C221.86 103.891 221.546 105.046 220.948 106.15C220.834 106.362 220.681 106.554 220.546 106.755L220.545 106.754C219.592 108.184 218.332 109.19 216.583 109.491C216.133 109.568 215.679 109.57 215.223 109.544C215.041 109.533 215.01 109.465 215.021 109.301C215.074 108.53 215.124 107.758 215.155 106.987C215.164 106.759 215.232 106.698 215.461 106.705C216.409 106.735 217.266 106.492 217.931 105.787C218.344 105.35 218.673 104.855 218.779 104.245C218.873 103.711 218.779 103.229 218.338 102.861C217.894 102.492 217.396 102.427 216.868 102.632C216.099 102.929 215.441 103.418 214.752 103.851C213.985 104.334 213.208 104.8 212.31 105.01C210.575 105.416 209.134 104.839 208.013 103.522C206.915 102.231 206.917 100.768 207.578 99.286Z" fill="var(--fill-0, #B363FD)"/>
</g>
<g id="Group 1410103985_2">
<path id="Vector 1658_2" d="M86.3301 79.8437L89.0143 81.6946L109.452 93.8241L127.204 103.689L132.171 113.166L135.48 118.109L141.469 123.253L159.019 134.563L163.559 136.616L167.062 135.166L168.09 133.308C168.294 132.277 168.702 130.132 168.702 129.802C168.701 129.472 167.736 127.879 167.253 127.124L171.383 130.003L174.476 130.203L176.331 129.581L178.184 127.722L178.797 124.628L177.76 121.536L181.886 122.766L184.153 121.731L185.799 120.078C186.073 119.115 186.619 117.107 186.618 116.777C186.618 116.447 185.79 114.716 185.376 113.892L198.176 122.117L201.064 122.524L203.743 121.488L205.8 119.01L205.793 115.298C205.242 114.612 204.098 113.198 203.933 113.033C203.768 112.868 190.788 104.328 184.319 100.078L181.429 98.4337L186.378 98.4242C187.545 97.9408 190.128 96.8912 191.117 96.5595C192.106 96.2277 192.214 94.9077 192.144 94.2892L191.729 93.0527L189.87 91.2002L170.256 78.6575L161.795 75.1676L155.402 74.9732L147.568 75.8126L143.651 76.8509L101.954 54.2447L86.3301 79.8437Z" fill="var(--fill-0, #FFB288)"/>
<path id="Vector_6" d="M160.337 135.368C160.926 135.746 161.583 136.003 162.272 136.127C162.96 136.25 163.667 136.236 164.35 136.087C165.033 135.937 165.68 135.654 166.254 135.255C166.828 134.855 167.318 134.346 167.695 133.757C168.073 133.168 168.33 132.511 168.454 131.822C168.577 131.133 168.563 130.427 168.414 129.744C168.264 129.061 167.981 128.414 167.582 127.84C167.182 127.266 166.673 126.776 166.084 126.399" stroke="var(--stroke-0, black)" stroke-width="0.791735" stroke-miterlimit="10" stroke-linecap="round"/>
<path id="Vector_7" d="M160.335 135.368L142.453 123.855" stroke="var(--stroke-0, black)" stroke-width="0.791735" stroke-miterlimit="10" stroke-linecap="round"/>
<path id="Vector_8" d="M158.265 121.386L170.561 129.303C171.149 129.681 171.804 129.939 172.492 130.063C173.179 130.188 173.884 130.175 174.566 130.027C175.248 129.879 175.895 129.598 176.469 129.2C177.042 128.802 177.532 128.295 177.91 127.708C178.287 127.12 178.546 126.464 178.67 125.777C178.794 125.09 178.782 124.385 178.634 123.703C178.486 123.021 178.205 122.374 177.807 121.8C177.409 121.227 176.901 120.737 176.314 120.359" stroke="var(--stroke-0, black)" stroke-width="0.791735" stroke-miterlimit="10" stroke-linecap="round"/>
<path id="Vector_9" d="M166.257 113.891L178.552 121.801C179.736 122.521 181.155 122.75 182.507 122.44C183.858 122.129 185.034 121.302 185.784 120.137C186.535 118.971 186.8 117.558 186.524 116.199C186.248 114.841 185.452 113.644 184.306 112.863M169.948 90.9711L203.477 112.559C204.662 113.322 205.495 114.526 205.793 115.904C205.941 116.587 205.953 117.292 205.828 117.979C205.703 118.666 205.444 119.321 205.066 119.908C204.688 120.495 204.197 121.002 203.623 121.399C203.049 121.797 202.402 122.077 201.72 122.225C200.342 122.523 198.901 122.261 197.716 121.497L172.016 104.945M178.922 96.7378C180.78 97.9355 182.965 98.5244 185.173 98.4225C187.381 98.3207 189.503 97.5332 191.242 96.1695C191.568 95.9036 191.825 95.5644 191.994 95.1798C192.163 94.7952 192.238 94.376 192.213 93.9567C192.189 93.5374 192.065 93.1298 191.853 92.7675C191.64 92.4051 191.345 92.0982 190.991 91.872L171.236 79.1526C167.767 76.9162 163.825 75.5195 159.722 75.0734C155.619 74.6273 147.681 75.4073 143.813 76.846L102.108 54.015L86.3407 79.9899L127.273 103.944C129.504 109.438 135.145 119.149 142.454 123.856" stroke="var(--stroke-0, black)" stroke-width="0.791735" stroke-miterlimit="10" stroke-linecap="round"/>
</g>
<path id="Vector_10" d="M28.7567 2.29481L6.86922 38.9587C6.29175 39.9262 6.60855 41.179 7.57601 41.7566L115.757 106.338C116.724 106.915 117.977 106.6 118.555 105.632L140.442 68.9686C141.02 68.0011 140.704 66.7475 139.736 66.1699L31.5554 1.58852C30.5879 1.01094 29.3343 1.32731 28.7567 2.29481Z" fill="var(--fill-0, #B363FD)" stroke="var(--stroke-0, black)" stroke-width="0.791735"/>
</g>
<defs>
<filter id="filter0_d_249_2408" x="169.304" y="77.0913" width="63.0654" height="63.0654" filterUnits="userSpaceOnUse" color-interpolation-filters="sRGB">
<feFlood flood-opacity="0" result="BackgroundImageFix"/>
<feColorMatrix in="SourceAlpha" type="matrix" values="0 0 0 0 0 0 0 0 0 0 0 0 0 0 0 0 0 0 127 0" result="hardAlpha"/>
<feOffset dx="2.43611" dy="2.43611"/>
<feComposite in2="hardAlpha" operator="out"/>
<feColorMatrix type="matrix" values="0 0 0 0 0 0 0 0 0 0 0 0 0 0 0 0 0 0 1 0"/>
<feBlend mode="normal" in2="BackgroundImageFix" result="effect1_dropShadow_249_2408"/>
<feBlend mode="normal" in="SourceGraphic" in2="effect1_dropShadow_249_2408" result="shape"/>
</filter>
</defs>
</svg>
