<svg preserveAspectRatio="xMidYMid meet" width="100%" height="100%" overflow="visible" style="display: block;" viewBox="0 0 93.6517 88.3097" fill="none" xmlns="http://www.w3.org/2000/svg">
<g id="&#234;&#183;&#184;&#235;&#158;&#152;&#237;&#148;&#132;">
<g id="Group 427319690">
<path id="Rectangle 34624814" d="M0.000424261 51.2086C0.000424261 49.5561 1.33999 48.2166 2.99243 48.2166H11.9684C13.6209 48.2166 14.9604 49.5561 14.9604 51.2086V87.711H0.000424261V51.2086Z" fill="var(--fill-0, #DDDEE4)"/>
<path id="Rectangle 34624817" d="M75.3981 54.7997C75.3981 53.1472 76.7377 51.8077 78.3901 51.8077H87.3661C89.0186 51.8077 90.3581 53.1472 90.3581 54.7997V87.7117H75.3981V54.7997Z" fill="var(--fill-0, #DDDEE4)"/>
<path id="Rectangle 34624815" d="M25.1337 30.2648C25.1337 28.6123 26.4733 27.2728 28.1257 27.2728H37.1018C38.7542 27.2728 40.0938 28.6123 40.0938 30.2648V87.7112H25.1337V30.2648Z" fill="url(#paint0_linear_249_2474)"/>
<path id="Rectangle 34624816" d="M50.2666 65.5707C50.2666 63.9182 51.6062 62.5787 53.2586 62.5787H62.2346C63.8871 62.5787 65.2266 63.9182 65.2266 65.5707V87.7115H50.2666V65.5707Z" fill="var(--fill-0, #DDDEE4)"/>
</g>
<path id="Vector 919" d="M0.00111709 87.7113C0.893547 87.7113 60.612 87.7113 90.3596 87.7113" stroke="var(--stroke-0, #DDDEE4)" stroke-width="1.1968"/>
<path id="Vector 920" d="M2.33603 31.4948C1.99872 31.8581 2.01977 32.426 2.38304 32.7634C2.74632 33.1007 3.31426 33.0796 3.65157 32.7163L2.9938 32.1056L2.33603 31.4948ZM31.9715 0.897603L32.6902 0.359948C32.5308 0.146776 32.2849 0.0153835 32.0191 0.00126516C31.7532 -0.0128533 31.4948 0.0917593 31.3137 0.286843L31.9715 0.897603ZM65.5432 45.7777L64.8244 46.3153C65.1068 46.6928 65.6331 46.7875 66.0294 46.5322L65.5432 45.7777ZM93.6312 28.4314C93.736 27.9469 93.4281 27.4692 92.9436 27.3644L85.0476 25.6572C84.5631 25.5524 84.0854 25.8603 83.9806 26.3448C83.8759 26.8294 84.1837 27.3071 84.6683 27.4119L91.6869 28.9294L90.1694 35.948C90.0646 36.4325 90.3725 36.9103 90.857 37.015C91.3415 37.1198 91.8193 36.8119 91.924 36.3274L93.6312 28.4314ZM2.9938 32.1056L3.65157 32.7163L32.6292 1.50836L31.9715 0.897603L31.3137 0.286843L2.33603 31.4948L2.9938 32.1056ZM31.9715 0.897603L31.2527 1.43526L64.8244 46.3153L65.5432 45.7777L66.2619 45.24L32.6902 0.359948L31.9715 0.897603ZM65.5432 45.7777L66.0294 46.5322L93.2401 28.9962L92.7539 28.2417L92.2677 27.4872L65.0569 45.0232L65.5432 45.7777Z" fill="var(--stroke-0, #DDDEE4)"/>
</g>
<defs>
<linearGradient id="paint0_linear_249_2474" x1="32.6137" y1="7.29204" x2="32.6137" y2="59.9729" gradientUnits="userSpaceOnUse">
<stop stop-color="#E1C3FF"/>
<stop offset="1" stop-color="#DDDEE4"/>
</linearGradient>
</defs>
</svg>
