<svg preserveAspectRatio="xMidYMid meet" width="100%" height="100%" overflow="visible" style="display: block;" viewBox="0 0 188.798 97.6999" fill="none" xmlns="http://www.w3.org/2000/svg">
<g id="Subtract" style="mix-blend-mode:plus-darker">
<mask id="path-1-inside-1_253_3059" fill="white">
<path d="M91.3259 1.26237C93.0292 -0.420789 95.7691 -0.420791 97.4724 1.26237L187.49 90.2174C190.27 92.9644 188.325 97.6999 184.417 97.6999H4.38159C0.473752 97.6999 -1.47179 92.9644 1.30737 90.2174L91.3259 1.26237ZM97.0798 42.0182C95.6627 40.6282 93.3934 40.6281 91.9763 42.0182L65.2361 68.2507C62.907 70.5358 64.5248 74.4948 67.7878 74.4948H121.269C124.532 74.4945 126.15 70.5358 123.821 68.2507L97.0798 42.0182Z"/>
</mask>
<path d="M91.3259 1.26237C93.0292 -0.420789 95.7691 -0.420791 97.4724 1.26237L187.49 90.2174C190.27 92.9644 188.325 97.6999 184.417 97.6999H4.38159C0.473752 97.6999 -1.47179 92.9644 1.30737 90.2174L91.3259 1.26237ZM97.0798 42.0182C95.6627 40.6282 93.3934 40.6281 91.9763 42.0182L65.2361 68.2507C62.907 70.5358 64.5248 74.4948 67.7878 74.4948H121.269C124.532 74.4945 126.15 70.5358 123.821 68.2507L97.0798 42.0182Z" fill="var(--fill-0, #F1E6FB)"/>
<path d="M91.3259 1.26237L91.8311 1.77354V1.77354L91.3259 1.26237ZM97.4724 1.26237L97.9775 0.751199V0.751198L97.4724 1.26237ZM187.49 90.2174L187.995 89.7063V89.7063L187.49 90.2174ZM1.30737 90.2174L0.802239 89.7063L0.802177 89.7063L1.30737 90.2174ZM97.0798 42.0182L97.5831 41.5052L97.5831 41.5052L97.0798 42.0182ZM91.9763 42.0182L91.4731 41.5052V41.5052L91.9763 42.0182ZM65.2361 68.2507L64.7328 67.7376L64.7328 67.7377L65.2361 68.2507ZM67.7878 74.4948L67.7878 75.2134H67.7878V74.4948ZM121.269 74.4948V75.2134H121.269L121.269 74.4948ZM123.821 68.2507L124.324 67.7377L124.324 67.7376L123.821 68.2507ZM91.3259 1.26237L91.8311 1.77354C93.2544 0.367022 95.5439 0.367021 96.9673 1.77354L97.4724 1.26237L97.9775 0.751198C95.9943 -1.2086 92.804 -1.2086 90.8208 0.751197L91.3259 1.26237ZM97.4724 1.26237L96.9673 1.77354L186.985 90.7286L187.49 90.2174L187.995 89.7063L97.9775 0.751199L97.4724 1.26237ZM187.49 90.2174L186.985 90.7286C189.308 93.0241 187.682 96.9812 184.417 96.9812V97.6999V98.4185C188.967 98.4185 191.232 92.9047 187.995 89.7063L187.49 90.2174ZM184.417 97.6999V96.9812H4.38159V97.6999V98.4185H184.417V97.6999ZM4.38159 97.6999V96.9812C1.11592 96.9812 -0.509735 93.024 1.81257 90.7286L1.30737 90.2174L0.802177 89.7063C-2.43385 92.9049 -0.168414 98.4185 4.38159 98.4185V97.6999ZM1.30737 90.2174L1.81251 90.7286L91.8311 1.77354L91.3259 1.26237L90.8208 0.751196L0.802239 89.7063L1.30737 90.2174ZM97.0798 42.0182L97.5831 41.5052C95.8865 39.8411 93.1696 39.8409 91.4731 41.5052L91.9763 42.0182L92.4796 42.5312C93.6171 41.4153 95.4389 41.4154 96.5766 42.5313L97.0798 42.0182ZM91.9763 42.0182L91.4731 41.5052L64.7328 67.7376L65.2361 68.2507L65.7393 68.7637L92.4796 42.5312L91.9763 42.0182ZM65.2361 68.2507L64.7328 67.7377C61.9443 70.4736 63.8813 75.2134 67.7878 75.2134L67.7878 74.4948L67.7878 73.7761C65.1683 73.7761 63.8697 70.5981 65.7394 68.7636L65.2361 68.2507ZM67.7878 74.4948V75.2134H121.269V74.4948V73.7761H67.7878V74.4948ZM121.269 74.4948L121.269 75.2134C125.176 75.2131 127.113 70.4736 124.324 67.7377L123.821 68.2507L123.318 68.7636C125.187 70.598 123.889 73.7759 121.269 73.7761L121.269 74.4948ZM123.821 68.2507L124.324 67.7376L97.5831 41.5052L97.0798 42.0182L96.5766 42.5312L123.318 68.7637L123.821 68.2507Z" fill="var(--stroke-0, #ADAEB8)" mask="url(#path-1-inside-1_253_3059)"/>
</g>
</svg>
