<svg preserveAspectRatio="xMidYMid meet" width="100%" height="100%" overflow="visible" style="display: block;" viewBox="0 0 186.907 219.527" fill="none" xmlns="http://www.w3.org/2000/svg">
<g id="&#236;&#134;&#144; (&#236;&#149;&#132;&#235;&#158;&#152;)">
<path id="Vector" d="M58.326 20.3652L21.9754 4.74552C20.5648 4.13218 18.9292 4.80687 18.3158 6.1971L2.69615 42.5476C2.08281 43.9583 2.7575 45.5939 4.14773 46.2072L40.4983 61.8269C41.9089 62.4402 43.5445 61.7656 44.1578 60.3753L45.9365 56.2251C45.4254 55.9593 45.037 55.7753 44.8325 55.6935C38.4538 52.7495 38.4333 53.1584 33.7106 49.969C32.9337 49.4579 30.2964 45.6961 31.564 42.609C32.5658 40.1556 36.1436 39.2356 38.372 39.9921C39.8645 40.5032 44.9552 43.1405 50.4548 45.7166L54.3188 36.7209L58.9189 26.0079L59.7775 24.0043C60.3909 22.5937 59.7162 20.9581 58.326 20.3448V20.3652Z" fill="var(--fill-0, black)"/>
<path id="Vector_2" d="M44.2947 60.0201C43.6813 61.4104 42.0458 62.085 40.6351 61.4717L30.602 57.1605L46.6991 14.9552L58.4628 20.01V19.9896C59.853 20.6029 60.5277 22.2385 59.9143 23.6492L59.0557 25.6527L54.4556 36.3657L50.5916 45.3614L46.0734 55.8699L44.2947 60.0201Z" fill="var(--fill-0, black)"/>
<path id="Vector_3" opacity="0.5" d="M101.987 87.8784L95.6444 91.5894C95.0066 88.5533 94.8366 86.2274 94.6068 84.2987C93.3305 73.2912 91.4309 57.1073 83.9117 46.1806C79.348 39.5603 73.2064 35.4556 66.3607 32.0647L51.1215 30.2521L46.467 42.4559L50.4964 43.9927C51.0087 42.6495 51.521 41.3062 52.481 40.1338C60.3665 44.0858 67.0211 47.7308 67.0211 47.7308C67.0211 47.7308 62.2066 50.1336 60.1709 50.704C58.6751 51.1336 53.7795 50.6832 47.8118 47.4233C45.0139 45.8965 42.2704 44.3022 39.9483 42.9912C37.4054 41.5396 35.4103 40.3988 34.5691 40.0376C32.4153 39.1402 28.765 39.8035 27.6051 42.1914C26.1411 45.1882 28.5195 49.1048 29.2586 49.6621C33.7718 53.162 33.8293 52.7445 39.9932 56.1065C40.868 56.5874 45.2236 59.0145 49.3398 63.2156C50.7967 64.7027 52.2147 66.3997 53.4514 68.322C55.9519 72.2254 53.1123 81.4995 58.1837 88.2498C64.2878 96.3687 68.4411 95.0339 72.4936 99.4064C73.8692 100.902 74.5564 102.308 74.9887 103.639L63.2972 110.474C62.2175 111.106 61.902 112.521 62.6116 113.551L118.025 193.975L148.499 185.08L136.527 133.486L101.983 87.8377L101.987 87.8784Z" fill="var(--fill-0, black)"/>
<path id="Vector_4" d="M16.2857 2.32378C16.9857 0.737006 18.8546 -0.0399872 20.4751 0.664597L20.4742 0.665573L56.2613 16.0416V16.0152L56.8277 16.2652C58.4134 16.9651 59.1888 18.8318 58.4859 20.4517L57.6285 22.4556L57.6275 22.4566L53.0279 33.1695L49.1636 42.1646L48.9996 42.5474L48.6226 42.3707C45.8693 41.081 43.2174 39.7762 41.0728 38.732C38.9124 37.6801 37.2958 36.9079 36.5796 36.6626V36.6617C35.5637 36.3173 34.2046 36.3498 32.9761 36.7681C31.7475 37.1866 30.7186 37.9666 30.2759 39.0503V39.0513C29.7017 40.4497 30.0007 42.0382 30.5796 43.3843C30.8664 44.051 31.2144 44.6411 31.5357 45.0923C31.7846 45.4418 32.002 45.6861 32.149 45.8218L32.271 45.9214L32.2749 45.9244C36.9571 49.0863 36.9337 48.6609 43.3208 51.608L43.521 51.6939C43.7529 51.7981 44.0763 51.9565 44.4615 52.1568L44.7935 52.3287L44.646 52.6734L42.8667 56.8238L42.8648 56.8277C42.1647 58.4137 40.2974 59.1895 38.6773 58.4859L2.32671 42.8667L2.32378 42.8648C0.737134 42.1648 -0.0397011 40.2968 0.664597 38.6763L16.2837 2.32671L16.2857 2.32378Z" fill="var(--fill-0, #CFB1FF)" stroke="var(--stroke-0, black)" stroke-width="0.806485"/>
<g id="Group 208">
<path id="Vector_5" d="M31.0301 26.9161C31.7832 27.2488 32.3724 27.8677 32.6693 28.6361C32.9663 29.4045 32.9462 30.2593 32.6133 31.0134C32.3651 31.5758 31.956 32.0526 31.4375 32.3826C30.9191 32.7125 30.3148 32.8816 29.7009 32.8679C29.0868 32.8541 28.4909 32.6579 27.9884 32.3048C27.4859 31.9518 27.0992 31.4576 26.8777 30.8845C26.6562 30.3114 26.6096 29.6851 26.7436 29.0851C26.8776 28.4852 27.1866 27.9384 27.6308 27.5137C28.0751 27.089 28.6356 26.8055 29.2406 26.6991C29.8456 26.5929 30.4685 26.6681 31.0301 26.9161Z" fill="var(--fill-0, #760DDE)" stroke="var(--stroke-0, #760DDE)" stroke-width="0.609027"/>
<g id="Union">
<mask id="path-6-outside-1_249_2495" maskUnits="userSpaceOnUse" x="8.48975" y="9.41729" width="42.3068" height="40.7745" fill="black">
<rect fill="white" x="8.48975" y="9.41729" width="42.3068" height="40.7745"/>
<path fill-rule="evenodd" clip-rule="evenodd" d="M23.6426 21.3618C24.3615 17.2619 25.9706 14.4613 28.1052 14.2287C30.2395 13.9962 32.4061 16.3857 33.9789 20.2362C37.8842 18.8052 41.1098 18.7967 42.3754 20.5309C43.6411 22.2653 42.6551 25.3413 40.1091 28.6345C43.2953 31.3033 44.9117 34.0955 44.0431 36.0622C43.1746 38.0288 40.022 38.715 35.9033 38.1577C35.1846 42.257 33.5759 45.0571 31.4412 45.29C29.3064 45.523 27.1399 43.1332 25.5672 39.2826C21.662 40.7136 18.4368 40.722 17.1707 38.9879C15.9048 37.254 16.8909 34.1784 19.4362 30.8857C16.2497 28.217 14.6332 25.4246 15.5019 23.4576C16.3707 21.4903 19.5234 20.8041 23.6426 21.3618ZM23.4519 22.6464C22.7641 22.5545 22.0993 22.4987 21.4638 22.4808C18.9222 22.4109 17.1379 22.9711 16.6912 23.9828C16.2444 24.9944 17.0304 26.6904 18.7958 28.5219C19.2371 28.9795 19.726 29.4332 20.2571 29.8796C21.119 28.8755 22.1166 27.862 23.231 26.87C23.2135 25.3788 23.2905 23.9593 23.4519 22.6464ZM24.5323 25.7653C24.5526 24.7564 24.6194 23.7813 24.7319 22.8541C25.6483 23.0279 26.5963 23.2599 27.5624 23.5465C27.0479 23.886 26.5332 24.2437 26.0205 24.6191C25.5078 24.9946 25.0113 25.3773 24.5323 25.7653ZM23.2911 28.5758C22.5586 29.2709 21.8826 29.9775 21.2727 30.6857C22.0189 31.2462 22.8293 31.7909 23.6924 32.3121C23.5967 31.7027 23.5143 31.0807 23.4464 30.4483C23.3785 29.8162 23.3269 29.1914 23.2911 28.5758ZM25.1521 33.1441C24.9805 32.2242 24.8414 31.2754 24.7376 30.3073C24.6338 29.3398 24.5684 28.3834 24.5408 27.4484C25.2504 26.839 26.0012 26.2433 26.7861 25.6684C27.5711 25.0935 28.3656 24.5575 29.1607 24.065C30.0421 24.3751 30.9321 24.7276 31.8212 25.1203C32.7105 25.513 33.571 25.9336 34.3943 26.3764C34.5657 27.2957 34.7047 28.2438 34.8084 29.2112C34.9121 30.1788 34.9775 31.1353 35.0051 32.0707C34.2955 32.68 33.5448 33.2756 32.76 33.8504C31.9746 34.4256 31.1797 34.9618 30.3842 35.4546C29.5028 35.1446 28.6126 34.7919 27.7233 34.3992C26.8345 34.0067 25.9747 33.5865 25.1521 33.1441ZM23.9959 33.9911C22.6967 33.2621 21.507 32.487 20.4518 31.6918C20.028 32.242 19.6469 32.7904 19.3132 33.3321C17.9771 35.5013 17.5688 37.3291 18.2195 38.2206C18.8702 39.1121 20.7322 39.2777 23.2019 38.6586C23.8187 38.5044 24.4561 38.307 25.1084 38.0692C24.672 36.8215 24.2954 35.4515 23.9959 33.9911ZM26.3146 37.5909C26.0077 36.7093 25.7353 35.7711 25.5012 34.7898C26.0513 35.0656 26.6175 35.3326 27.1979 35.5889C27.7789 35.8455 28.3579 36.0842 28.9328 36.3052C28.0499 36.7932 27.173 37.2239 26.3146 37.5909ZM26.7735 38.8042C27.0372 39.4465 27.3206 40.0507 27.6221 40.6105C28.829 42.8508 30.2039 44.1179 31.3019 43.998C32.3998 43.8781 33.4755 42.3457 34.1778 39.8966C34.3535 39.285 34.5021 38.634 34.6233 37.9501C33.325 37.7059 31.9508 37.3487 30.537 36.8797C29.2558 37.6419 27.9896 38.2864 26.7735 38.8042ZM36.094 36.8734C36.7813 36.9652 37.4457 37.0208 38.0808 37.0387L38.081 37.0382C40.6239 37.1093 42.4066 36.5484 42.8534 35.5367C43.3001 34.5251 42.5142 32.8291 40.7487 30.9976C40.3081 30.5402 39.8195 30.0866 39.2885 29.6403C38.4267 30.6441 37.4292 31.6574 36.3149 32.6492C36.3324 34.1407 36.2554 35.5604 36.094 36.8734ZM35.0136 33.7538C34.9933 34.763 34.9265 35.7383 34.8139 36.6658C33.8972 36.4919 32.9489 36.2598 31.9824 35.9731C32.4973 35.6334 33.0124 35.2754 33.5256 34.8997C34.0383 34.5243 34.5347 34.1417 35.0136 33.7538ZM36.2549 30.9432C36.9871 30.2483 37.6629 29.542 38.2726 28.8339C37.5268 28.2738 36.7167 27.7293 35.8539 27.2083C35.9495 27.8171 36.0318 28.4384 36.0996 29.0702C36.1675 29.7024 36.219 30.3275 36.2549 30.9432ZM35.5506 25.5295C36.8492 26.2583 38.0385 27.0332 39.0932 27.8281C39.5172 27.2777 39.8984 26.7291 40.2322 26.187C41.5687 24.0181 41.977 22.1903 41.3263 21.2987C40.6757 20.4072 38.8136 20.2416 36.3439 20.8608C35.7273 21.015 35.09 21.2124 34.4379 21.4501C34.8744 22.6981 35.251 24.0686 35.5506 25.5295ZM32.7725 20.7146C31.556 21.2326 30.2894 21.8773 29.0078 22.6399C27.5944 22.1708 26.2205 21.8137 24.9225 21.5695C25.0437 20.8854 25.1923 20.2342 25.3679 19.6224C26.0713 17.1738 27.1461 15.6404 28.2438 15.521C29.3416 15.4017 30.717 16.6677 31.9242 18.9088C32.2256 19.4685 32.509 20.0725 32.7725 20.7146ZM33.2316 21.9283C33.5387 22.8104 33.8112 23.749 34.0453 24.7307C33.4946 24.4545 32.9278 24.1872 32.3466 23.9306C31.7658 23.6741 31.1869 23.4354 30.6122 23.2144C31.4956 22.7263 32.3729 22.2955 33.2316 21.9283Z"/>
</mask>
<path fill-rule="evenodd" clip-rule="evenodd" d="M23.6426 21.3618C24.3615 17.2619 25.9706 14.4613 28.1052 14.2287C30.2395 13.9962 32.4061 16.3857 33.9789 20.2362C37.8842 18.8052 41.1098 18.7967 42.3754 20.5309C43.6411 22.2653 42.6551 25.3413 40.1091 28.6345C43.2953 31.3033 44.9117 34.0955 44.0431 36.0622C43.1746 38.0288 40.022 38.715 35.9033 38.1577C35.1846 42.257 33.5759 45.0571 31.4412 45.29C29.3064 45.523 27.1399 43.1332 25.5672 39.2826C21.662 40.7136 18.4368 40.722 17.1707 38.9879C15.9048 37.254 16.8909 34.1784 19.4362 30.8857C16.2497 28.217 14.6332 25.4246 15.5019 23.4576C16.3707 21.4903 19.5234 20.8041 23.6426 21.3618ZM23.4519 22.6464C22.7641 22.5545 22.0993 22.4987 21.4638 22.4808C18.9222 22.4109 17.1379 22.9711 16.6912 23.9828C16.2444 24.9944 17.0304 26.6904 18.7958 28.5219C19.2371 28.9795 19.726 29.4332 20.2571 29.8796C21.119 28.8755 22.1166 27.862 23.231 26.87C23.2135 25.3788 23.2905 23.9593 23.4519 22.6464ZM24.5323 25.7653C24.5526 24.7564 24.6194 23.7813 24.7319 22.8541C25.6483 23.0279 26.5963 23.2599 27.5624 23.5465C27.0479 23.886 26.5332 24.2437 26.0205 24.6191C25.5078 24.9946 25.0113 25.3773 24.5323 25.7653ZM23.2911 28.5758C22.5586 29.2709 21.8826 29.9775 21.2727 30.6857C22.0189 31.2462 22.8293 31.7909 23.6924 32.3121C23.5967 31.7027 23.5143 31.0807 23.4464 30.4483C23.3785 29.8162 23.3269 29.1914 23.2911 28.5758ZM25.1521 33.1441C24.9805 32.2242 24.8414 31.2754 24.7376 30.3073C24.6338 29.3398 24.5684 28.3834 24.5408 27.4484C25.2504 26.839 26.0012 26.2433 26.7861 25.6684C27.5711 25.0935 28.3656 24.5575 29.1607 24.065C30.0421 24.3751 30.9321 24.7276 31.8212 25.1203C32.7105 25.513 33.571 25.9336 34.3943 26.3764C34.5657 27.2957 34.7047 28.2438 34.8084 29.2112C34.9121 30.1788 34.9775 31.1353 35.0051 32.0707C34.2955 32.68 33.5448 33.2756 32.76 33.8504C31.9746 34.4256 31.1797 34.9618 30.3842 35.4546C29.5028 35.1446 28.6126 34.7919 27.7233 34.3992C26.8345 34.0067 25.9747 33.5865 25.1521 33.1441ZM23.9959 33.9911C22.6967 33.2621 21.507 32.487 20.4518 31.6918C20.028 32.242 19.6469 32.7904 19.3132 33.3321C17.9771 35.5013 17.5688 37.3291 18.2195 38.2206C18.8702 39.1121 20.7322 39.2777 23.2019 38.6586C23.8187 38.5044 24.4561 38.307 25.1084 38.0692C24.672 36.8215 24.2954 35.4515 23.9959 33.9911ZM26.3146 37.5909C26.0077 36.7093 25.7353 35.7711 25.5012 34.7898C26.0513 35.0656 26.6175 35.3326 27.1979 35.5889C27.7789 35.8455 28.3579 36.0842 28.9328 36.3052C28.0499 36.7932 27.173 37.2239 26.3146 37.5909ZM26.7735 38.8042C27.0372 39.4465 27.3206 40.0507 27.6221 40.6105C28.829 42.8508 30.2039 44.1179 31.3019 43.998C32.3998 43.8781 33.4755 42.3457 34.1778 39.8966C34.3535 39.285 34.5021 38.634 34.6233 37.9501C33.325 37.7059 31.9508 37.3487 30.537 36.8797C29.2558 37.6419 27.9896 38.2864 26.7735 38.8042ZM36.094 36.8734C36.7813 36.9652 37.4457 37.0208 38.0808 37.0387L38.081 37.0382C40.6239 37.1093 42.4066 36.5484 42.8534 35.5367C43.3001 34.5251 42.5142 32.8291 40.7487 30.9976C40.3081 30.5402 39.8195 30.0866 39.2885 29.6403C38.4267 30.6441 37.4292 31.6574 36.3149 32.6492C36.3324 34.1407 36.2554 35.5604 36.094 36.8734ZM35.0136 33.7538C34.9933 34.763 34.9265 35.7383 34.8139 36.6658C33.8972 36.4919 32.9489 36.2598 31.9824 35.9731C32.4973 35.6334 33.0124 35.2754 33.5256 34.8997C34.0383 34.5243 34.5347 34.1417 35.0136 33.7538ZM36.2549 30.9432C36.9871 30.2483 37.6629 29.542 38.2726 28.8339C37.5268 28.2738 36.7167 27.7293 35.8539 27.2083C35.9495 27.8171 36.0318 28.4384 36.0996 29.0702C36.1675 29.7024 36.219 30.3275 36.2549 30.9432ZM35.5506 25.5295C36.8492 26.2583 38.0385 27.0332 39.0932 27.8281C39.5172 27.2777 39.8984 26.7291 40.2322 26.187C41.5687 24.0181 41.977 22.1903 41.3263 21.2987C40.6757 20.4072 38.8136 20.2416 36.3439 20.8608C35.7273 21.015 35.09 21.2124 34.4379 21.4501C34.8744 22.6981 35.251 24.0686 35.5506 25.5295ZM32.7725 20.7146C31.556 21.2326 30.2894 21.8773 29.0078 22.6399C27.5944 22.1708 26.2205 21.8137 24.9225 21.5695C25.0437 20.8854 25.1923 20.2342 25.3679 19.6224C26.0713 17.1738 27.1461 15.6404 28.2438 15.521C29.3416 15.4017 30.717 16.6677 31.9242 18.9088C32.2256 19.4685 32.509 20.0725 32.7725 20.7146ZM33.2316 21.9283C33.5387 22.8104 33.8112 23.749 34.0453 24.7307C33.4946 24.4545 32.9278 24.1872 32.3466 23.9306C31.7658 23.6741 31.1869 23.4354 30.6122 23.2144C31.4956 22.7263 32.3729 22.2955 33.2316 21.9283Z" fill="var(--fill-0, #760DDE)"/>
<path d="M28.1052 14.2287L28.0393 13.6233L28.0393 13.6233L28.1052 14.2287ZM23.6426 21.3618L23.5609 21.9653L24.1413 22.0439L24.2425 21.467L23.6426 21.3618ZM33.9789 20.2362L33.4151 20.4665L33.6371 21.0101L34.1884 20.8081L33.9789 20.2362ZM42.3754 20.5309L42.8673 20.1719L42.8673 20.1719L42.3754 20.5309ZM40.1091 28.6345L39.6272 28.262L39.269 28.7253L39.718 29.1014L40.1091 28.6345ZM35.9033 38.1577L35.985 37.5541L35.4046 37.4756L35.3035 38.0525L35.9033 38.1577ZM31.4412 45.29L31.5073 45.8955V45.8955L31.4412 45.29ZM25.5672 39.2826L26.131 39.0523L25.909 38.5087L25.3576 38.7108L25.5672 39.2826ZM17.1707 38.9879L16.6788 39.347V39.347L17.1707 38.9879ZM19.4362 30.8857L19.9181 31.2582L20.2763 30.7949L19.8273 30.4188L19.4362 30.8857ZM23.4519 22.6464L24.0564 22.7207L24.1299 22.1225L23.5326 22.0427L23.4519 22.6464ZM21.4638 22.4808L21.481 21.872L21.4805 21.872L21.4638 22.4808ZM18.7958 28.5219L18.3574 28.9446L18.3575 28.9447L18.7958 28.5219ZM20.2571 29.8796L19.8652 30.3458L20.3266 30.7336L20.7192 30.2762L20.2571 29.8796ZM23.231 26.87L23.6359 27.325L23.8432 27.1404L23.84 26.8629L23.231 26.87ZM24.5323 25.7653L23.9234 25.7531L23.897 27.0637L24.9156 26.2386L24.5323 25.7653ZM24.7319 22.8541L24.8454 22.2557L24.2057 22.1343L24.1273 22.7807L24.7319 22.8541ZM27.5624 23.5465L27.8978 24.0549L28.9894 23.3347L27.7356 22.9627L27.5624 23.5465ZM26.0205 24.6191L25.6607 24.1278L25.6607 24.1278L26.0205 24.6191ZM21.2727 30.6857L20.8112 30.2883L20.3864 30.7816L20.9069 31.1727L21.2727 30.6857ZM23.2911 28.5758L23.8991 28.5404L23.8228 27.2317L22.8718 28.1341L23.2911 28.5758ZM23.6924 32.3121L23.3776 32.8335L24.497 33.5095L24.294 32.2176L23.6924 32.3121ZM23.4464 30.4483L22.8408 30.5133L22.8408 30.5133L23.4464 30.4483ZM25.1521 33.1441L24.5535 33.2558L24.6069 33.5424L24.8637 33.6805L25.1521 33.1441ZM24.7376 30.3073L24.132 30.3723L24.132 30.3723L24.7376 30.3073ZM24.5408 27.4484L24.144 26.9863L23.9235 27.1757L23.932 27.4663L24.5408 27.4484ZM26.7861 25.6684L27.146 26.1598V26.1598L26.7861 25.6684ZM29.1607 24.065L29.3628 23.4905L29.0878 23.3938L28.84 23.5473L29.1607 24.065ZM34.3943 26.3764L34.993 26.2647L34.9395 25.9781L34.6828 25.84L34.3943 26.3764ZM34.8084 29.2112L35.4139 29.1462V29.1462L34.8084 29.2112ZM35.0051 32.0707L35.4018 32.5327L35.6224 32.3433L35.6138 32.0527L35.0051 32.0707ZM32.76 33.8504L33.1199 34.3417V34.3417L32.76 33.8504ZM30.3842 35.4546L30.1821 36.0291L30.4571 36.1259L30.7049 35.9724L30.3842 35.4546ZM20.4518 31.6918L20.8184 31.2055L20.3371 30.8428L19.9694 31.3202L20.4518 31.6918ZM23.9959 33.9911L24.5925 33.8687L24.5366 33.5961L24.2939 33.46L23.9959 33.9911ZM19.3132 33.3321L18.7946 33.0127L18.7946 33.0127L19.3132 33.3321ZM18.2195 38.2206L17.7276 38.5797L17.7276 38.5797L18.2195 38.2206ZM23.2019 38.6586L23.0542 38.0677L23.0538 38.0678L23.2019 38.6586ZM25.1084 38.0692L25.3169 38.6414L25.8817 38.4356L25.6832 37.8682L25.1084 38.0692ZM26.3146 37.5909L25.7395 37.7912L25.954 38.4075L26.5541 38.1509L26.3146 37.5909ZM25.5012 34.7898L25.7741 34.2453L24.6053 33.6593L24.9088 34.9311L25.5012 34.7898ZM28.9328 36.3052L29.2274 36.8382L30.3718 36.2058L29.1513 35.7367L28.9328 36.3052ZM27.6221 40.6105L27.0859 40.8993L27.0859 40.8993L27.6221 40.6105ZM26.7735 38.8042L26.5349 38.2439L25.9818 38.4794L26.2101 39.0355L26.7735 38.8042ZM31.3019 43.998L31.2358 43.3926V43.3926L31.3019 43.998ZM34.1778 39.8966L33.5924 39.7284L33.5923 39.7288L34.1778 39.8966ZM34.6233 37.9501L35.223 38.0563L35.3281 37.4629L34.7358 37.3515L34.6233 37.9501ZM30.537 36.8797L30.7288 36.3016L30.4647 36.214L30.2256 36.3563L30.537 36.8797ZM36.094 36.8734L35.4895 36.7991L35.416 37.3973L36.0134 37.477L36.094 36.8734ZM38.0808 37.0387L38.0636 37.6475L38.4726 37.659L38.6379 37.2847L38.0808 37.0387ZM38.081 37.0382L38.098 36.4294L37.6891 36.4179L37.5239 36.7921L38.081 37.0382ZM40.7487 30.9976L40.3101 31.4201L40.3102 31.4202L40.7487 30.9976ZM39.2885 29.6403L39.6803 29.1741L39.219 28.7863L38.8264 29.2436L39.2885 29.6403ZM36.3149 32.6492L35.91 32.1942L35.7027 32.3788L35.7059 32.6563L36.3149 32.6492ZM35.0136 33.7538L35.6225 33.766L35.6489 32.4555L34.6303 33.2805L35.0136 33.7538ZM34.8139 36.6658L34.7004 37.2641L35.3401 37.3855L35.4185 36.7391L34.8139 36.6658ZM31.9824 35.9731L31.647 35.4647L30.5554 36.1849L31.8092 36.557L31.9824 35.9731ZM33.5256 34.8997L33.1658 34.4083V34.4083L33.5256 34.8997ZM38.2726 28.8339L38.7341 29.2313L39.1589 28.738L38.6384 28.347L38.2726 28.8339ZM36.2549 30.9432L35.6469 30.9786L35.7231 32.2874L36.6741 31.385L36.2549 30.9432ZM35.8539 27.2083L36.1687 26.687L35.0494 26.011L35.2522 27.3028L35.8539 27.2083ZM36.0996 29.0702L35.494 29.1352L35.494 29.1352L36.0996 29.0702ZM35.5506 25.5295L34.9539 25.6518L35.0098 25.9244L35.2525 26.0606L35.5506 25.5295ZM39.0932 27.8281L38.7266 28.3145L39.2079 28.6772L39.5757 28.1998L39.0932 27.8281ZM40.2322 26.187L39.7137 25.8675L39.7136 25.8677L40.2322 26.187ZM36.3439 20.8608L36.4917 21.4516L36.492 21.4515L36.3439 20.8608ZM34.4379 21.4501L34.2294 20.8779L33.6646 21.0837L33.863 21.6512L34.4379 21.4501ZM29.0078 22.6399L28.816 23.2179L29.0801 23.3055L29.3193 23.1632L29.0078 22.6399ZM32.7725 20.7146L33.0111 21.2749L33.5642 21.0394L33.3359 20.4833L32.7725 20.7146ZM24.9225 21.5695L24.3228 21.4633L24.2178 22.0566L24.8099 22.168L24.9225 21.5695ZM25.3679 19.6224L24.7826 19.4543L24.7826 19.4543L25.3679 19.6224ZM28.2438 15.521L28.178 14.9156L28.178 14.9156L28.2438 15.521ZM31.9242 18.9088L32.4604 18.62L32.4604 18.6199L31.9242 18.9088ZM33.2316 21.9283L33.8068 21.7281L33.5922 21.1118L32.9922 21.3683L33.2316 21.9283ZM34.0453 24.7307L33.7723 25.2751L34.9411 25.8612L34.6378 24.5894L34.0453 24.7307ZM30.6122 23.2144L30.3176 22.6814L29.1732 23.3138L30.3937 23.7829L30.6122 23.2144ZM28.1052 14.2287L28.0393 13.6233C26.7069 13.7685 25.6315 14.7053 24.8234 16.0274C24.011 17.3565 23.41 19.1623 23.0427 21.2566L23.6426 21.3618L24.2425 21.467C24.5941 19.4615 25.1571 17.817 25.8627 16.6627C26.5725 15.5013 27.3689 14.9216 28.1712 14.8341L28.1052 14.2287ZM33.9789 20.2362L34.5427 20.006C33.7392 18.0389 32.7685 16.4039 31.6925 15.2802C30.622 14.1621 29.3719 13.4781 28.0393 13.6233L28.1052 14.2287L28.1712 14.8341C28.9729 14.7468 29.8732 15.1413 30.8127 16.1226C31.7467 17.098 32.6457 18.5831 33.4151 20.4665L33.9789 20.2362ZM33.9789 20.2362L34.1884 20.8081C36.0987 20.1081 37.8019 19.7722 39.152 19.8054C40.5102 19.8389 41.4081 20.2386 41.8834 20.89L42.3754 20.5309L42.8673 20.1719C42.0771 19.0891 40.7294 18.6259 39.182 18.5878C37.6266 18.5494 35.7644 18.9333 33.7693 19.6644L33.9789 20.2362ZM42.3754 20.5309L41.8834 20.89C42.3591 21.5418 42.4671 22.521 42.0868 23.828C41.7089 25.1272 40.8727 26.6511 39.6272 28.262L40.1091 28.6345L40.5909 29.007C41.8915 27.3247 42.8213 25.664 43.2564 24.1683C43.6892 22.6804 43.6573 21.2544 42.8673 20.1719L42.3754 20.5309ZM40.1091 28.6345L39.718 29.1014C41.2764 30.4067 42.4166 31.715 43.0614 32.9023C43.71 34.0965 43.8128 35.0763 43.486 35.8161L44.0431 36.0622L44.6003 36.3082C45.142 35.0814 44.8708 33.6817 44.1318 32.321C43.389 30.9533 42.1279 29.531 40.5001 28.1676L40.1091 28.6345ZM44.0431 36.0622L43.486 35.8161C43.1593 36.556 42.3659 37.14 41.0464 37.465C39.7345 37.7882 37.9995 37.8267 35.985 37.5541L35.9033 38.1577L35.8217 38.7612C37.9258 39.0459 39.8265 39.02 41.3377 38.6477C42.8413 38.2774 44.0585 37.535 44.6003 36.3082L44.0431 36.0622ZM31.4412 45.29L31.5073 45.8955C32.8396 45.7501 33.9149 44.8133 34.7229 43.4914C35.5351 42.1624 36.1361 40.3569 36.5032 38.2628L35.9033 38.1577L35.3035 38.0525C34.9519 40.0577 34.389 41.702 33.6836 42.8561C32.9739 44.0173 32.1776 44.597 31.3752 44.6846L31.4412 45.29ZM25.5672 39.2826L25.0034 39.5129C25.8068 41.48 26.7774 43.115 27.8535 44.2389C28.9241 45.3569 30.1744 46.0409 31.5073 45.8955L31.4412 45.29L31.3752 44.6846C30.5732 44.7721 29.6729 44.3777 28.7333 43.3965C27.7993 42.421 26.9003 40.9359 26.131 39.0523L25.5672 39.2826ZM25.5672 39.2826L25.3576 38.7108C23.4474 39.4107 21.7443 39.7466 20.3943 39.7133C19.0362 39.6799 18.1382 39.2802 17.6626 38.6288L17.1707 38.9879L16.6788 39.347C17.4693 40.4297 18.8169 40.8929 20.3643 40.931C21.9196 40.9693 23.7818 40.5855 25.7767 39.8544L25.5672 39.2826ZM17.1707 38.9879L17.6626 38.6288C17.1868 37.9772 17.0789 36.9983 17.459 35.6915C17.8369 34.3926 18.673 32.8689 19.9181 31.2582L19.4362 30.8857L18.9544 30.5133C17.6541 32.1953 16.7245 33.8557 16.2894 35.3512C15.8567 36.8389 15.8886 38.2647 16.6788 39.347L17.1707 38.9879ZM19.4362 30.8857L19.8273 30.4188C18.2687 29.1135 17.1284 27.8052 16.4836 26.6179C15.835 25.4236 15.7322 24.4437 16.0591 23.7036L15.5019 23.4576L14.9448 23.2115C14.403 24.4385 14.6741 25.8383 15.4132 27.1992C16.156 28.567 17.4173 29.9892 19.0452 31.3526L19.4362 30.8857ZM15.5019 23.4576L16.0591 23.7036C16.386 22.9634 17.1794 22.3792 18.499 22.0542C19.811 21.731 21.5461 21.6925 23.5609 21.9653L23.6426 21.3618L23.7243 20.7583C21.6199 20.4733 19.719 20.4992 18.2077 20.8715C16.704 21.2419 15.4867 21.9845 14.9448 23.2115L15.5019 23.4576ZM23.4519 22.6464L23.5326 22.0427C22.826 21.9483 22.1399 21.8906 21.481 21.872L21.4638 22.4808L21.4466 23.0896C22.0588 23.1068 22.7023 23.1606 23.3712 23.25L23.4519 22.6464ZM21.4638 22.4808L21.4805 21.872C20.1681 21.8359 19.0141 21.9606 18.1092 22.2452C17.2242 22.5236 16.4622 22.9937 16.1341 23.7367L16.6912 23.9828L17.2483 24.2288C17.3669 23.9602 17.7205 23.6444 18.4747 23.4072C19.209 23.1762 20.2179 23.0558 21.447 23.0896L21.4638 22.4808ZM16.6912 23.9828L16.1341 23.7367C15.806 24.4795 15.9711 25.3592 16.3614 26.201C16.7604 27.0617 17.4456 27.9987 18.3574 28.9446L18.7958 28.5219L19.2343 28.0993C18.3806 27.2136 17.7901 26.3868 17.4665 25.6887C17.1341 24.9718 17.1296 24.4976 17.2483 24.2288L16.6912 23.9828ZM18.7958 28.5219L18.3575 28.9447C18.815 29.4191 19.3196 29.8872 19.8652 30.3458L20.2571 29.8796L20.6489 29.4133C20.1324 28.9792 19.6593 28.5399 19.2342 28.0992L18.7958 28.5219ZM20.2571 29.8796L20.7192 30.2762C21.562 29.2944 22.5403 28.3002 23.6359 27.325L23.231 26.87L22.8261 26.4151C21.6929 27.4238 20.6759 28.4566 19.795 29.4829L20.2571 29.8796ZM23.4519 22.6464L22.8474 22.572C22.6824 23.914 22.6042 25.3608 22.622 26.8772L23.231 26.87L23.84 26.8629C23.8228 25.3967 23.8985 24.0045 24.0564 22.7207L23.4519 22.6464ZM24.5323 25.7653L25.1412 25.7776C25.1611 24.7874 25.2266 23.8328 25.3365 22.9274L24.7319 22.8541L24.1273 22.7807C24.0122 23.7298 23.9441 24.7253 23.9234 25.7531L24.5323 25.7653ZM27.5624 23.5465L27.7356 22.9627C26.7515 22.6707 25.7835 22.4337 24.8454 22.2557L24.7319 22.8541L24.6184 23.4524C25.5131 23.6222 26.4411 23.8491 27.3892 24.1304L27.5624 23.5465ZM26.0205 24.6191L26.3803 25.1105C26.8851 24.7409 27.3917 24.3888 27.8978 24.0549L27.5624 23.5465L27.227 23.0382C26.7042 23.3831 26.1814 23.7465 25.6607 24.1278L26.0205 24.6191ZM24.5323 25.7653L24.9156 26.2386C25.3869 25.8568 25.8755 25.4801 26.3803 25.1105L26.0205 24.6191L25.6607 24.1278C25.14 24.5091 24.6357 24.8978 24.1489 25.2921L24.5323 25.7653ZM21.2727 30.6857L21.7342 31.0831C22.3297 30.3916 22.9915 29.6997 23.7103 29.0176L23.2911 28.5758L22.8718 28.1341C22.1257 28.8421 21.4355 29.5634 20.8112 30.2883L21.2727 30.6857ZM23.6924 32.3121L24.0072 31.7908C23.1603 31.2793 22.367 30.746 21.6385 30.1988L21.2727 30.6857L20.9069 31.1727C21.6707 31.7464 22.4983 32.3025 23.3776 32.8335L23.6924 32.3121ZM23.4464 30.4483L22.8408 30.5133C22.9098 31.1556 22.9935 31.7874 23.0907 32.4066L23.6924 32.3121L24.294 32.2176C24.1999 31.618 24.1188 31.0059 24.0519 30.3832L23.4464 30.4483ZM23.2911 28.5758L22.6831 28.6113C22.7195 29.2367 22.7719 29.8715 22.8408 30.5133L23.4464 30.4483L24.0519 30.3832C23.9851 29.761 23.9343 29.146 23.8991 28.5404L23.2911 28.5758ZM25.1521 33.1441L25.7508 33.0324C25.5822 32.1283 25.4453 31.1951 25.3431 30.2424L24.7376 30.3073L24.132 30.3723C24.2375 31.3557 24.3789 32.3201 24.5535 33.2558L25.1521 33.1441ZM24.7376 30.3073L25.3431 30.2424C25.241 29.2901 25.1767 28.3494 25.1496 27.4304L24.5408 27.4484L23.932 27.4663C23.9601 28.4175 24.0266 29.3894 24.132 30.3723L24.7376 30.3073ZM24.5408 27.4484L24.9376 27.9104C25.635 27.3115 26.3735 26.7255 27.146 26.1598L26.7861 25.6684L26.4262 25.1771C25.629 25.761 24.8659 26.3665 24.144 26.9863L24.5408 27.4484ZM26.7861 25.6684L27.146 26.1598C27.9185 25.5939 28.7 25.0668 29.4814 24.5828L29.1607 24.065L28.84 23.5473C28.0312 24.0483 27.2236 24.5931 26.4262 25.1771L26.7861 25.6684ZM29.1607 24.065L28.9586 24.6396C29.8248 24.9442 30.7002 25.291 31.5752 25.6774L31.8212 25.1203L32.0672 24.5631C31.1641 24.1643 30.2594 23.8059 29.3628 23.4905L29.1607 24.065ZM31.8212 25.1203L31.5752 25.6774C32.4504 26.0639 33.2967 26.4775 34.1057 26.9127L34.3943 26.3764L34.6828 25.84C33.8453 25.3896 32.9706 24.9621 32.0672 24.5631L31.8212 25.1203ZM34.3943 26.3764L33.7956 26.488C33.9641 27.3915 34.1007 28.3241 34.2028 29.2761L34.8084 29.2112L35.4139 29.1462C35.3086 28.1636 35.1674 27.1999 34.993 26.2647L34.3943 26.3764ZM34.8084 29.2112L34.2028 29.2761C34.3049 30.2285 34.3692 31.1693 34.3963 32.0886L35.0051 32.0707L35.6138 32.0527C35.5858 31.1013 35.5193 30.1292 35.4139 29.1462L34.8084 29.2112ZM35.0051 32.0707L34.6083 31.6086C33.9109 32.2074 33.1726 32.7933 32.4001 33.3591L32.76 33.8504L33.1199 34.3417C33.9171 33.7579 34.6801 33.1525 35.4018 32.5327L35.0051 32.0707ZM32.76 33.8504L32.4001 33.3591C31.6272 33.9252 30.8453 34.4526 30.0635 34.9369L30.3842 35.4546L30.7049 35.9724C31.5141 35.4711 32.3221 34.926 33.1199 34.3417L32.76 33.8504ZM30.3842 35.4546L30.5863 34.8801C29.72 34.5754 28.8445 34.2286 27.9694 33.8421L27.7233 34.3992L27.4773 34.9564C28.3806 35.3553 29.2855 35.7137 30.1821 36.0291L30.3842 35.4546ZM27.7233 34.3992L27.9694 33.8421C27.0946 33.4558 26.249 33.0425 25.4406 32.6077L25.1521 33.1441L24.8637 33.6805C25.7004 34.1305 26.5744 34.5576 27.4773 34.9564L27.7233 34.3992ZM20.4518 31.6918L20.0853 32.1782C21.1639 32.991 22.3767 33.7809 23.6979 34.5222L23.9959 33.9911L24.2939 33.46C23.0167 32.7433 21.85 31.9829 20.8184 31.2055L20.4518 31.6918ZM19.3132 33.3321L19.8317 33.6516C20.1532 33.1296 20.522 32.5987 20.9343 32.0635L20.4518 31.6918L19.9694 31.3202C19.534 31.8854 19.1406 32.4511 18.7946 33.0127L19.3132 33.3321ZM18.2195 38.2206L18.7114 37.8616C18.5392 37.6256 18.4428 37.1615 18.6157 36.3884C18.7839 35.636 19.1856 34.7006 19.8317 33.6515L19.3132 33.3321L18.7946 33.0127C18.1047 34.1328 17.6342 35.1959 17.427 36.1226C17.2244 37.0285 17.2491 37.9241 17.7276 38.5797L18.2195 38.2206ZM23.2019 38.6586L23.0538 38.0678C21.8596 38.3672 20.8483 38.467 20.0821 38.3994C19.295 38.33 18.8835 38.0973 18.7114 37.8616L18.2195 38.2206L17.7276 38.5797C18.2062 39.2354 19.051 39.5313 19.9751 39.6128C20.92 39.6961 22.0745 39.5691 23.35 39.2493L23.2019 38.6586ZM25.1084 38.0692L24.8998 37.497C24.2654 37.7283 23.6483 37.9192 23.0542 38.0677L23.2019 38.6586L23.3496 39.2494C23.989 39.0896 24.6468 38.8857 25.3169 38.6414L25.1084 38.0692ZM23.9959 33.9911L23.3993 34.1134C23.7038 35.5985 24.0874 36.9949 24.5335 38.2703L25.1084 38.0692L25.6832 37.8682C25.2565 36.6481 24.887 35.3046 24.5925 33.8687L23.9959 33.9911ZM26.3146 37.5909L26.8898 37.3907C26.5901 36.5299 26.3233 35.6114 26.0936 34.6484L25.5012 34.7898L24.9088 34.9311C25.1473 35.9307 25.4253 36.8887 25.7395 37.7912L26.3146 37.5909ZM25.5012 34.7898L25.2282 35.3342C25.7873 35.6145 26.3624 35.8857 26.9519 36.146L27.1979 35.5889L27.444 35.0318C26.8726 34.7794 26.3154 34.5167 25.7741 34.2453L25.5012 34.7898ZM27.1979 35.5889L26.9519 36.146C27.5419 36.4066 28.1301 36.6492 28.7143 36.8737L28.9328 36.3052L29.1513 35.7367C28.5857 35.5193 28.0158 35.2843 27.444 35.0318L27.1979 35.5889ZM28.9328 36.3052L28.6382 35.7722C27.7717 36.2511 26.9132 36.6726 26.0752 37.031L26.3146 37.5909L26.5541 38.1509C27.4327 37.7752 28.328 37.3353 29.2274 36.8382L28.9328 36.3052ZM27.6221 40.6105L28.1583 40.3217C27.8679 39.7825 27.5934 39.1977 27.3369 38.573L26.7735 38.8042L26.2101 39.0355C26.481 39.6953 26.7733 40.3189 27.0859 40.8993L27.6221 40.6105ZM31.3019 43.998L31.2358 43.3926C30.9456 43.4243 30.4968 43.2767 29.9154 42.7413C29.3494 42.2201 28.742 41.4052 28.1583 40.3217L27.6221 40.6105L27.0859 40.8993C27.7091 42.0561 28.3926 42.9949 29.0903 43.6373C29.7725 44.2656 30.5601 44.6916 31.368 44.6034L31.3019 43.998ZM34.1778 39.8966L33.5923 39.7288C33.2527 40.9131 32.8322 41.84 32.3896 42.471C31.9349 43.1193 31.5267 43.3608 31.2358 43.3926L31.3019 43.998L31.368 44.6034C32.1749 44.5153 32.8536 43.9307 33.3868 43.1705C33.9321 42.3931 34.4006 41.3292 34.7632 40.0645L34.1778 39.8966ZM34.6233 37.9501L34.0236 37.8438C33.9058 38.5091 33.7617 39.1393 33.5924 39.7284L34.1778 39.8966L34.7631 40.0648C34.9453 39.4308 35.0985 38.7589 35.223 38.0563L34.6233 37.9501ZM34.6233 37.9501L34.7358 37.3515C33.4664 37.1128 32.1187 36.7628 30.7288 36.3016L30.537 36.8797L30.3452 37.4577C31.7829 37.9347 33.1836 38.299 34.5107 38.5486L34.6233 37.9501ZM30.537 36.8797L30.2256 36.3563C28.966 37.1057 27.724 37.7375 26.5349 38.2439L26.7735 38.8042L27.0121 39.3646C28.2552 38.8353 29.5457 38.1782 30.8484 37.4031L30.537 36.8797ZM36.094 36.8734L36.0134 37.477C36.7195 37.5714 37.4052 37.6289 38.0636 37.6475L38.0808 37.0387L38.0979 36.4299C37.4862 36.4127 36.8431 36.359 36.1746 36.2697L36.094 36.8734ZM38.0808 37.0387L38.6379 37.2847L38.6381 37.2842L38.081 37.0382L37.5239 36.7921L37.5236 36.7927L38.0808 37.0387ZM38.081 37.0382L38.064 37.647C39.3771 37.6837 40.5312 37.5591 41.436 37.2744C42.3211 36.996 43.0824 36.5256 43.4105 35.7828L42.8534 35.5367L42.2963 35.2907C42.1775 35.5595 41.8242 35.8754 41.0704 36.1125C40.3365 36.3435 39.3278 36.4638 38.098 36.4294L38.081 37.0382ZM42.8534 35.5367L43.4105 35.7828C43.7385 35.04 43.5734 34.1603 43.1832 33.3185C42.7841 32.4578 42.0989 31.5208 41.1872 30.5749L40.7487 30.9976L40.3102 31.4202C41.1639 32.3059 41.7544 33.1326 42.0781 33.8308C42.4104 34.5477 42.415 35.0219 42.2963 35.2907L42.8534 35.5367ZM40.7487 30.9976L41.1873 30.575C40.7303 30.1008 40.2259 29.6326 39.6803 29.1741L39.2885 29.6403L38.8966 30.1065C39.413 30.5406 39.8858 30.9797 40.3101 31.4201L40.7487 30.9976ZM39.2885 29.6403L38.8264 29.2436C37.9837 30.2252 37.0055 31.2192 35.91 32.1942L36.3149 32.6492L36.7198 33.1041C37.8529 32.0956 38.8697 31.0631 39.7506 30.037L39.2885 29.6403ZM36.094 36.8734L36.6985 36.9477C36.8635 35.6056 36.9417 34.1586 36.9239 32.642L36.3149 32.6492L35.7059 32.6563C35.7231 34.1227 35.6474 35.5151 35.4895 36.7991L36.094 36.8734ZM35.0136 33.7538L34.4047 33.7415C34.3848 34.7319 34.3192 35.6868 34.2093 36.5924L34.8139 36.6658L35.4185 36.7391C35.5337 35.7898 35.6018 34.794 35.6225 33.766L35.0136 33.7538ZM31.9824 35.9731L31.8092 36.557C32.7938 36.8491 33.762 37.0861 34.7004 37.2641L34.8139 36.6658L34.9274 36.0674C34.0324 35.8976 33.1041 35.6706 32.1557 35.3892L31.9824 35.9731ZM33.5256 34.8997L33.1658 34.4083C32.6606 34.7782 32.1536 35.1305 31.647 35.4647L31.9824 35.9731L32.3178 36.4814C32.841 36.1363 33.3642 35.7726 33.8854 35.3911L33.5256 34.8997ZM35.0136 33.7538L34.6303 33.2805C34.1591 33.6622 33.6705 34.0388 33.1658 34.4083L33.5256 34.8997L33.8854 35.3911C34.406 35.0099 34.9103 34.6212 35.3969 34.227L35.0136 33.7538ZM38.2726 28.8339L37.8111 28.4365C37.2158 29.1279 36.5543 29.8195 35.8357 30.5014L36.2549 30.9432L36.6741 31.385C37.42 30.6772 38.1101 29.9561 38.7341 29.2313L38.2726 28.8339ZM35.8539 27.2083L35.5391 27.7296C36.3857 28.2409 37.1787 28.774 37.9068 29.3209L38.2726 28.8339L38.6384 28.347C37.8749 27.7736 37.0477 27.2177 36.1687 26.687L35.8539 27.2083ZM36.0996 29.0702L36.7051 29.0052C36.6362 28.3636 36.5527 27.7325 36.4556 27.1138L35.8539 27.2083L35.2522 27.3028C35.3463 27.9017 35.4273 28.5132 35.494 29.1352L36.0996 29.0702ZM36.2549 30.9432L36.8629 30.9078C36.8264 30.2822 36.7741 29.6472 36.7051 29.0052L36.0996 29.0702L35.494 29.1352C35.5609 29.7577 35.6116 30.3728 35.6469 30.9786L36.2549 30.9432ZM35.5506 25.5295L35.2525 26.0606C36.5292 26.7771 37.6953 27.5372 38.7266 28.3145L39.0932 27.8281L39.4597 27.3417C38.3816 26.5292 37.1692 25.7395 35.8486 24.9984L35.5506 25.5295ZM39.0932 27.8281L39.5757 28.1998C40.0112 27.6343 40.4047 27.0683 40.7508 26.5063L40.2322 26.187L39.7136 25.8677C39.392 26.3899 39.0232 26.921 38.6107 27.4564L39.0932 27.8281ZM40.2322 26.187L40.7507 26.5065C41.4408 25.3865 41.9115 24.3235 42.1188 23.3968C42.3215 22.4908 42.2967 21.5953 41.8183 20.9397L41.3263 21.2987L40.8344 21.6578C41.0066 21.8937 41.1031 22.3578 40.9301 23.1309C40.7618 23.8832 40.3601 24.8186 39.7137 25.8675L40.2322 26.187ZM41.3263 21.2987L41.8183 20.9397C41.3397 20.2839 40.4948 19.9881 39.5708 19.9066C38.6258 19.8233 37.4714 19.9503 36.1958 20.27L36.3439 20.8608L36.492 21.4515C37.6862 21.1521 38.6976 21.0524 39.4638 21.1199C40.2508 21.1893 40.6623 21.4221 40.8344 21.6578L41.3263 21.2987ZM36.3439 20.8608L36.1962 20.27C35.5569 20.4299 34.8992 20.6337 34.2294 20.8779L34.4379 21.4501L34.6464 22.0223C35.2807 21.7911 35.8977 21.6002 36.4917 21.4516L36.3439 20.8608ZM35.5506 25.5295L36.1472 25.4072C35.8426 23.9216 35.459 22.5247 35.0128 21.249L34.4379 21.4501L33.863 21.6512C34.2898 22.8715 34.6595 24.2155 34.9539 25.6518L35.5506 25.5295ZM29.0078 22.6399L29.3193 23.1632C30.5792 22.4135 31.8216 21.7815 33.0111 21.2749L32.7725 20.7146L32.5339 20.1542C31.2905 20.6837 29.9995 21.3411 28.6964 22.1165L29.0078 22.6399ZM24.9225 21.5695L24.8099 22.168C26.0791 22.4068 27.4264 22.7568 28.816 23.2179L29.0078 22.6399L29.1997 22.0618C27.7623 21.5849 26.362 21.2206 25.0351 20.9709L24.9225 21.5695ZM24.9225 21.5695L25.5222 21.6757C25.6401 21.0102 25.7841 20.3799 25.9533 19.7905L25.3679 19.6224L24.7826 19.4543C24.6005 20.0885 24.4473 20.7605 24.3228 21.4633L24.9225 21.5695ZM25.3679 19.6224L25.9533 19.7905C26.2935 18.6062 26.7141 17.6791 27.1567 17.0479C27.6114 16.3993 28.0192 16.1581 28.3097 16.1265L28.2438 15.521L28.178 14.9156C27.3708 15.0033 26.6923 15.5885 26.1593 16.3486C25.6142 17.1261 25.1457 18.19 24.7826 19.4543L25.3679 19.6224ZM28.2438 15.521L28.3097 16.1265C28.6 16.0949 29.049 16.2425 29.6305 16.7778C30.1966 17.2989 30.8042 18.1137 31.388 19.1976L31.9242 18.9088L32.4604 18.6199C31.837 17.4627 31.1533 16.524 30.4554 15.8816C29.773 15.2535 28.9855 14.8278 28.178 14.9156L28.2438 15.521ZM31.9242 18.9088L31.3879 19.1975C31.6783 19.7367 31.9528 20.3213 32.2091 20.9459L32.7725 20.7146L33.3359 20.4833C33.0652 19.8237 32.7729 19.2003 32.4604 18.62L31.9242 18.9088ZM33.2316 21.9283L32.6564 22.1285C32.9562 22.9898 33.2231 23.9086 33.4529 24.872L34.0453 24.7307L34.6378 24.5894C34.3992 23.5893 34.1211 22.631 33.8068 21.7281L33.2316 21.9283ZM32.3466 23.9306L32.1006 24.4877C32.6727 24.7403 33.2305 25.0034 33.7723 25.2751L34.0453 24.7307L34.3184 24.1863C33.7586 23.9056 33.1829 23.6341 32.5926 23.3735L32.3466 23.9306ZM30.6122 23.2144L30.3937 23.7829C30.9591 24.0003 31.5289 24.2352 32.1006 24.4877L32.3466 23.9306L32.5926 23.3735C32.0028 23.113 31.4148 22.8705 30.8307 22.646L30.6122 23.2144ZM33.2316 21.9283L32.9922 21.3683C32.1132 21.7442 31.2175 22.1841 30.3176 22.6814L30.6122 23.2144L30.9068 23.7475C31.7737 23.2684 32.6326 22.8468 33.4711 22.4883L33.2316 21.9283Z" fill="var(--stroke-0, #760DDE)" mask="url(#path-6-outside-1_249_2495)"/>
</g>
</g>
<path id="Vector_6" d="M103.474 87.1783C101.838 82.5987 101.409 79.3276 100.939 76.7925C98.9349 65.8955 95.9705 49.8669 87.7518 39.4606C80.3304 30.097 69.5048 26.4348 58.3625 22.5913L53.9509 33.28C60.3092 35.9992 61.9707 38.112 63.2494 40.1383C64.528 42.1646 65.1867 47.6111 63.2035 48.3267C61.752 48.8583 57.9844 45.962 51.8101 43.1202C51.2785 42.8748 50.7265 42.6091 50.195 42.3637C46.9852 40.8304 43.898 39.3175 41.6082 38.2135H41.5674C41.138 37.9886 40.77 37.8046 40.402 37.641C40.2793 37.5797 40.1567 37.5184 40.034 37.4775C39.7273 37.3344 39.482 37.2321 39.2366 37.1095C39.1344 37.0686 38.9913 37.0072 38.9096 36.9664C38.6029 36.8232 38.3371 36.721 38.1531 36.6597C37.0491 36.2712 35.5975 36.3121 34.2891 36.7415C33.6348 36.9664 33.0215 37.2935 32.5104 37.7024C31.9993 38.1317 31.5904 38.6428 31.3451 39.2561C31.1815 39.6446 31.0997 40.033 31.0384 40.4419C30.9975 40.8508 30.9975 41.2393 31.0384 41.6482C31.161 42.8339 31.6313 43.9789 32.1424 44.8784C32.49 45.4713 32.8375 45.962 33.1237 46.2891C33.2668 46.4527 33.3895 46.5549 33.4917 46.6367C34.0846 47.0251 34.5957 47.3726 35.066 47.6793C35.5362 47.986 35.9451 48.2313 36.3335 48.4562C36.906 48.8038 37.4171 49.0696 37.9282 49.3354C38.2758 49.4989 38.6029 49.6625 38.9709 49.826C39.3389 49.9896 39.7273 50.1736 40.1567 50.3576C40.586 50.5416 41.0767 50.7665 41.6287 50.9914C42.4465 51.3594 43.4278 51.7887 44.6136 52.3407C45.8403 52.9131 53.691 56.6136 58.8431 63.6466C61.6031 67.388 59.3951 76.8129 64.8947 83.2121C71.5187 90.9197 75.5872 89.3046 79.901 93.3935C84.3784 97.646 82.477 101.51 86.0753 104.331C92.2496 109.177 106.561 104.699 107.971 98.7091C108.626 95.9695 106.152 94.6815 103.474 87.1988V87.1783Z" fill="var(--fill-0, #FFC6A7)" stroke="var(--stroke-0, black)" stroke-width="0.806485" stroke-linejoin="round"/>
<path id="Vector_7" d="M147.114 217.897L184.669 193.467C185.631 192.842 185.903 191.555 185.278 190.594L116.516 84.889C115.891 83.9275 114.604 83.655 113.642 84.2804L76.0873 108.71C75.1259 109.336 74.8534 110.623 75.4788 111.584L144.24 217.289C144.866 218.25 146.153 218.523 147.114 217.897Z" fill="var(--fill-0, #760DDE)" stroke="var(--stroke-0, black)" stroke-width="0.718652"/>
</g>
</svg>
